<?xml version="1.0" encoding="utf-8" standalone="no"?>
<!DOCTYPE svg PUBLIC "-//W3C//DTD SVG 1.1//EN"
  "http://www.w3.org/Graphics/SVG/1.1/DTD/svg11.dtd">
<!-- Created with matplotlib (https://matplotlib.org/) -->
<svg height="345.6pt" version="1.1" viewBox="0 0 460.8 345.6" width="460.8pt" xmlns="http://www.w3.org/2000/svg" xmlns:xlink="http://www.w3.org/1999/xlink">
 <defs>
  <style type="text/css">
*{stroke-linecap:butt;stroke-linejoin:round;}
  </style>
 </defs>
 <g id="figure_1">
  <g id="patch_1">
   <path d="M 0 345.6 
L 460.8 345.6 
L 460.8 0 
L 0 0 
z
" style="fill:#ffffff;"/>
  </g>
  <g id="axes_1">
   <g id="patch_2">
    <path d="M 57.035 304.405 
L 450 304.405 
L 450 26.34 
L 57.035 26.34 
z
" style="fill:#ffffff;"/>
   </g>
   <g id="patch_3">
    <path clip-path="url(#p5db80c9f75)" d="M 74.897045 304.405 
L 104.059569 304.405 
L 104.059569 207.852696 
L 74.897045 207.852696 
z
" style="fill:#1f77b4;"/>
   </g>
   <g id="patch_4">
    <path clip-path="url(#p5db80c9f75)" d="M 111.350199 304.405 
L 140.512723 304.405 
L 140.512723 203.907952 
L 111.350199 203.907952 
z
" style="fill:#1f77b4;"/>
   </g>
   <g id="patch_5">
    <path clip-path="url(#p5db80c9f75)" d="M 147.803353 304.405 
L 176.965877 304.405 
L 176.965877 192.637255 
L 147.803353 192.637255 
z
" style="fill:#1f77b4;"/>
   </g>
   <g id="patch_6">
    <path clip-path="url(#p5db80c9f75)" d="M 184.256507 304.405 
L 213.419031 304.405 
L 213.419031 178.736729 
L 184.256507 178.736729 
z
" style="fill:#1f77b4;"/>
   </g>
   <g id="patch_7">
    <path clip-path="url(#p5db80c9f75)" d="M 220.709661 304.405 
L 249.872185 304.405 
L 249.872185 172.350001 
L 220.709661 172.350001 
z
" style="fill:#1f77b4;"/>
   </g>
   <g id="patch_8">
    <path clip-path="url(#p5db80c9f75)" d="M 257.162815 304.405 
L 286.325339 304.405 
L 286.325339 173.10138 
L 257.162815 173.10138 
z
" style="fill:#1f77b4;"/>
   </g>
   <g id="patch_9">
    <path clip-path="url(#p5db80c9f75)" d="M 293.615969 304.405 
L 322.778493 304.405 
L 322.778493 196.018464 
L 293.615969 196.018464 
z
" style="fill:#1f77b4;"/>
   </g>
   <g id="patch_10">
    <path clip-path="url(#p5db80c9f75)" d="M 330.069123 304.405 
L 359.231647 304.405 
L 359.231647 192.44941 
L 330.069123 192.44941 
z
" style="fill:#1f77b4;"/>
   </g>
   <g id="patch_11">
    <path clip-path="url(#p5db80c9f75)" d="M 366.522277 304.405 
L 395.684801 304.405 
L 395.684801 124.637384 
L 366.522277 124.637384 
z
" style="fill:#1f77b4;"/>
   </g>
   <g id="patch_12">
    <path clip-path="url(#p5db80c9f75)" d="M 402.975431 304.405 
L 432.137955 304.405 
L 432.137955 155.819645 
L 402.975431 155.819645 
z
" style="fill:#1f77b4;"/>
   </g>
   <g id="patch_13">
    <path clip-path="url(#p5db80c9f75)" d="M 74.897045 207.852696 
L 104.059569 207.852696 
L 104.059569 170.283706 
L 74.897045 170.283706 
z
" style="fill:#ff7f0e;"/>
   </g>
   <g id="patch_14">
    <path clip-path="url(#p5db80c9f75)" d="M 111.350199 203.907952 
L 140.512723 203.907952 
L 140.512723 156.946715 
L 111.350199 156.946715 
z
" style="fill:#ff7f0e;"/>
   </g>
   <g id="patch_15">
    <path clip-path="url(#p5db80c9f75)" d="M 147.803353 192.637255 
L 176.965877 192.637255 
L 176.965877 162.769908 
L 147.803353 162.769908 
z
" style="fill:#ff7f0e;"/>
   </g>
   <g id="patch_16">
    <path clip-path="url(#p5db80c9f75)" d="M 184.256507 178.736729 
L 213.419031 178.736729 
L 213.419031 154.50473 
L 184.256507 154.50473 
z
" style="fill:#ff7f0e;"/>
   </g>
   <g id="patch_17">
    <path clip-path="url(#p5db80c9f75)" d="M 220.709661 172.350001 
L 249.872185 172.350001 
L 249.872185 126.140143 
L 220.709661 126.140143 
z
" style="fill:#ff7f0e;"/>
   </g>
   <g id="patch_18">
    <path clip-path="url(#p5db80c9f75)" d="M 257.162815 173.10138 
L 286.325339 173.10138 
L 286.325339 140.228514 
L 257.162815 140.228514 
z
" style="fill:#ff7f0e;"/>
   </g>
   <g id="patch_19">
    <path clip-path="url(#p5db80c9f75)" d="M 293.615969 196.018464 
L 322.778493 196.018464 
L 322.778493 138.725755 
L 293.615969 138.725755 
z
" style="fill:#ff7f0e;"/>
   </g>
   <g id="patch_20">
    <path clip-path="url(#p5db80c9f75)" d="M 330.069123 192.44941 
L 359.231647 192.44941 
L 359.231647 151.874901 
L 330.069123 151.874901 
z
" style="fill:#ff7f0e;"/>
   </g>
   <g id="patch_21">
    <path clip-path="url(#p5db80c9f75)" d="M 366.522277 124.637384 
L 395.684801 124.637384 
L 395.684801 97.587711 
L 366.522277 97.587711 
z
" style="fill:#ff7f0e;"/>
   </g>
   <g id="patch_22">
    <path clip-path="url(#p5db80c9f75)" d="M 402.975431 155.819645 
L 432.137955 155.819645 
L 432.137955 106.040734 
L 402.975431 106.040734 
z
" style="fill:#ff7f0e;"/>
   </g>
   <g id="patch_23">
    <path clip-path="url(#p5db80c9f75)" d="M 74.897045 170.283706 
L 104.059569 170.283706 
L 104.059569 133.841786 
L 74.897045 133.841786 
z
" style="fill:#2ca02c;"/>
   </g>
   <g id="patch_24">
    <path clip-path="url(#p5db80c9f75)" d="M 111.350199 156.946715 
L 140.512723 156.946715 
L 140.512723 112.239617 
L 111.350199 112.239617 
z
" style="fill:#2ca02c;"/>
   </g>
   <g id="patch_25">
    <path clip-path="url(#p5db80c9f75)" d="M 147.803353 162.769908 
L 176.965877 162.769908 
L 176.965877 131.399802 
L 147.803353 131.399802 
z
" style="fill:#2ca02c;"/>
   </g>
   <g id="patch_26">
    <path clip-path="url(#p5db80c9f75)" d="M 184.256507 154.50473 
L 213.419031 154.50473 
L 213.419031 128.018593 
L 184.256507 128.018593 
z
" style="fill:#2ca02c;"/>
   </g>
   <g id="patch_27">
    <path clip-path="url(#p5db80c9f75)" d="M 220.709661 126.140143 
L 249.872185 126.140143 
L 249.872185 85.189944 
L 220.709661 85.189944 
z
" style="fill:#2ca02c;"/>
   </g>
   <g id="patch_28">
    <path clip-path="url(#p5db80c9f75)" d="M 257.162815 140.228514 
L 286.325339 140.228514 
L 286.325339 108.858408 
L 257.162815 108.858408 
z
" style="fill:#2ca02c;"/>
   </g>
   <g id="patch_29">
    <path clip-path="url(#p5db80c9f75)" d="M 293.615969 138.725755 
L 322.778493 138.725755 
L 322.778493 85.189944 
L 293.615969 85.189944 
z
" style="fill:#2ca02c;"/>
   </g>
   <g id="patch_30">
    <path clip-path="url(#p5db80c9f75)" d="M 330.069123 151.874901 
L 359.231647 151.874901 
L 359.231647 112.427462 
L 330.069123 112.427462 
z
" style="fill:#2ca02c;"/>
   </g>
   <g id="patch_31">
    <path clip-path="url(#p5db80c9f75)" d="M 366.522277 97.587711 
L 395.684801 97.587711 
L 395.684801 71.289418 
L 366.522277 71.289418 
z
" style="fill:#2ca02c;"/>
   </g>
   <g id="patch_32">
    <path clip-path="url(#p5db80c9f75)" d="M 402.975431 106.040734 
L 432.137955 106.040734 
L 432.137955 60.770101 
L 402.975431 60.770101 
z
" style="fill:#2ca02c;"/>
   </g>
   <g id="patch_33">
    <path clip-path="url(#p5db80c9f75)" d="M 74.897045 133.841786 
L 104.059569 133.841786 
L 104.059569 123.698159 
L 74.897045 123.698159 
z
" style="fill:#d62728;"/>
   </g>
   <g id="patch_34">
    <path clip-path="url(#p5db80c9f75)" d="M 111.350199 112.239617 
L 140.512723 112.239617 
L 140.512723 104.537974 
L 111.350199 104.537974 
z
" style="fill:#d62728;"/>
   </g>
   <g id="patch_35">
    <path clip-path="url(#p5db80c9f75)" d="M 147.803353 131.399802 
L 176.965877 131.399802 
L 176.965877 128.206438 
L 147.803353 128.206438 
z
" style="fill:#d62728;"/>
   </g>
   <g id="patch_36">
    <path clip-path="url(#p5db80c9f75)" d="M 184.256507 128.018593 
L 213.419031 128.018593 
L 213.419031 124.825228 
L 184.256507 124.825228 
z
" style="fill:#d62728;"/>
   </g>
   <g id="patch_37">
    <path clip-path="url(#p5db80c9f75)" d="M 220.709661 85.189944 
L 249.872185 85.189944 
L 249.872185 81.62089 
L 220.709661 81.62089 
z
" style="fill:#d62728;"/>
   </g>
   <g id="patch_38">
    <path clip-path="url(#p5db80c9f75)" d="M 257.162815 108.858408 
L 286.325339 108.858408 
L 286.325339 106.040734 
L 257.162815 106.040734 
z
" style="fill:#d62728;"/>
   </g>
   <g id="patch_39">
    <path clip-path="url(#p5db80c9f75)" d="M 293.615969 85.189944 
L 322.778493 85.189944 
L 322.778493 77.112611 
L 293.615969 77.112611 
z
" style="fill:#d62728;"/>
   </g>
   <g id="patch_40">
    <path clip-path="url(#p5db80c9f75)" d="M 330.069123 112.427462 
L 359.231647 112.427462 
L 359.231647 107.919183 
L 330.069123 107.919183 
z
" style="fill:#d62728;"/>
   </g>
   <g id="patch_41">
    <path clip-path="url(#p5db80c9f75)" d="M 366.522277 71.289418 
L 395.684801 71.289418 
L 395.684801 66.217604 
L 366.522277 66.217604 
z
" style="fill:#d62728;"/>
   </g>
   <g id="patch_42">
    <path clip-path="url(#p5db80c9f75)" d="M 402.975431 60.770101 
L 432.137955 60.770101 
L 432.137955 54.571217 
L 402.975431 54.571217 
z
" style="fill:#d62728;"/>
   </g>
   <g id="matplotlib.axis_1">
    <g id="xtick_1">
     <g id="line2d_1">
      <defs>
       <path d="M 0 0 
L 0 3.5 
" id="mf803a0621d" style="stroke:#000000;stroke-width:0.8;"/>
      </defs>
      <g>
       <use style="stroke:#000000;stroke-width:0.8;" x="89.478307" xlink:href="#mf803a0621d" y="304.405"/>
      </g>
     </g>
     <g id="text_1">
      <!-- 2010 -->
      <defs>
       <path d="M 57.171875 0.984375 
L 6.984375 0.984375 
L 6.984375 9.28125 
Q 12.890625 23.046875 29.59375 34.421875 
L 32.375 36.28125 
Q 40.921875 42.140625 43.609375 45.40625 
Q 46.6875 49.265625 46.6875 53.8125 
Q 46.6875 58.9375 43.0625 62.546875 
Q 39.0625 66.546875 32.5625 66.546875 
Q 19.53125 66.546875 15.484375 52 
L 7.765625 54.78125 
Q 13.328125 73.828125 33.0625 73.828125 
Q 43.84375 73.828125 50.25 67.4375 
Q 55.859375 61.671875 55.859375 53.515625 
Q 55.859375 47.46875 52.25 42.53125 
Q 48.921875 37.75 36.96875 30.28125 
L 34.859375 29 
Q 19.625 19.578125 15.28125 8.890625 
L 57.171875 8.890625 
z
" id="IPAexGothic-50"/>
       <path d="M 31.84375 73.828125 
Q 45.015625 73.828125 52.09375 61.625 
Q 57.71875 51.953125 57.71875 36.625 
Q 57.71875 21.4375 52.09375 11.578125 
Q 45.125 -0.484375 31.5 -0.484375 
Q 17.921875 -0.484375 10.9375 11.578125 
Q 5.328125 21.4375 5.328125 36.71875 
Q 5.328125 58.015625 15.625 67.71875 
Q 22.171875 73.828125 31.84375 73.828125 
z
M 31.5 66.65625 
Q 23.6875 66.65625 19.1875 58.734375 
Q 14.59375 50.734375 14.59375 36.625 
Q 14.59375 22.75 19.09375 14.796875 
Q 23.640625 6.984375 31.5 6.984375 
Q 40.921875 6.984375 45.453125 18.015625 
Q 48.4375 25.34375 48.4375 37.109375 
Q 48.4375 50.875 43.84375 58.734375 
Q 39.203125 66.65625 31.5 66.65625 
z
" id="IPAexGothic-48"/>
       <path d="M 38.484375 0.984375 
L 29.6875 0.984375 
L 29.6875 64.109375 
Q 21.4375 61.28125 12.3125 59.328125 
L 10.6875 66.109375 
Q 23.734375 69.390625 32.90625 73.921875 
L 38.484375 73.921875 
z
" id="IPAexGothic-49"/>
      </defs>
      <g transform="translate(76.881432 318.895625)scale(0.1 -0.1)">
       <use xlink:href="#IPAexGothic-50"/>
       <use x="62.988281" xlink:href="#IPAexGothic-48"/>
       <use x="125.976562" xlink:href="#IPAexGothic-49"/>
       <use x="188.964844" xlink:href="#IPAexGothic-48"/>
      </g>
     </g>
    </g>
    <g id="xtick_2">
     <g id="line2d_2">
      <g>
       <use style="stroke:#000000;stroke-width:0.8;" x="125.931461" xlink:href="#mf803a0621d" y="304.405"/>
      </g>
     </g>
     <g id="text_2">
      <!-- 2011 -->
      <g transform="translate(113.334586 318.895625)scale(0.1 -0.1)">
       <use xlink:href="#IPAexGothic-50"/>
       <use x="62.988281" xlink:href="#IPAexGothic-48"/>
       <use x="125.976562" xlink:href="#IPAexGothic-49"/>
       <use x="188.964844" xlink:href="#IPAexGothic-49"/>
      </g>
     </g>
    </g>
    <g id="xtick_3">
     <g id="line2d_3">
      <g>
       <use style="stroke:#000000;stroke-width:0.8;" x="162.384615" xlink:href="#mf803a0621d" y="304.405"/>
      </g>
     </g>
     <g id="text_3">
      <!-- 2012 -->
      <g transform="translate(149.78774 318.895625)scale(0.1 -0.1)">
       <use xlink:href="#IPAexGothic-50"/>
       <use x="62.988281" xlink:href="#IPAexGothic-48"/>
       <use x="125.976562" xlink:href="#IPAexGothic-49"/>
       <use x="188.964844" xlink:href="#IPAexGothic-50"/>
      </g>
     </g>
    </g>
    <g id="xtick_4">
     <g id="line2d_4">
      <g>
       <use style="stroke:#000000;stroke-width:0.8;" x="198.837769" xlink:href="#mf803a0621d" y="304.405"/>
      </g>
     </g>
     <g id="text_4">
      <!-- 2013 -->
      <defs>
       <path d="M 37.203125 37.796875 
Q 54.78125 34.625 54.78125 19.96875 
Q 54.78125 11.1875 48.875 5.5625 
Q 42.328125 -0.484375 30.375 -0.484375 
Q 12.453125 -0.484375 4.5 13.765625 
L 11.8125 17.671875 
Q 17.328125 6.890625 30.28125 6.890625 
Q 37.890625 6.890625 42.09375 10.796875 
Q 46.09375 14.5 46.09375 20.171875 
Q 46.09375 26.859375 40.09375 30.90625 
Q 34.625 34.578125 25.6875 34.578125 
L 21.296875 34.578125 
L 21.296875 41.703125 
L 25.875 41.703125 
Q 34.859375 41.703125 39.59375 45.125 
Q 44.671875 48.734375 44.671875 54.828125 
Q 44.671875 61.46875 38.96875 64.65625 
Q 35.296875 66.84375 30.171875 66.84375 
Q 19.34375 66.84375 14.109375 55.90625 
L 6.78125 59.421875 
Q 14.015625 73.828125 30.28125 73.828125 
Q 40.578125 73.828125 46.96875 68.65625 
Q 53.375 63.578125 53.375 55.21875 
Q 53.375 47.3125 47.171875 42.28125 
Q 43.171875 39.0625 37.203125 38.1875 
z
" id="IPAexGothic-51"/>
      </defs>
      <g transform="translate(186.240894 318.895625)scale(0.1 -0.1)">
       <use xlink:href="#IPAexGothic-50"/>
       <use x="62.988281" xlink:href="#IPAexGothic-48"/>
       <use x="125.976562" xlink:href="#IPAexGothic-49"/>
       <use x="188.964844" xlink:href="#IPAexGothic-51"/>
      </g>
     </g>
    </g>
    <g id="xtick_5">
     <g id="line2d_5">
      <g>
       <use style="stroke:#000000;stroke-width:0.8;" x="235.290923" xlink:href="#mf803a0621d" y="304.405"/>
      </g>
     </g>
     <g id="text_5">
      <!-- 2014 -->
      <defs>
       <path d="M 59.578125 18.109375 
L 47.796875 18.109375 
L 47.796875 0.984375 
L 39.796875 0.984375 
L 39.796875 18.109375 
L 3.078125 18.109375 
L 3.078125 26.125 
L 38.375 73.09375 
L 47.796875 73.09375 
L 47.796875 25.53125 
L 59.578125 25.53125 
z
M 40.28125 64.203125 
L 39.984375 64.203125 
Q 35.59375 57.125 31.296875 51.3125 
L 11.859375 25.53125 
L 39.796875 25.53125 
L 39.796875 49.125 
Q 39.796875 54.390625 40.28125 64.203125 
z
" id="IPAexGothic-52"/>
      </defs>
      <g transform="translate(222.694048 318.895625)scale(0.1 -0.1)">
       <use xlink:href="#IPAexGothic-50"/>
       <use x="62.988281" xlink:href="#IPAexGothic-48"/>
       <use x="125.976562" xlink:href="#IPAexGothic-49"/>
       <use x="188.964844" xlink:href="#IPAexGothic-52"/>
      </g>
     </g>
    </g>
    <g id="xtick_6">
     <g id="line2d_6">
      <g>
       <use style="stroke:#000000;stroke-width:0.8;" x="271.744077" xlink:href="#mf803a0621d" y="304.405"/>
      </g>
     </g>
     <g id="text_6">
      <!-- 2015 -->
      <defs>
       <path d="M 18.40625 40.671875 
Q 25.53125 46.296875 33.9375 46.296875 
Q 44 46.296875 50.640625 39.5 
Q 56.84375 33.015625 56.84375 23.390625 
Q 56.84375 14.65625 51.515625 8.015625 
Q 44.828125 -0.484375 31.734375 -0.484375 
Q 14.984375 -0.484375 7.328125 12.25 
L 14.65625 16.0625 
Q 20.453125 6.78125 31.453125 6.78125 
Q 38.53125 6.78125 43.265625 11.1875 
Q 48.140625 15.828125 48.140625 23.484375 
Q 48.140625 30.71875 43.84375 35.015625 
Q 39.359375 39.5 32.125 39.5 
Q 21.96875 39.5 16.75 31.6875 
L 9.234375 32.671875 
L 13.8125 72.40625 
L 53.21875 72.40625 
L 53.21875 64.890625 
L 20.953125 64.890625 
L 17.71875 40.671875 
z
" id="IPAexGothic-53"/>
      </defs>
      <g transform="translate(259.147202 318.895625)scale(0.1 -0.1)">
       <use xlink:href="#IPAexGothic-50"/>
       <use x="62.988281" xlink:href="#IPAexGothic-48"/>
       <use x="125.976562" xlink:href="#IPAexGothic-49"/>
       <use x="188.964844" xlink:href="#IPAexGothic-53"/>
      </g>
     </g>
    </g>
    <g id="xtick_7">
     <g id="line2d_7">
      <g>
       <use style="stroke:#000000;stroke-width:0.8;" x="308.197231" xlink:href="#mf803a0621d" y="304.405"/>
      </g>
     </g>
     <g id="text_7">
      <!-- 2016 -->
      <defs>
       <path d="M 16.5 36.375 
Q 23.578125 46.578125 34.90625 46.578125 
Q 45.40625 46.578125 51.8125 39.265625 
Q 57.421875 32.90625 57.421875 23.78125 
Q 57.421875 13.8125 51.125 6.78125 
Q 44.578125 -0.484375 34.03125 -0.484375 
Q 21.484375 -0.484375 14.40625 9.078125 
Q 7.515625 18.40625 7.515625 34.8125 
Q 7.515625 53.515625 15.828125 64.203125 
Q 23.34375 73.828125 35.5 73.828125 
Q 49.859375 73.828125 56.390625 62.890625 
L 49.21875 58.984375 
Q 45.21875 66.65625 35.9375 66.65625 
Q 17.484375 66.65625 16.109375 36.375 
z
M 33.453125 39.796875 
Q 26.3125 39.796875 21.625 34.46875 
Q 17.4375 29.6875 17.4375 24.078125 
Q 17.4375 18.0625 21.140625 13.1875 
Q 26.125 6.6875 33.734375 6.6875 
Q 41.703125 6.6875 45.953125 13.1875 
Q 48.828125 17.625 48.828125 23.484375 
Q 48.828125 30.375 45.015625 34.8125 
Q 40.625 39.796875 33.453125 39.796875 
z
" id="IPAexGothic-54"/>
      </defs>
      <g transform="translate(295.600356 318.895625)scale(0.1 -0.1)">
       <use xlink:href="#IPAexGothic-50"/>
       <use x="62.988281" xlink:href="#IPAexGothic-48"/>
       <use x="125.976562" xlink:href="#IPAexGothic-49"/>
       <use x="188.964844" xlink:href="#IPAexGothic-54"/>
      </g>
     </g>
    </g>
    <g id="xtick_8">
     <g id="line2d_8">
      <g>
       <use style="stroke:#000000;stroke-width:0.8;" x="344.650385" xlink:href="#mf803a0621d" y="304.405"/>
      </g>
     </g>
     <g id="text_8">
      <!-- 2017 -->
      <defs>
       <path d="M 56.203125 66.609375 
Q 34.96875 32.90625 27.78125 0.984375 
L 17.671875 0.984375 
Q 24.703125 28.65625 46.09375 64.5 
L 6.6875 64.5 
L 6.6875 72.40625 
L 56.203125 72.40625 
z
" id="IPAexGothic-55"/>
      </defs>
      <g transform="translate(332.05351 318.895625)scale(0.1 -0.1)">
       <use xlink:href="#IPAexGothic-50"/>
       <use x="62.988281" xlink:href="#IPAexGothic-48"/>
       <use x="125.976562" xlink:href="#IPAexGothic-49"/>
       <use x="188.964844" xlink:href="#IPAexGothic-55"/>
      </g>
     </g>
    </g>
    <g id="xtick_9">
     <g id="line2d_9">
      <g>
       <use style="stroke:#000000;stroke-width:0.8;" x="381.103539" xlink:href="#mf803a0621d" y="304.405"/>
      </g>
     </g>
     <g id="text_9">
      <!-- 2018 -->
      <defs>
       <path d="M 39.703125 37.890625 
Q 57.8125 31.734375 57.8125 18.703125 
Q 57.8125 8.453125 48.4375 3.078125 
Q 41.609375 -0.875 31.5 -0.875 
Q 21.34375 -0.875 14.5 3.078125 
Q 5.421875 8.296875 5.421875 18.40625 
Q 5.421875 31.0625 22.015625 37.203125 
L 22.015625 37.5 
Q 7.515625 42.71875 7.515625 54.828125 
Q 7.515625 64.0625 15.328125 69.625 
Q 21.96875 74.3125 31.546875 74.3125 
Q 42.234375 74.3125 48.921875 68.796875 
Q 55.515625 63.578125 55.515625 55.71875 
Q 55.515625 42.28125 39.703125 38.1875 
z
M 31.59375 41.015625 
Q 46.828125 44.625 46.828125 55.125 
Q 46.828125 61.1875 41.796875 64.84375 
Q 37.703125 67.921875 31.5 67.921875 
Q 25.09375 67.921875 20.796875 64.5 
Q 16.40625 60.890625 16.40625 55.03125 
Q 16.40625 49.21875 21.09375 45.703125 
Q 23.34375 43.890625 26.90625 42.53125 
Q 31 40.875 31.59375 41.015625 
z
M 30.90625 34.515625 
Q 14.40625 30.171875 14.40625 19 
Q 14.40625 12.109375 20.515625 8.6875 
Q 25.09375 6.109375 31.390625 6.109375 
Q 40.234375 6.109375 45.015625 10.890625 
Q 48.53125 14.40625 48.53125 19.53125 
Q 48.53125 24.90625 43.65625 28.90625 
Q 40.765625 31.15625 36.71875 32.8125 
Q 31.984375 34.71875 30.90625 34.515625 
z
" id="IPAexGothic-56"/>
      </defs>
      <g transform="translate(368.506664 318.895625)scale(0.1 -0.1)">
       <use xlink:href="#IPAexGothic-50"/>
       <use x="62.988281" xlink:href="#IPAexGothic-48"/>
       <use x="125.976562" xlink:href="#IPAexGothic-49"/>
       <use x="188.964844" xlink:href="#IPAexGothic-56"/>
      </g>
     </g>
    </g>
    <g id="xtick_10">
     <g id="line2d_10">
      <g>
       <use style="stroke:#000000;stroke-width:0.8;" x="417.556693" xlink:href="#mf803a0621d" y="304.405"/>
      </g>
     </g>
     <g id="text_10">
      <!-- 2019 -->
      <defs>
       <path d="M 46.625 36.8125 
Q 39.75 26.8125 28.328125 26.8125 
Q 19.578125 26.8125 13.234375 32.125 
Q 5.71875 38.421875 5.71875 49.421875 
Q 5.71875 59.578125 12.015625 66.65625 
Q 18.453125 73.828125 29.203125 73.828125 
Q 43.75 73.828125 50.640625 61.71875 
Q 55.609375 52.78125 55.609375 38.625 
Q 55.609375 19.53125 47.515625 9.1875 
Q 39.890625 -0.484375 27.640625 -0.484375 
Q 13.421875 -0.484375 6.109375 10.984375 
L 13.328125 14.890625 
Q 18.0625 6.6875 27.390625 6.6875 
Q 45.65625 6.6875 47.015625 36.8125 
z
M 29.5 66.84375 
Q 22.65625 66.84375 18.3125 61.71875 
Q 14.40625 57.078125 14.40625 50 
Q 14.40625 42.828125 18.109375 38.71875 
Q 22.40625 33.796875 29.78125 33.796875 
Q 37.984375 33.796875 42.625 40.1875 
Q 45.703125 44.484375 45.703125 49.515625 
Q 45.703125 55.515625 42.09375 60.359375 
Q 37.109375 66.84375 29.5 66.84375 
z
" id="IPAexGothic-57"/>
      </defs>
      <g transform="translate(404.959818 318.895625)scale(0.1 -0.1)">
       <use xlink:href="#IPAexGothic-50"/>
       <use x="62.988281" xlink:href="#IPAexGothic-48"/>
       <use x="125.976562" xlink:href="#IPAexGothic-49"/>
       <use x="188.964844" xlink:href="#IPAexGothic-57"/>
      </g>
     </g>
    </g>
    <g id="text_11">
     <!-- 全日本マイクロマウス大会 32x32迷路 [年] -->
     <defs>
      <path d="M 53.375 43.40625 
L 53.375 27.296875 
L 82.5625 27.296875 
L 82.5625 20.90625 
L 53.375 20.90625 
L 53.375 2.875 
L 91.546875 2.875 
L 91.546875 -3.609375 
L 8.546875 -3.609375 
L 8.546875 2.875 
L 45.953125 2.875 
L 45.953125 20.90625 
L 17.4375 20.90625 
L 17.4375 27.296875 
L 45.953125 27.296875 
L 45.953125 43.40625 
L 26.03125 43.40625 
L 26.03125 48.296875 
Q 18.5625 42.875 9.328125 38.625 
L 4.9375 44.484375 
Q 31.34375 55.765625 45.125 81.203125 
L 53.765625 81.203125 
Q 70.171875 58.796875 95.5625 47.515625 
L 90.875 40.921875 
Q 66.109375 53.328125 49.5625 74.609375 
Q 40.671875 59.90625 27.9375 49.703125 
L 75.046875 49.703125 
L 75.046875 43.40625 
z
" id="IPAexGothic-20840"/>
      <path d="M 81.734375 75 
L 81.734375 -4.5 
L 74.125 -4.5 
L 74.125 2 
L 25.734375 2 
L 25.734375 -4.5 
L 18.109375 -4.5 
L 18.109375 75 
z
M 25.734375 68.3125 
L 25.734375 42.671875 
L 74.125 42.671875 
L 74.125 68.3125 
z
M 25.734375 35.890625 
L 25.734375 8.6875 
L 74.125 8.6875 
L 74.125 35.890625 
z
" id="IPAexGothic-26085"/>
      <path d="M 55.90625 54.109375 
Q 70.21875 29.734375 94.625 16.40625 
L 89.015625 9.375 
Q 64.796875 25.296875 53.265625 48.1875 
L 53.265625 19.390625 
L 69.828125 19.390625 
L 69.828125 12.890625 
L 53.515625 12.890625 
L 53.515625 -6.390625 
L 45.90625 -6.390625 
L 45.90625 12.890625 
L 29.6875 12.890625 
L 29.6875 19.390625 
L 46.09375 19.390625 
L 46.09375 47.40625 
Q 35.75 23.640625 11.8125 6.296875 
L 5.90625 12.40625 
Q 29.984375 26.609375 43.5 54.109375 
L 7.515625 54.109375 
L 7.515625 60.984375 
L 45.90625 60.984375 
L 45.90625 81.390625 
L 53.515625 81.390625 
L 53.515625 60.984375 
L 92.53125 60.984375 
L 92.53125 54.109375 
z
" id="IPAexGothic-26412"/>
      <path d="M 84.71875 64.40625 
L 89.109375 59.71875 
Q 72.796875 38.921875 52.9375 22.609375 
Q 59.625 15.53125 66.109375 7.8125 
L 59.328125 1.90625 
Q 44.78125 21.578125 26.421875 36.28125 
L 32.328125 41.3125 
Q 38.765625 36.28125 47.796875 27.6875 
Q 65.046875 42.234375 76.421875 56.890625 
L 11.625 56.296875 
L 11.625 63.8125 
z
" id="IPAexGothic-12510"/>
      <path d="M 48.921875 -3.609375 
L 48.921875 44.921875 
Q 32.671875 32.625 17.28125 25.875 
L 12.203125 32.171875 
Q 47.125 46.875 69.828125 76.8125 
L 76.8125 72.515625 
Q 68.5 61.53125 57.421875 51.8125 
L 57.421875 -3.609375 
z
" id="IPAexGothic-12452"/>
      <path d="M 77.09375 65.484375 
L 82.375 61.578125 
Q 76.46875 36.46875 62.984375 20.3125 
Q 51.171875 6.109375 31.6875 -3.515625 
L 25.875 2.875 
Q 44.921875 10.796875 56.890625 25.390625 
Q 68.796875 39.890625 73.296875 58.296875 
L 45.359375 58.296875 
Q 34.1875 41.453125 21.1875 30.609375 
L 15.28125 36.078125 
Q 36.375 53.125 45.796875 78.46875 
L 53.46875 76.265625 
Q 52.546875 73 49.078125 65.484375 
z
" id="IPAexGothic-12463"/>
      <path d="M 17.921875 66.703125 
L 82.03125 66.703125 
L 82.03125 2.6875 
L 73.828125 2.6875 
L 73.828125 8.890625 
L 26.125 8.890625 
L 26.125 2.6875 
L 17.921875 2.6875 
z
M 26.125 59.078125 
L 26.125 16.609375 
L 73.828125 16.609375 
L 73.828125 59.078125 
z
" id="IPAexGothic-12525"/>
      <path d="M 44.78125 77.828125 
L 52.984375 77.828125 
L 52.984375 61.921875 
L 77.984375 61.921875 
L 82.765625 58.015625 
Q 80.21875 30.765625 68.453125 16.3125 
Q 58.109375 3.375 39.0625 -3.421875 
L 33.296875 3.515625 
Q 53.265625 9.328125 63.375 22.90625 
Q 71.734375 34.328125 73.96875 54.5 
L 24.8125 54.5 
L 24.8125 32.078125 
L 16.796875 32.078125 
L 16.796875 61.921875 
L 44.78125 61.921875 
z
" id="IPAexGothic-12454"/>
      <path d="M 68.109375 70.015625 
L 73.6875 64.796875 
Q 67.625 48 56.984375 33.59375 
Q 72.796875 22.40625 88.421875 7.078125 
L 81.78125 0.296875 
Q 66.5 17 52.390625 27.78125 
Q 37.0625 9.328125 16.3125 -0.484375 
L 10.203125 6.296875 
Q 48.875 22.703125 64.015625 62.5 
L 19.390625 61.921875 
L 19.1875 69.578125 
z
" id="IPAexGothic-12473"/>
      <path d="M 55.125 49.703125 
Q 64.84375 18.703125 93.796875 4.296875 
L 88.234375 -2.875 
Q 60.796875 12.984375 50.921875 41.890625 
Q 45.21875 10.0625 13.625 -5.375 
L 8.015625 1.515625 
Q 26.21875 8.25 36.625 24.03125 
Q 43.5 34.671875 45.3125 49.703125 
L 7.515625 49.703125 
L 7.515625 56.6875 
L 45.703125 56.6875 
L 45.703125 80.46875 
L 53.609375 80.46875 
L 53.609375 56.6875 
L 92.53125 56.6875 
L 92.53125 49.703125 
z
" id="IPAexGothic-22823"/>
      <path d="M 29.109375 51.125 
L 72.515625 51.125 
L 72.515625 44.734375 
L 27.484375 44.734375 
L 27.484375 49.90625 
Q 27.09375 49.609375 25.59375 48.640625 
Q 19.34375 44 9.28125 39.015625 
L 4.5 44.734375 
Q 30.609375 56.203125 45.21875 80.421875 
L 53.609375 80.421875 
Q 67.828125 59.125 95.796875 47.609375 
L 91.015625 41.109375 
Q 63.484375 54.640625 49.609375 73.921875 
Q 41.453125 60.640625 29.109375 51.125 
z
M 44.09375 26.609375 
Q 39.546875 15.578125 33.109375 5.03125 
L 37.3125 5.328125 
Q 52.59375 6.390625 67.578125 7.90625 
L 72.515625 8.40625 
Q 65.140625 16.0625 60.296875 20.40625 
L 65.765625 24.21875 
Q 79.5 12.453125 90.28125 -0.484375 
L 84.1875 -5.46875 
Q 80.5625 -0.78125 77 3.421875 
L 75.484375 3.21875 
Q 48.53125 -0.828125 13.1875 -3.71875 
L 10.6875 3.609375 
Q 12.75 3.71875 18.609375 4.109375 
L 25.484375 4.5 
Q 31.59375 14.59375 36.28125 26.609375 
L 10.015625 26.609375 
L 10.015625 33.203125 
L 89.984375 33.203125 
L 89.984375 26.609375 
z
" id="IPAexGothic-20250"/>
      <path id="IPAexGothic-32"/>
      <path d="M 47.65625 0.984375 
L 37.796875 0.984375 
L 24.171875 20.90625 
L 10.796875 0.984375 
L 0.875 0.984375 
L 19.484375 26.171875 
L 1.65625 50.78125 
L 11.671875 50.78125 
L 24.65625 31.5 
L 37.703125 50.78125 
L 47.171875 50.78125 
L 29.296875 26.265625 
z
" id="IPAexGothic-120"/>
      <path d="M 67.53125 44.09375 
Q 78.421875 29.828125 93.5 20.3125 
L 88.140625 14.109375 
Q 73.96875 25.390625 65.234375 38.28125 
L 65.234375 5.515625 
L 58.34375 5.515625 
L 58.34375 37.703125 
Q 49.953125 22.5625 36.328125 12.3125 
L 31.15625 18.109375 
Q 45.65625 26.90625 56.0625 44.09375 
L 31.546875 44.09375 
L 31.546875 50.296875 
L 58.34375 50.296875 
L 58.34375 81.5 
L 65.234375 81.5 
L 65.234375 50.296875 
L 92.921875 50.296875 
L 92.921875 44.09375 
z
M 26.703125 11.671875 
Q 30.765625 6.453125 37.015625 4.203125 
Q 44.484375 1.609375 61.921875 1.609375 
Q 75.984375 1.609375 96 2.875 
Q 94.140625 -0.6875 93.40625 -4.59375 
Q 77.25 -5.171875 68.40625 -5.171875 
Q 43.609375 -5.171875 34.515625 -1.65625 
Q 27.875 0.78125 23.828125 6.390625 
Q 17.625 -1.078125 10.203125 -6.890625 
L 5.8125 0.390625 
Q 14.203125 5.609375 19.921875 10.6875 
L 19.921875 35.984375 
L 5.90625 35.984375 
L 5.90625 42.671875 
L 26.703125 42.671875 
z
M 23.875 58.984375 
Q 16.359375 68.21875 8.796875 73.875 
L 13.71875 79 
Q 23.296875 71.4375 29.203125 64.5 
z
M 45.40625 54.296875 
Q 40.96875 65.046875 34.90625 72.796875 
L 41.21875 76.515625 
Q 47.796875 67.4375 52.09375 57.8125 
z
M 70.21875 57.71875 
Q 76.515625 66.015625 81.203125 77 
L 88.1875 73.578125 
Q 82.46875 62.3125 76.3125 54.390625 
z
" id="IPAexGothic-36855"/>
      <path d="M 86.921875 30.328125 
L 86.921875 -6.984375 
L 80.21875 -6.984375 
L 80.21875 -1.90625 
L 56.6875 -1.90625 
L 56.6875 -6.984375 
L 49.90625 -6.984375 
L 49.90625 28.609375 
Q 45.90625 26.3125 43.609375 25.09375 
L 39.703125 29.9375 
L 39.703125 27.6875 
L 29 27.6875 
L 29 7.625 
Q 29.15625 7.671875 29.640625 7.765625 
Q 30.171875 7.90625 30.515625 8.015625 
Q 31.59375 8.40625 34.1875 9.234375 
Q 40.140625 11.140625 43.796875 12.40625 
L 44.1875 6.390625 
Q 27.875 -0.046875 7.28125 -5.609375 
L 4.5 1.21875 
Q 5.28125 1.375 7.171875 1.8125 
Q 8.546875 2.15625 9.28125 2.296875 
L 9.28125 39.3125 
L 15.671875 39.3125 
L 15.671875 3.90625 
L 17.484375 4.296875 
Q 18.953125 4.6875 20.65625 5.171875 
Q 22.515625 5.671875 22.609375 5.71875 
L 22.609375 47.609375 
L 8.59375 47.609375 
L 8.59375 77.875 
L 40.09375 77.875 
L 40.09375 47.609375 
L 29 47.609375 
L 29 33.59375 
L 39.703125 33.59375 
L 39.703125 30.90625 
Q 54.640625 37.84375 64.796875 48.296875 
Q 59.515625 54.203125 56.109375 60.015625 
Q 51.609375 52.734375 45.21875 46.484375 
L 40.875 51.421875 
Q 54.109375 64.890625 58.40625 82.671875 
L 65.09375 80.859375 
Q 64.59375 79.25 63.28125 75.09375 
L 84.03125 75.09375 
L 87.40625 72.265625 
Q 81.15625 58.109375 73.921875 49.125 
L 73.390625 48.484375 
Q 83.640625 39.59375 96.625 34.078125 
L 92.234375 27.296875 
Q 78.125 35.296875 69.28125 43.703125 
Q 61.96875 36.234375 52.78125 30.328125 
z
M 56.6875 24.3125 
L 56.6875 4.109375 
L 80.21875 4.109375 
L 80.21875 24.3125 
z
M 60.890625 69.09375 
L 60.59375 68.40625 
Q 59.8125 66.609375 59.375 65.765625 
Q 63.09375 59.125 68.796875 53.03125 
Q 74.5625 60.296875 78.328125 69.09375 
z
M 15.09375 71.875 
L 15.09375 53.609375 
L 33.59375 53.609375 
L 33.59375 71.875 
z
" id="IPAexGothic-36335"/>
      <path d="M 26.65625 -15.484375 
L 9.078125 -15.484375 
L 9.078125 74.21875 
L 26.65625 74.21875 
L 26.65625 69.34375 
L 16.0625 69.34375 
L 16.0625 -10.59375 
L 26.65625 -10.59375 
z
" id="IPAexGothic-91"/>
      <path d="M 27.6875 64.984375 
Q 22.5625 53.46875 13.671875 43.796875 
L 8.25 49.46875 
Q 20.65625 61.578125 25.484375 82.171875 
L 32.953125 80.5625 
Q 31.15625 74.359375 30.171875 71.296875 
L 88.96875 71.296875 
L 88.96875 64.984375 
L 58.6875 64.984375 
L 58.6875 48.875 
L 84.90625 48.875 
L 84.90625 42.578125 
L 58.6875 42.578125 
L 58.6875 23.578125 
L 94.96875 23.578125 
L 94.96875 17.09375 
L 58.6875 17.09375 
L 58.6875 -7.03125 
L 51.171875 -7.03125 
L 51.171875 17.09375 
L 6.984375 17.09375 
L 6.984375 23.578125 
L 23.96875 23.578125 
L 23.96875 48.875 
L 51.171875 48.875 
L 51.171875 64.984375 
z
M 51.171875 42.578125 
L 31.15625 42.578125 
L 31.15625 23.578125 
L 51.171875 23.578125 
z
" id="IPAexGothic-24180"/>
      <path d="M 20.65625 -15.484375 
L 3.078125 -15.484375 
L 3.078125 -10.59375 
L 13.671875 -10.59375 
L 13.671875 69.34375 
L 3.078125 69.34375 
L 3.078125 74.21875 
L 20.65625 74.21875 
z
" id="IPAexGothic-93"/>
     </defs>
     <g transform="translate(157.778437 332.71125)scale(0.1 -0.1)">
      <use xlink:href="#IPAexGothic-20840"/>
      <use x="100" xlink:href="#IPAexGothic-26085"/>
      <use x="200" xlink:href="#IPAexGothic-26412"/>
      <use x="300" xlink:href="#IPAexGothic-12510"/>
      <use x="400" xlink:href="#IPAexGothic-12452"/>
      <use x="500" xlink:href="#IPAexGothic-12463"/>
      <use x="600" xlink:href="#IPAexGothic-12525"/>
      <use x="700" xlink:href="#IPAexGothic-12510"/>
      <use x="800" xlink:href="#IPAexGothic-12454"/>
      <use x="900" xlink:href="#IPAexGothic-12473"/>
      <use x="1000" xlink:href="#IPAexGothic-22823"/>
      <use x="1100" xlink:href="#IPAexGothic-20250"/>
      <use x="1200" xlink:href="#IPAexGothic-32"/>
      <use x="1227.001953" xlink:href="#IPAexGothic-51"/>
      <use x="1289.990234" xlink:href="#IPAexGothic-50"/>
      <use x="1352.978516" xlink:href="#IPAexGothic-120"/>
      <use x="1401.855469" xlink:href="#IPAexGothic-51"/>
      <use x="1464.84375" xlink:href="#IPAexGothic-50"/>
      <use x="1527.832031" xlink:href="#IPAexGothic-36855"/>
      <use x="1627.832031" xlink:href="#IPAexGothic-36335"/>
      <use x="1727.832031" xlink:href="#IPAexGothic-32"/>
      <use x="1754.833984" xlink:href="#IPAexGothic-91"/>
      <use x="1784.814453" xlink:href="#IPAexGothic-24180"/>
      <use x="1884.814453" xlink:href="#IPAexGothic-93"/>
     </g>
    </g>
   </g>
   <g id="matplotlib.axis_2">
    <g id="ytick_1">
     <g id="line2d_11">
      <defs>
       <path d="M 0 0 
L -3.5 0 
" id="mdb7ed8c2d9" style="stroke:#000000;stroke-width:0.8;"/>
      </defs>
      <g>
       <use style="stroke:#000000;stroke-width:0.8;" x="57.035" xlink:href="#mdb7ed8c2d9" y="304.405"/>
      </g>
     </g>
     <g id="text_12">
      <!-- 0 -->
      <g transform="translate(43.736563 308.150312)scale(0.1 -0.1)">
       <use xlink:href="#IPAexGothic-48"/>
      </g>
     </g>
    </g>
    <g id="ytick_2">
     <g id="line2d_12">
      <g>
       <use style="stroke:#000000;stroke-width:0.8;" x="57.035" xlink:href="#mdb7ed8c2d9" y="266.83601"/>
      </g>
     </g>
     <g id="text_13">
      <!-- 200 -->
      <g transform="translate(31.139688 270.581323)scale(0.1 -0.1)">
       <use xlink:href="#IPAexGothic-50"/>
       <use x="62.988281" xlink:href="#IPAexGothic-48"/>
       <use x="125.976562" xlink:href="#IPAexGothic-48"/>
      </g>
     </g>
    </g>
    <g id="ytick_3">
     <g id="line2d_13">
      <g>
       <use style="stroke:#000000;stroke-width:0.8;" x="57.035" xlink:href="#mdb7ed8c2d9" y="229.26702"/>
      </g>
     </g>
     <g id="text_14">
      <!-- 400 -->
      <g transform="translate(31.139688 233.012333)scale(0.1 -0.1)">
       <use xlink:href="#IPAexGothic-52"/>
       <use x="62.988281" xlink:href="#IPAexGothic-48"/>
       <use x="125.976562" xlink:href="#IPAexGothic-48"/>
      </g>
     </g>
    </g>
    <g id="ytick_4">
     <g id="line2d_14">
      <g>
       <use style="stroke:#000000;stroke-width:0.8;" x="57.035" xlink:href="#mdb7ed8c2d9" y="191.69803"/>
      </g>
     </g>
     <g id="text_15">
      <!-- 600 -->
      <g transform="translate(31.139688 195.443343)scale(0.1 -0.1)">
       <use xlink:href="#IPAexGothic-54"/>
       <use x="62.988281" xlink:href="#IPAexGothic-48"/>
       <use x="125.976562" xlink:href="#IPAexGothic-48"/>
      </g>
     </g>
    </g>
    <g id="ytick_5">
     <g id="line2d_15">
      <g>
       <use style="stroke:#000000;stroke-width:0.8;" x="57.035" xlink:href="#mdb7ed8c2d9" y="154.129041"/>
      </g>
     </g>
     <g id="text_16">
      <!-- 800 -->
      <g transform="translate(31.139688 157.874353)scale(0.1 -0.1)">
       <use xlink:href="#IPAexGothic-56"/>
       <use x="62.988281" xlink:href="#IPAexGothic-48"/>
       <use x="125.976562" xlink:href="#IPAexGothic-48"/>
      </g>
     </g>
    </g>
    <g id="ytick_6">
     <g id="line2d_16">
      <g>
       <use style="stroke:#000000;stroke-width:0.8;" x="57.035" xlink:href="#mdb7ed8c2d9" y="116.560051"/>
      </g>
     </g>
     <g id="text_17">
      <!-- 1000 -->
      <g transform="translate(24.84125 120.305363)scale(0.1 -0.1)">
       <use xlink:href="#IPAexGothic-49"/>
       <use x="62.988281" xlink:href="#IPAexGothic-48"/>
       <use x="125.976562" xlink:href="#IPAexGothic-48"/>
       <use x="188.964844" xlink:href="#IPAexGothic-48"/>
      </g>
     </g>
    </g>
    <g id="ytick_7">
     <g id="line2d_17">
      <g>
       <use style="stroke:#000000;stroke-width:0.8;" x="57.035" xlink:href="#mdb7ed8c2d9" y="78.991061"/>
      </g>
     </g>
     <g id="text_18">
      <!-- 1200 -->
      <g transform="translate(24.84125 82.736373)scale(0.1 -0.1)">
       <use xlink:href="#IPAexGothic-49"/>
       <use x="62.988281" xlink:href="#IPAexGothic-50"/>
       <use x="125.976562" xlink:href="#IPAexGothic-48"/>
       <use x="188.964844" xlink:href="#IPAexGothic-48"/>
      </g>
     </g>
    </g>
    <g id="ytick_8">
     <g id="line2d_18">
      <g>
       <use style="stroke:#000000;stroke-width:0.8;" x="57.035" xlink:href="#mdb7ed8c2d9" y="41.422071"/>
      </g>
     </g>
     <g id="text_19">
      <!-- 1400 -->
      <g transform="translate(24.84125 45.167383)scale(0.1 -0.1)">
       <use xlink:href="#IPAexGothic-49"/>
       <use x="62.988281" xlink:href="#IPAexGothic-52"/>
       <use x="125.976562" xlink:href="#IPAexGothic-48"/>
       <use x="188.964844" xlink:href="#IPAexGothic-48"/>
      </g>
     </g>
    </g>
    <g id="text_20">
     <!-- 歩数 [歩] -->
     <defs>
      <path d="M 53.46875 68.609375 
L 82.375 68.609375 
L 82.375 62.40625 
L 53.46875 62.40625 
L 53.46875 50.203125 
L 92.875 50.203125 
L 92.875 43.796875 
L 53.46875 43.796875 
L 53.46875 20.703125 
Q 53.46875 16.84375 51.65625 15.53125 
Q 49.8125 14.109375 44.96875 14.109375 
Q 40.046875 14.109375 35.546875 14.59375 
L 34.46875 21.484375 
Q 39.984375 20.609375 43.5 20.609375 
Q 46.296875 20.609375 46.296875 24.125 
L 46.296875 43.796875 
L 6.984375 43.796875 
L 6.984375 50.203125 
L 22.359375 50.203125 
L 22.359375 72.3125 
L 29.4375 72.3125 
L 29.4375 50.203125 
L 46.296875 50.203125 
L 46.296875 83.015625 
L 53.46875 83.015625 
z
M 8.6875 17.921875 
Q 20.015625 27.296875 27.296875 39.984375 
L 33.890625 37.109375 
Q 25.78125 23 14.59375 12.984375 
z
M 87.0625 15.28125 
Q 78.421875 27.046875 66.5 36.28125 
L 72.359375 40.484375 
Q 84.671875 31.25 93.359375 20.90625 
z
M 14.15625 -1.21875 
Q 53.21875 3.265625 70.171875 25.484375 
L 76.46875 21.09375 
Q 55.71875 -2.546875 18.796875 -7.90625 
z
" id="IPAexGothic-27497"/>
      <path d="M 44.484375 24.265625 
Q 42.828125 15.71875 37.890625 8.34375 
Q 41.015625 6.890625 48.296875 3.171875 
L 43.890625 -2.9375 
Q 39.703125 0 33.5 3.265625 
Q 24.515625 -4.546875 10.984375 -7.8125 
L 6.59375 -1.953125 
Q 19.734375 0.296875 27.296875 6.34375 
Q 19.09375 10.15625 11.46875 12.75 
Q 15.234375 18.3125 17.921875 23.484375 
L 18.3125 24.265625 
L 5.609375 24.265625 
L 5.609375 30.078125 
L 21 30.078125 
Q 21.96875 32.28125 24.515625 38.671875 
L 26.421875 38.28125 
L 26.421875 52.6875 
Q 19.53125 42.78125 8.59375 35.984375 
L 4.296875 41.609375 
Q 15.921875 47.078125 23.875 56.890625 
L 5.90625 56.890625 
L 5.90625 62.59375 
L 26.421875 62.59375 
L 26.421875 83.015625 
L 33.015625 83.015625 
L 33.015625 62.59375 
L 51.515625 62.59375 
L 51.515625 56.890625 
L 33.015625 56.890625 
L 33.015625 54.890625 
Q 41.546875 51.421875 49.609375 46.296875 
L 46.1875 40.375 
Q 39.890625 45.65625 33.015625 49.359375 
L 33.015625 37.0625 
L 30.71875 37.0625 
Q 30.125 35.75 29.25 33.453125 
Q 28.21875 30.859375 27.875 30.078125 
L 52.78125 30.078125 
L 52.78125 24.265625 
z
M 37.796875 24.265625 
L 25.203125 24.265625 
Q 23.09375 19.828125 20.515625 15.578125 
Q 24.359375 14.203125 31.984375 10.984375 
Q 36.140625 16.359375 37.796875 24.265625 
z
M 68.171875 18.171875 
Q 61.765625 27.828125 58.40625 41.21875 
Q 55.859375 35.640625 53.5625 31.5 
L 48.484375 37.59375 
Q 57.421875 53.8125 61.1875 82.671875 
L 68.171875 81.25 
Q 66.9375 72.90625 65.578125 65.578125 
L 93.890625 65.578125 
L 93.890625 58.984375 
L 85.984375 58.984375 
Q 84.328125 35.546875 76.078125 18.609375 
Q 84.671875 7.859375 96 1.171875 
L 90.96875 -5.90625 
Q 81.0625 1.65625 72.359375 12.3125 
Q 64.265625 0.53125 52.203125 -7.234375 
L 47.359375 -1.21875 
Q 60.75 6.34375 68.171875 18.171875 
z
M 71.6875 24.90625 
Q 77.15625 37.3125 79.046875 58.984375 
L 64.0625 58.984375 
Q 63.140625 54.984375 62.0625 51.375 
Q 62.203125 50.78125 62.359375 49.90625 
Q 65.234375 35.25 71.6875 24.90625 
z
M 15.671875 64.3125 
Q 13.71875 71 9.96875 77.09375 
L 16.453125 79.59375 
Q 19.484375 74.8125 22.46875 66.703125 
z
M 36.1875 66.703125 
Q 39.84375 73.25 42 80.171875 
L 48.875 78.078125 
Q 46.34375 71.6875 41.796875 64.5 
z
" id="IPAexGothic-25968"/>
     </defs>
     <g transform="translate(18.94125 184.720937)rotate(-90)scale(0.1 -0.1)">
      <use xlink:href="#IPAexGothic-27497"/>
      <use x="100" xlink:href="#IPAexGothic-25968"/>
      <use x="200" xlink:href="#IPAexGothic-32"/>
      <use x="227.001953" xlink:href="#IPAexGothic-91"/>
      <use x="256.982422" xlink:href="#IPAexGothic-27497"/>
      <use x="356.982422" xlink:href="#IPAexGothic-93"/>
     </g>
    </g>
   </g>
   <g id="patch_43">
    <path d="M 57.035 304.405 
L 57.035 26.34 
" style="fill:none;stroke:#000000;stroke-linecap:square;stroke-linejoin:miter;stroke-width:0.8;"/>
   </g>
   <g id="patch_44">
    <path d="M 450 304.405 
L 450 26.34 
" style="fill:none;stroke:#000000;stroke-linecap:square;stroke-linejoin:miter;stroke-width:0.8;"/>
   </g>
   <g id="patch_45">
    <path d="M 57.035 304.405 
L 450 304.405 
" style="fill:none;stroke:#000000;stroke-linecap:square;stroke-linejoin:miter;stroke-width:0.8;"/>
   </g>
   <g id="patch_46">
    <path d="M 57.035 26.34 
L 450 26.34 
" style="fill:none;stroke:#000000;stroke-linecap:square;stroke-linejoin:miter;stroke-width:0.8;"/>
   </g>
   <g id="text_21">
    <!-- 962 -->
    <g transform="translate(80.030651 121.798159)scale(0.1 -0.1)">
     <use xlink:href="#IPAexGothic-57"/>
     <use x="62.988281" xlink:href="#IPAexGothic-54"/>
     <use x="125.976562" xlink:href="#IPAexGothic-50"/>
    </g>
   </g>
   <g id="text_22">
    <!-- 1064 -->
    <g transform="translate(113.334586 102.637974)scale(0.1 -0.1)">
     <use xlink:href="#IPAexGothic-49"/>
     <use x="62.988281" xlink:href="#IPAexGothic-48"/>
     <use x="125.976562" xlink:href="#IPAexGothic-54"/>
     <use x="188.964844" xlink:href="#IPAexGothic-52"/>
    </g>
   </g>
   <g id="text_23">
    <!-- 938 -->
    <g transform="translate(152.936959 126.306438)scale(0.1 -0.1)">
     <use xlink:href="#IPAexGothic-57"/>
     <use x="62.988281" xlink:href="#IPAexGothic-51"/>
     <use x="125.976562" xlink:href="#IPAexGothic-56"/>
    </g>
   </g>
   <g id="text_24">
    <!-- 956 -->
    <g transform="translate(189.390113 122.925228)scale(0.1 -0.1)">
     <use xlink:href="#IPAexGothic-57"/>
     <use x="62.988281" xlink:href="#IPAexGothic-53"/>
     <use x="125.976562" xlink:href="#IPAexGothic-54"/>
    </g>
   </g>
   <g id="text_25">
    <!-- 1186 -->
    <g transform="translate(222.694048 79.72089)scale(0.1 -0.1)">
     <use xlink:href="#IPAexGothic-49"/>
     <use x="62.988281" xlink:href="#IPAexGothic-49"/>
     <use x="125.976562" xlink:href="#IPAexGothic-56"/>
     <use x="188.964844" xlink:href="#IPAexGothic-54"/>
    </g>
   </g>
   <g id="text_26">
    <!-- 1056 -->
    <g transform="translate(259.147202 104.140734)scale(0.1 -0.1)">
     <use xlink:href="#IPAexGothic-49"/>
     <use x="62.988281" xlink:href="#IPAexGothic-48"/>
     <use x="125.976562" xlink:href="#IPAexGothic-53"/>
     <use x="188.964844" xlink:href="#IPAexGothic-54"/>
    </g>
   </g>
   <g id="text_27">
    <!-- 1210 -->
    <g transform="translate(295.600356 75.212611)scale(0.1 -0.1)">
     <use xlink:href="#IPAexGothic-49"/>
     <use x="62.988281" xlink:href="#IPAexGothic-50"/>
     <use x="125.976562" xlink:href="#IPAexGothic-49"/>
     <use x="188.964844" xlink:href="#IPAexGothic-48"/>
    </g>
   </g>
   <g id="text_28">
    <!-- 1046 -->
    <g transform="translate(332.05351 106.019183)scale(0.1 -0.1)">
     <use xlink:href="#IPAexGothic-49"/>
     <use x="62.988281" xlink:href="#IPAexGothic-48"/>
     <use x="125.976562" xlink:href="#IPAexGothic-52"/>
     <use x="188.964844" xlink:href="#IPAexGothic-54"/>
    </g>
   </g>
   <g id="text_29">
    <!-- 1268 -->
    <g transform="translate(368.506664 64.317604)scale(0.1 -0.1)">
     <use xlink:href="#IPAexGothic-49"/>
     <use x="62.988281" xlink:href="#IPAexGothic-50"/>
     <use x="125.976562" xlink:href="#IPAexGothic-54"/>
     <use x="188.964844" xlink:href="#IPAexGothic-56"/>
    </g>
   </g>
   <g id="text_30">
    <!-- 1330 -->
    <g transform="translate(404.959818 52.671217)scale(0.1 -0.1)">
     <use xlink:href="#IPAexGothic-49"/>
     <use x="62.988281" xlink:href="#IPAexGothic-51"/>
     <use x="125.976562" xlink:href="#IPAexGothic-51"/>
     <use x="188.964844" xlink:href="#IPAexGothic-48"/>
    </g>
   </g>
   <g id="text_31">
    <!-- 最短経路探索に要した総歩数の比較 -->
    <defs>
     <path d="M 79.78125 78.90625 
L 79.78125 51.171875 
L 20.0625 51.171875 
L 20.0625 78.90625 
z
M 27.203125 73.390625 
L 27.203125 67.671875 
L 72.75 67.671875 
L 72.75 73.390625 
z
M 27.203125 62.5 
L 27.203125 56.59375 
L 72.75 56.59375 
L 72.75 62.5 
z
M 45.703125 39.5 
L 45.703125 -7.03125 
L 39.109375 -7.03125 
L 39.109375 3.5625 
Q 29.203125 1.46875 8.203125 -1.21875 
L 6.390625 5.5625 
Q 7.671875 5.671875 9.515625 5.8125 
Q 11.328125 5.953125 11.8125 5.953125 
L 15.53125 6.296875 
L 15.53125 39.5 
L 6 39.5 
L 6 45.3125 
L 94 45.3125 
L 94 39.5 
z
M 39.109375 39.5 
L 21.875 39.5 
L 21.875 32.625 
L 39.109375 32.625 
z
M 39.109375 27.546875 
L 21.875 27.546875 
L 21.875 20.453125 
L 39.109375 20.453125 
z
M 39.109375 15.375 
L 21.875 15.375 
L 21.875 6.78125 
L 27.484375 7.375 
Q 33.734375 7.8125 39.109375 8.59375 
z
M 75.6875 9.1875 
Q 83.59375 3.515625 94.484375 -0.140625 
L 89.890625 -6.546875 
Q 79.15625 -2 71.1875 4.5 
Q 62.5 -3.765625 51.265625 -8.34375 
L 46.96875 -2.546875 
Q 58.34375 1.3125 66.609375 8.796875 
Q 58.15625 17.828125 54.109375 28.171875 
L 48.1875 28.171875 
L 48.1875 33.890625 
L 84.765625 33.890625 
L 88.375 30.671875 
Q 83.25 18.40625 76.265625 9.96875 
z
M 70.90625 13.28125 
Q 76.3125 19.921875 79.984375 28.171875 
L 60.5 28.171875 
Q 64.265625 19.921875 70.90625 13.28125 
z
" id="IPAexGothic-26368"/>
     <path d="M 30.328125 62.890625 
L 30.328125 43.3125 
L 43.609375 43.3125 
L 43.609375 37.109375 
L 30.21875 37.109375 
Q 29.984375 32.171875 29.6875 29.59375 
Q 39.109375 21.578125 46.390625 11.8125 
L 41.40625 6.109375 
Q 35.84375 14.546875 28.71875 22.3125 
Q 25 3.953125 10.40625 -7.625 
L 5.515625 -2 
Q 16.3125 6 20.703125 18.609375 
Q 22.953125 25.6875 23.4375 37.109375 
L 5.71875 37.109375 
L 5.71875 43.3125 
L 23.53125 43.3125 
L 23.53125 62.890625 
L 18.890625 62.890625 
Q 15.96875 54.046875 11.625 46.828125 
L 6.296875 51.125 
Q 13.625 63.765625 16.3125 82.8125 
L 23 81.78125 
Q 22.015625 74.703125 20.609375 69 
L 41.40625 69 
L 41.40625 62.890625 
z
M 87.203125 58.296875 
L 87.203125 29.296875 
L 47.3125 29.296875 
L 47.3125 58.296875 
z
M 54 52.09375 
L 54 35.40625 
L 80.515625 35.40625 
L 80.515625 52.09375 
z
M 69.28125 2.484375 
Q 73.6875 12.84375 77.296875 27.09375 
L 84.625 24.703125 
Q 80.328125 10.9375 76.078125 2.484375 
L 95.015625 2.484375 
L 95.015625 -4 
L 39.984375 -4 
L 39.984375 2.484375 
z
M 43.109375 75.78125 
L 92 75.78125 
L 92 69.28125 
L 43.109375 69.28125 
z
M 57.421875 4.59375 
Q 54.59375 14.84375 50.09375 24.03125 
L 56.5 26.421875 
Q 60.640625 17.96875 64.015625 7.328125 
z
" id="IPAexGothic-30701"/>
     <path d="M 20.171875 47.796875 
Q 14.40625 56.34375 6.546875 64.203125 
L 11.28125 69.140625 
Q 12.15625 68.109375 13.375 66.75 
Q 14.5 65.53125 14.75 65.234375 
Q 20.84375 73.921875 24.859375 83.203125 
L 31.640625 79.9375 
Q 24.21875 67.390625 18.5625 60.59375 
Q 21.53125 56.84375 23.96875 53.328125 
Q 28.953125 60.890625 34.578125 71.34375 
L 40.875 67.828125 
Q 30.609375 50.984375 21.34375 40.046875 
Q 23.921875 40.09375 36.421875 41.015625 
Q 34.8125 45.265625 32.328125 50 
L 37.546875 52.546875 
Q 42 45.21875 44.734375 37.015625 
Q 54.640625 41.75 64.15625 50 
Q 55.671875 58.34375 49.46875 70.015625 
L 43.953125 70.015625 
L 43.953125 76.3125 
L 85.0625 76.3125 
L 88.765625 72.703125 
Q 82.90625 61.03125 73.53125 50.640625 
Q 83.34375 43.84375 95.265625 39.84375 
L 90.96875 33.015625 
Q 77.9375 38.421875 68.84375 45.796875 
Q 59.078125 36.765625 47.265625 30.421875 
L 44.046875 34.90625 
L 39.359375 32.421875 
Q 38.96875 34.03125 38.421875 35.5 
L 38.234375 36.140625 
Q 33.734375 35.40625 29.15625 34.71875 
L 29.15625 -6.984375 
L 22.5625 -6.984375 
L 22.5625 33.9375 
L 21.140625 33.84375 
Q 16.109375 33.296875 6.984375 32.515625 
L 4.984375 39.40625 
Q 11.859375 39.546875 14.359375 39.703125 
Q 16.65625 42.78125 20.171875 47.796875 
z
M 68.75 54.546875 
Q 75.296875 61.53125 79.546875 70.015625 
L 56.25 70.015625 
Q 60.890625 61.46875 68.75 54.546875 
z
M 64.703125 25 
L 64.703125 38.09375 
L 71.578125 38.09375 
L 71.578125 25 
L 89.703125 25 
L 89.703125 18.703125 
L 71.578125 18.703125 
L 71.578125 2.78125 
L 94.484375 2.78125 
L 94.484375 -3.515625 
L 43.015625 -3.515625 
L 43.015625 2.78125 
L 64.703125 2.78125 
L 64.703125 18.703125 
L 47.40625 18.703125 
L 47.40625 25 
z
M 6.203125 3.421875 
Q 10.0625 14.0625 11.078125 27.484375 
L 17.484375 26.703125 
Q 16.109375 10.640625 12.703125 -0.296875 
z
M 37.5 6 
Q 35.59375 17.328125 31.984375 27.296875 
L 37.703125 29 
Q 41.546875 20.015625 43.890625 8.890625 
z
" id="IPAexGothic-32076"/>
     <path d="M 74.90625 70.703125 
L 74.90625 53.375 
Q 74.90625 51.421875 75.78125 50.78125 
Q 76.765625 50.09375 80.171875 50.09375 
Q 85.75 50.09375 86.671875 51.8125 
Q 87.3125 53.078125 87.5 58.6875 
L 93.796875 56.5 
Q 93.3125 48.390625 91.890625 46.484375 
Q 89.890625 43.890625 79.203125 43.890625 
Q 72.953125 43.890625 71.09375 44.875 
Q 68.21875 46.296875 68.21875 50 
L 68.21875 70.703125 
L 44.28125 70.703125 
L 44.28125 57.671875 
L 37.5 57.671875 
L 37.5 76.90625 
L 92.1875 76.90625 
L 92.1875 60.40625 
L 85.5 60.40625 
L 85.5 70.703125 
z
M 69.828125 27.78125 
Q 79.4375 13.03125 96.09375 4.78125 
L 91.109375 -1.609375 
Q 75.875 8.15625 68.109375 20.796875 
L 68.109375 -7.03125 
L 61.421875 -7.03125 
L 61.421875 20.171875 
Q 54.25 6.25 39.015625 -2.9375 
L 34.234375 2.875 
Q 50.640625 10.9375 59.8125 27.78125 
L 36.71875 27.78125 
L 36.71875 33.984375 
L 61.421875 33.984375 
L 61.421875 44.671875 
L 68.109375 44.671875 
L 68.109375 33.984375 
L 94.1875 33.984375 
L 94.1875 27.78125 
z
M 18.5 62.796875 
L 18.5 83.015625 
L 25.203125 83.015625 
L 25.203125 62.796875 
L 34.96875 62.796875 
L 34.96875 56.296875 
L 25.203125 56.296875 
L 25.203125 37.59375 
Q 29 38.8125 35.5 41.3125 
L 36.1875 35.5 
Q 30.71875 33.0625 25.203125 31 
L 25.203125 0.09375 
Q 25.203125 -4.25 23.296875 -5.671875 
Q 21.734375 -6.984375 17 -6.984375 
Q 12.546875 -6.984375 8.203125 -6.390625 
L 6.984375 0.78125 
Q 11.671875 -0.09375 15.28125 -0.09375 
Q 18.5 -0.09375 18.5 2.6875 
L 18.5 28.609375 
Q 11.859375 26.3125 6.6875 24.8125 
L 4.296875 31.390625 
Q 9.90625 32.8125 18.5 35.40625 
L 18.5 56.296875 
L 5.8125 56.296875 
L 5.8125 62.796875 
z
M 37.984375 45.515625 
Q 52.734375 52.15625 54.390625 69.28125 
L 60.984375 67.828125 
Q 59.46875 54.59375 52.296875 47.125 
Q 48.640625 43.3125 42.28125 39.890625 
z
" id="IPAexGothic-25506"/>
     <path d="M 53.421875 19.484375 
L 53.421875 -7.03125 
L 45.796875 -7.03125 
L 45.796875 19.09375 
L 39.796875 18.890625 
Q 28.609375 18.40625 8.203125 17.875 
L 6 24.609375 
Q 18.5 24.609375 34.71875 24.8125 
L 38.28125 24.90625 
Q 28.078125 34.671875 20.265625 40.09375 
L 25.484375 44.28125 
Q 29.9375 41.15625 33.796875 37.796875 
Q 40.140625 43.5 45.515625 50.59375 
L 15.28125 50.59375 
L 15.28125 39.984375 
L 8.40625 39.984375 
L 8.40625 56.5 
L 46.09375 56.5 
L 46.09375 65.71875 
L 10.984375 65.71875 
L 10.984375 71.921875 
L 46.09375 71.921875 
L 46.09375 83.015625 
L 53.171875 83.015625 
L 53.171875 71.921875 
L 88.921875 71.921875 
L 88.921875 65.71875 
L 53.171875 65.71875 
L 53.171875 56.5 
L 91.703125 56.5 
L 91.703125 39.984375 
L 84.8125 39.984375 
L 84.8125 50.59375 
L 47.796875 50.59375 
L 52 47.796875 
Q 44.484375 39.0625 38.28125 33.984375 
Q 40.578125 32.125 45.515625 27.203125 
Q 56.9375 36.328125 66.5 47.265625 
L 72.703125 43.40625 
Q 63.140625 33.34375 53.8125 25.984375 
L 52.875 25.296875 
L 58.109375 25.484375 
L 60.40625 25.484375 
L 73.09375 25.984375 
L 74.8125 26.078125 
L 78.71875 26.265625 
Q 74.65625 29.984375 70.796875 33.203125 
L 75.640625 36.859375 
Q 85.9375 29.203125 94.578125 20.0625 
L 88.921875 15.375 
Q 85.453125 19.4375 83.59375 21.390625 
L 79.9375 21.09375 
Q 76.703125 20.953125 70.796875 20.515625 
z
M 8.5 -0.09375 
Q 21.78125 5.71875 31.296875 15.375 
L 37.984375 12.015625 
Q 27.390625 0.921875 14.40625 -5.71875 
z
M 86.53125 -4.390625 
Q 74.953125 5.8125 62.59375 12.5 
L 68.3125 16.703125 
Q 81.6875 10.0625 92.53125 1.421875 
z
" id="IPAexGothic-32034"/>
     <path d="M 17 -0.59375 
Q 14.40625 15.671875 14.40625 32.515625 
Q 14.40625 50.34375 20.796875 74.90625 
L 28.328125 73.1875 
Q 21.734375 48.640625 21.734375 31.296875 
Q 21.734375 22.515625 22.21875 17.921875 
Q 22.40625 18.453125 28.328125 31.5 
L 33.203125 28.078125 
Q 28.125 16.890625 26.421875 11.921875 
Q 24.703125 7.078125 24.703125 4.203125 
Q 24.703125 1.21875 24.8125 0.09375 
z
M 44.28125 63.09375 
Q 62.015625 65.828125 83.015625 65.1875 
L 83.40625 57.515625 
Q 61.859375 58.25 44.828125 55.421875 
z
M 88.28125 4 
Q 78.8125 2.6875 68.3125 2.6875 
Q 54.109375 2.6875 47.609375 6.78125 
Q 43.5 9.28125 41.796875 13.140625 
Q 40.1875 16.796875 40.1875 22.609375 
Q 40.1875 24.421875 40.28125 25.875 
L 47.703125 26.3125 
Q 47.65625 25.203125 47.5625 23.875 
Q 47.515625 23.140625 47.515625 22.90625 
Q 47.515625 18.75 48.734375 16.453125 
Q 49.65625 14.75 51.703125 13.28125 
Q 55.765625 10.59375 66.796875 10.59375 
Q 76.421875 10.59375 87.3125 11.921875 
z
" id="IPAexGothic-12395"/>
     <path d="M 35.59375 62.890625 
L 35.59375 71.578125 
L 8.25 71.578125 
L 8.25 77.78125 
L 91.5 77.78125 
L 91.5 71.578125 
L 63.765625 71.578125 
L 63.765625 62.890625 
L 86.28125 62.890625 
L 86.28125 39.796875 
L 13.484375 39.796875 
L 13.484375 62.890625 
z
M 42.09375 62.890625 
L 57.171875 62.890625 
L 57.171875 71.578125 
L 42.09375 71.578125 
z
M 35.59375 57.28125 
L 20.5625 57.28125 
L 20.5625 45.40625 
L 35.59375 45.40625 
z
M 42.09375 57.28125 
L 42.09375 45.40625 
L 57.171875 45.40625 
L 57.171875 57.28125 
z
M 63.765625 57.28125 
L 63.765625 45.40625 
L 79.296875 45.40625 
L 79.296875 57.28125 
z
M 47.90625 5.28125 
Q 39.796875 7.859375 26.46875 11.28125 
L 23.484375 12.109375 
Q 28.375 17.828125 32.28125 23.484375 
L 6.984375 23.484375 
L 6.984375 29.6875 
L 36.1875 29.6875 
Q 39.015625 34.765625 41.265625 39.3125 
L 48.1875 36.96875 
Q 46.625 33.9375 44.28125 29.6875 
L 92.96875 29.6875 
L 92.96875 23.484375 
L 72.171875 23.484375 
Q 68.265625 13.71875 62.3125 7.5625 
Q 74.21875 4.109375 90.578125 -1.421875 
L 84.578125 -7.625 
Q 69.390625 -1.5625 56.203125 2.6875 
Q 42.28125 -6.34375 13.578125 -8.296875 
L 9.765625 -1.515625 
Q 33.15625 -0.4375 47.90625 5.28125 
z
M 54.890625 9.671875 
Q 61.46875 16.015625 64.59375 23.484375 
L 40.578125 23.484375 
Q 37.703125 18.953125 34.96875 15.375 
L 34.578125 14.890625 
Q 41.5 13.328125 54.890625 9.671875 
z
" id="IPAexGothic-35201"/>
     <path d="M 27.34375 76.3125 
L 35.640625 76.3125 
L 34.96875 20.609375 
Q 34.8125 12.640625 37.359375 8.890625 
Q 40.53125 4.390625 48.875 4.390625 
Q 58.9375 4.390625 67.875 11.625 
Q 75.34375 17.671875 80.5625 27.484375 
L 86.46875 21.390625 
Q 79.59375 10.203125 70.84375 4.109375 
Q 60.59375 -3.21875 48.96875 -3.21875 
Q 36.578125 -3.21875 31.15625 3.328125 
Q 26.515625 8.984375 26.65625 19.828125 
z
" id="IPAexGothic-12375"/>
     <path d="M 10.6875 62.40625 
Q 17.78125 61.765625 24.3125 61.765625 
Q 28.078125 61.765625 32.90625 62.109375 
Q 35.40625 71.78125 37.015625 79.890625 
L 44.921875 78.515625 
Q 43.84375 73.921875 40.921875 62.703125 
Q 50.140625 63.8125 57.125 65.484375 
L 57.625 58.109375 
Q 48.578125 56.453125 39.015625 55.71875 
Q 28.46875 20.21875 18.015625 -0.6875 
L 10.203125 2.6875 
Q 21.96875 23.4375 31.109375 55.171875 
Q 25.53125 54.890625 19.625 54.890625 
Q 17.28125 54.890625 10.890625 55.078125 
z
M 89.890625 1.21875 
Q 79.046875 -0.203125 71.828125 -0.203125 
Q 56.546875 -0.203125 50.09375 5.21875 
Q 44.78125 9.765625 43.21875 19.09375 
L 50.203125 21.6875 
Q 50.734375 16.703125 52.296875 14.109375 
Q 53.515625 12.109375 55.90625 10.5 
Q 60.40625 7.515625 71.1875 7.515625 
Q 78.265625 7.515625 89.5 8.984375 
z
M 49.125 44.671875 
Q 65.875 49.171875 84.515625 48 
L 84.078125 40.578125 
L 83.6875 40.578125 
Q 66.609375 41.609375 49.90625 37.796875 
z
" id="IPAexGothic-12383"/>
     <path d="M 19.484375 48.1875 
Q 12.796875 57.671875 6 64.5 
L 10.40625 69.09375 
Q 12.203125 67.28125 14.3125 64.890625 
Q 20.015625 73.1875 24.078125 83.296875 
L 30.5625 79.984375 
Q 24.078125 68.0625 18.109375 60.296875 
Q 20.609375 56.984375 23 53.515625 
Q 29.78125 63.96875 33.40625 71.09375 
L 39.40625 67.390625 
Q 29.25 50.4375 20.515625 40.1875 
L 25.484375 40.484375 
Q 31.453125 40.828125 34.375 41.109375 
Q 32.421875 45.609375 30.46875 49.21875 
L 35.890625 51.515625 
Q 40.71875 43.171875 44.09375 32.90625 
L 38.1875 29.984375 
Q 36.671875 34.859375 36.1875 36.1875 
Q 34.8125 35.84375 27.78125 34.90625 
L 27.78125 -6.984375 
L 21.296875 -6.984375 
L 21.296875 34.078125 
L 20.3125 33.984375 
Q 15.765625 33.5 6.78125 32.90625 
L 4.5 39.59375 
Q 10.9375 39.75 13.484375 39.890625 
Q 14.890625 41.84375 17.28125 45.171875 
Q 18.890625 47.359375 19.484375 48.1875 
z
M 53.265625 41.703125 
Q 59.671875 53.421875 63.484375 65.484375 
L 69.875 63.625 
Q 65.375 50.828125 60.40625 41.890625 
Q 77.390625 42.71875 79.890625 43.015625 
Q 77 47.40625 73 52.6875 
L 77.984375 55.8125 
Q 85.796875 47.359375 92.1875 36.375 
L 86.078125 32.171875 
Q 82.953125 38.03125 82.90625 38.09375 
Q 67.71875 35.984375 46.296875 34.8125 
L 44.1875 41.609375 
Q 49.078125 41.609375 51.515625 41.703125 
z
M 5.609375 3.078125 
Q 9.1875 13.484375 10.203125 27.484375 
L 16.609375 26.703125 
Q 15.53125 10.6875 12.015625 -0.203125 
z
M 35.203125 6.78125 
Q 33.25 18.953125 30.375 27.484375 
L 35.984375 29.203125 
Q 39.0625 22.46875 41.796875 9.625 
z
M 42.78125 55.671875 
Q 51.90625 65.96875 56.890625 80.671875 
L 62.890625 78.5625 
Q 57.765625 62.453125 47.515625 50.6875 
z
M 89.203125 53.8125 
Q 77.34375 64.75 70.3125 78.71875 
L 75.78125 81.5 
Q 83.25 68.796875 94.484375 59.421875 
z
M 42.28125 1.421875 
Q 46.296875 11.328125 47.3125 23.484375 
L 53.609375 22.21875 
Q 52.09375 6.734375 48.1875 -2.390625 
z
M 57.421875 25.296875 
L 63.921875 25.296875 
L 63.921875 3.90625 
Q 63.921875 1.3125 65.53125 0.875 
Q 66.453125 0.484375 69.234375 0.484375 
Q 75.390625 0.484375 76.125 2.984375 
Q 76.65625 5.03125 76.8125 12.703125 
L 83.296875 10.59375 
Q 83.15625 -2.25 80.125 -4.296875 
Q 77.59375 -6.109375 69.140625 -6.109375 
Q 62.15625 -6.109375 60.109375 -4.78125 
Q 57.421875 -3.171875 57.421875 0.984375 
z
M 89.890625 0.59375 
Q 85.359375 13.96875 80.46875 21.921875 
L 86.078125 24.609375 
Q 92.671875 14.359375 95.90625 4.109375 
z
M 72.609375 18.40625 
Q 67.328125 25.875 61.28125 30.8125 
L 66.109375 34.71875 
Q 73 29.640625 77.78125 23.09375 
z
" id="IPAexGothic-32207"/>
     <path d="M 48.734375 7.328125 
Q 82.421875 11.96875 82.421875 37.890625 
Q 82.421875 53.953125 68.953125 61.328125 
Q 63.140625 64.3125 55.421875 64.984375 
Q 53.03125 39.453125 44.53125 21.875 
Q 36.28125 4.78125 26.90625 4.78125 
Q 21.625 4.78125 16.9375 10.40625 
Q 9.515625 19.4375 9.515625 31.296875 
Q 9.515625 47.265625 21.828125 59.28125 
Q 34.125 71.296875 53.609375 71.296875 
Q 67.28125 71.296875 77 64.40625 
Q 90.828125 54.78125 90.828125 37.890625 
Q 90.828125 6.84375 53.609375 0.09375 
z
M 47.703125 64.796875 
Q 37.15625 63.1875 29.546875 56.890625 
Q 17.140625 46.578125 17.140625 31.109375 
Q 17.140625 21.34375 22.40625 15.28125 
Q 24.703125 12.703125 26.859375 12.703125 
Q 31.59375 12.703125 37.75 25.390625 
Q 45.453125 41.21875 47.703125 64.796875 
z
" id="IPAexGothic-12398"/>
     <path d="M 23.828125 50.78125 
L 46.921875 50.78125 
L 46.921875 44.09375 
L 23.828125 44.09375 
L 23.828125 7.375 
Q 38.578125 11.671875 47.125 14.59375 
L 47.515625 8.296875 
Q 28.328125 0.921875 7.171875 -4.6875 
L 4.59375 2.484375 
Q 10.84375 3.90625 16.5 5.375 
L 16.5 79.390625 
L 23.828125 79.390625 
z
M 59.28125 47.3125 
Q 73.296875 54.25 83.453125 63.09375 
L 89.75 57.90625 
Q 74.65625 46.390625 59.28125 40.1875 
L 59.28125 8.6875 
Q 59.28125 5.515625 62.15625 4.890625 
Q 64.15625 4.5 69.875 4.5 
Q 80.765625 4.5 83.25 5.90625 
Q 85.796875 7.234375 86.28125 23.6875 
L 93.65625 21.1875 
Q 93.21875 3.71875 90.1875 0.53125 
Q 86.96875 -2.6875 70.171875 -2.6875 
Q 59.515625 -2.6875 56.0625 -1.171875 
Q 52.09375 0.4375 52.09375 6.203125 
L 52.09375 79.890625 
L 59.28125 79.890625 
z
" id="IPAexGothic-27604"/>
     <path d="M 22.078125 57.625 
L 22.078125 64.890625 
L 6 64.890625 
L 6 70.90625 
L 22.078125 70.90625 
L 22.078125 83.015625 
L 28.375 83.015625 
L 28.375 70.90625 
L 44.921875 70.90625 
L 44.921875 64.890625 
L 28.375 64.890625 
L 28.375 57.625 
L 42.71875 57.625 
L 42.71875 23.6875 
L 28.375 23.6875 
L 28.375 15.828125 
L 45.796875 15.828125 
L 45.796875 9.8125 
L 28.375 9.8125 
L 28.375 -6.984375 
L 22.078125 -6.984375 
L 22.078125 9.8125 
L 4.59375 9.8125 
L 4.59375 15.828125 
L 22.078125 15.828125 
L 22.078125 23.6875 
L 8.296875 23.6875 
L 8.296875 57.625 
z
M 22.265625 52.390625 
L 14.109375 52.390625 
L 14.109375 43.40625 
L 22.265625 43.40625 
z
M 28.171875 52.390625 
L 28.171875 43.40625 
L 36.921875 43.40625 
L 36.921875 52.390625 
z
M 22.265625 38.375 
L 14.109375 38.375 
L 14.109375 29 
L 22.265625 29 
z
M 28.171875 38.375 
L 28.171875 29 
L 36.921875 29 
L 36.921875 38.375 
z
M 66.265625 15.828125 
Q 59.234375 25.09375 55.46875 36.53125 
L 61.1875 39.203125 
Q 63.921875 29.6875 69.96875 21.296875 
Q 75.390625 30.328125 77.78125 41.21875 
L 83.984375 38.921875 
Q 81.15625 26.859375 74.171875 16.109375 
Q 82.71875 6.9375 96 0.6875 
L 91.546875 -5.90625 
Q 79.203125 0.78125 70.265625 10.796875 
Q 60.203125 -1.21875 47.65625 -7.515625 
L 42.96875 -2 
Q 56.9375 4.046875 66.265625 15.828125 
z
M 72.609375 66.609375 
L 94.671875 66.609375 
L 94.671875 60.203125 
L 46.296875 60.203125 
L 46.296875 66.609375 
L 65.71875 66.609375 
L 65.71875 83.015625 
L 72.609375 83.015625 
z
M 44.484375 35.890625 
Q 53.21875 44.671875 58.40625 57.8125 
L 64.359375 55.328125 
Q 58.890625 41.3125 49.265625 31.109375 
z
M 89.984375 32.90625 
Q 83.34375 44.734375 73.96875 55.328125 
L 79.296875 58.296875 
Q 89.546875 47.5625 95.265625 37.796875 
z
" id="IPAexGothic-36611"/>
    </defs>
    <g transform="translate(157.5175 20.34)scale(0.12 -0.12)">
     <use xlink:href="#IPAexGothic-26368"/>
     <use x="100" xlink:href="#IPAexGothic-30701"/>
     <use x="200" xlink:href="#IPAexGothic-32076"/>
     <use x="300" xlink:href="#IPAexGothic-36335"/>
     <use x="400" xlink:href="#IPAexGothic-25506"/>
     <use x="500" xlink:href="#IPAexGothic-32034"/>
     <use x="600" xlink:href="#IPAexGothic-12395"/>
     <use x="700" xlink:href="#IPAexGothic-35201"/>
     <use x="800" xlink:href="#IPAexGothic-12375"/>
     <use x="900" xlink:href="#IPAexGothic-12383"/>
     <use x="1000" xlink:href="#IPAexGothic-32207"/>
     <use x="1100" xlink:href="#IPAexGothic-27497"/>
     <use x="1200" xlink:href="#IPAexGothic-25968"/>
     <use x="1300" xlink:href="#IPAexGothic-12398"/>
     <use x="1400" xlink:href="#IPAexGothic-27604"/>
     <use x="1500" xlink:href="#IPAexGothic-36611"/>
    </g>
   </g>
   <g id="legend_1">
    <g id="patch_47">
     <path d="M 64.035 91.960312 
L 134.455312 91.960312 
Q 136.455312 91.960312 136.455312 89.960312 
L 136.455312 33.34 
Q 136.455312 31.34 134.455312 31.34 
L 64.035 31.34 
Q 62.035 31.34 62.035 33.34 
L 62.035 89.960312 
Q 62.035 91.960312 64.035 91.960312 
z
" style="fill:#ffffff;opacity:0.8;stroke:#cccccc;stroke-linejoin:miter;"/>
    </g>
    <g id="patch_48">
     <path d="M 66.035 42.830625 
L 86.035 42.830625 
L 86.035 35.830625 
L 66.035 35.830625 
z
" style="fill:#d62728;"/>
    </g>
    <g id="text_32">
     <!-- Back -->
     <defs>
      <path d="M 42 37.890625 
Q 59.625 34.765625 59.625 20.90625 
Q 59.625 8.6875 47.515625 3.46875 
Q 41.75 0.984375 32.71875 0.984375 
L 9.515625 0.984375 
L 9.515625 72.40625 
L 29.9375 72.40625 
Q 38.96875 72.40625 44.828125 70.3125 
Q 56.9375 65.96875 56.9375 54.546875 
Q 56.9375 40.765625 42 38.234375 
z
M 18.109375 41.5 
L 28.8125 41.5 
Q 47.859375 41.5 47.859375 53.609375 
Q 47.859375 65.328125 29.390625 65.328125 
L 18.109375 65.328125 
z
M 18.109375 8.15625 
L 31.5 8.15625 
Q 50.34375 8.15625 50.34375 21.390625 
Q 50.34375 29.640625 41.015625 32.8125 
Q 35.59375 34.71875 29.296875 34.71875 
L 18.109375 34.71875 
z
" id="IPAexGothic-66"/>
      <path d="M 49.3125 0.984375 
L 41.75 0.984375 
Q 39.984375 4.734375 39.546875 8.6875 
L 39.203125 8.6875 
Q 33.546875 -0.390625 22.3125 -0.390625 
Q 14.59375 -0.390625 9.71875 4.5 
Q 5.421875 8.796875 5.421875 14.984375 
Q 5.421875 30.421875 32.03125 31.203125 
L 38.71875 31.390625 
L 38.71875 33.984375 
Q 38.71875 39.203125 35.75 42.1875 
Q 32.625 45.3125 27.734375 45.3125 
Q 19.34375 45.3125 15.140625 37.15625 
L 7.71875 40.578125 
Q 14.65625 52 27.9375 52 
Q 37.109375 52 42.046875 46.875 
Q 46.625 42.28125 46.625 33.890625 
L 46.625 15.578125 
Q 46.625 6.25 49.3125 0.984375 
z
M 38.921875 25.390625 
L 33.453125 25.296875 
Q 14.109375 24.859375 14.109375 14.890625 
Q 14.109375 11.375 16.40625 9.078125 
Q 19.234375 6.296875 23.828125 6.296875 
Q 30.21875 6.296875 34.90625 10.984375 
Q 38.921875 15.140625 38.921875 21 
z
" id="IPAexGothic-97"/>
      <path d="M 51.078125 12.25 
Q 44.28125 -0.484375 29.6875 -0.484375 
Q 19.1875 -0.484375 12.3125 6.390625 
Q 4.890625 13.921875 4.890625 25.984375 
Q 4.890625 37.9375 12.3125 45.515625 
Q 19.09375 52.296875 29.390625 52.296875 
Q 43.953125 52.296875 50.09375 39.703125 
L 43.171875 36.078125 
Q 38.8125 45.3125 29.6875 45.3125 
Q 23.6875 45.3125 19.28125 40.921875 
Q 13.765625 35.40625 13.765625 25.78125 
Q 13.765625 16.703125 19.09375 11.375 
Q 23.78125 6.6875 30.5625 6.6875 
Q 39.796875 6.6875 44.484375 15.875 
z
" id="IPAexGothic-99"/>
      <path d="M 50.6875 0.984375 
L 40.28125 0.984375 
L 23.1875 25.203125 
L 17.484375 19.671875 
L 17.484375 0.984375 
L 9.078125 0.984375 
L 9.078125 74.90625 
L 17.484375 74.90625 
L 17.484375 27.59375 
L 38.484375 50.78125 
L 49.265625 50.78125 
L 28.5625 30.078125 
z
" id="IPAexGothic-107"/>
     </defs>
     <g transform="translate(94.035 42.830625)scale(0.1 -0.1)">
      <use xlink:href="#IPAexGothic-66"/>
      <use x="65.917969" xlink:href="#IPAexGothic-97"/>
      <use x="120.898438" xlink:href="#IPAexGothic-99"/>
      <use x="175.292969" xlink:href="#IPAexGothic-107"/>
     </g>
    </g>
    <g id="patch_49">
     <path d="M 66.035 57.22125 
L 86.035 57.22125 
L 86.035 50.22125 
L 66.035 50.22125 
z
" style="fill:#2ca02c;"/>
    </g>
    <g id="text_33">
     <!-- Right -->
     <defs>
      <path d="M 63.625 0.984375 
L 53.03125 0.984375 
Q 49.03125 10.015625 44.1875 18.703125 
Q 40.375 25.640625 36.625 28.515625 
Q 32.03125 31.9375 25.390625 31.9375 
L 18.3125 31.9375 
L 18.3125 0.984375 
L 9.515625 0.984375 
L 9.515625 72.40625 
L 31.390625 72.40625 
Q 42.390625 72.40625 48.921875 68.40625 
Q 57.625 63.1875 57.625 52.828125 
Q 57.625 43.5 49.703125 38.421875 
Q 45.40625 35.5 39.40625 34.625 
L 39.40625 34.328125 
Q 45.953125 32.03125 50.734375 24.703125 
Q 54.9375 18.21875 63.625 0.984375 
z
M 18.3125 38.71875 
L 29.203125 38.71875 
Q 48.53125 38.71875 48.53125 52.640625 
Q 48.53125 65.328125 30.125 65.328125 
L 18.3125 65.328125 
z
" id="IPAexGothic-82"/>
      <path d="M 18.40625 61.375 
L 8.59375 61.375 
L 8.59375 71.390625 
L 18.40625 71.390625 
z
M 17.78125 0.984375 
L 9.1875 0.984375 
L 9.1875 50.78125 
L 17.78125 50.78125 
z
" id="IPAexGothic-105"/>
      <path d="M 20.796875 17.96875 
Q 15.71875 17.53125 15.71875 14.0625 
Q 15.71875 9.578125 27.546875 8.984375 
L 33.296875 8.6875 
Q 51.609375 7.765625 51.609375 -4.59375 
Q 51.609375 -10.9375 45.703125 -14.984375 
Q 39.359375 -19.578125 28.03125 -19.578125 
Q 17.78125 -19.578125 11.53125 -16.0625 
Q 5.515625 -12.640625 5.515625 -6.6875 
Q 5.515625 1.3125 16.796875 3.859375 
L 16.796875 4.203125 
Q 7.90625 6.453125 7.90625 12.15625 
Q 7.90625 17.4375 15.53125 20.265625 
Q 7.125 24.609375 7.125 34.078125 
Q 7.125 41.40625 12.015625 46.296875 
Q 17.625 51.90625 27.15625 51.90625 
Q 33.203125 51.90625 37.84375 49.265625 
Q 41.40625 53.953125 50.921875 54.109375 
L 50.921875 47.078125 
Q 44.34375 46.921875 42.234375 45.90625 
Q 47.40625 40.828125 47.40625 33.890625 
Q 47.40625 27 42.71875 22.265625 
Q 37.5 17.09375 28.328125 17.09375 
Q 24.421875 17.09375 20.796875 17.96875 
z
M 27.09375 45.609375 
Q 22.015625 45.609375 18.703125 42.28125 
Q 15.4375 39.015625 15.4375 34.078125 
Q 15.4375 29.25 18.5 26.3125 
Q 21.828125 23 27.4375 23 
Q 32.71875 23 35.890625 26.21875 
Q 39.109375 29.390625 39.109375 34.421875 
Q 39.109375 39.015625 35.890625 42.1875 
Q 32.515625 45.609375 27.09375 45.609375 
z
M 27.390625 2.484375 
Q 14.109375 2.484375 14.109375 -5.71875 
Q 14.109375 -13.671875 28.125 -13.671875 
Q 37.15625 -13.671875 41.21875 -9.46875 
Q 43.3125 -7.515625 43.3125 -4.890625 
Q 43.3125 2.484375 27.390625 2.484375 
z
" id="IPAexGothic-103"/>
      <path d="M 52.296875 0.984375 
L 43.703125 0.984375 
L 43.703125 31.890625 
Q 43.703125 44.578125 33.296875 44.578125 
Q 22.609375 44.578125 17.671875 31.890625 
L 17.671875 0.984375 
L 9.078125 0.984375 
L 9.078125 74.90625 
L 17.671875 74.90625 
L 17.671875 42.28125 
Q 24.46875 51.8125 35.109375 51.8125 
Q 52.296875 51.8125 52.296875 32.375 
z
" id="IPAexGothic-104"/>
      <path d="M 33.203125 3.765625 
Q 27.640625 -0.09375 21.828125 -0.09375 
Q 10.203125 -0.09375 10.203125 12.984375 
L 10.203125 44.671875 
L 3.421875 44.671875 
L 3.421875 50.78125 
L 10.203125 50.78125 
L 10.203125 61.96875 
L 18.40625 66.0625 
L 18.40625 50.78125 
L 32.234375 50.78125 
L 32.234375 44.671875 
L 18.40625 44.671875 
L 18.40625 14.15625 
Q 18.40625 6.5 23.640625 6.5 
Q 27.15625 6.5 30.328125 9.1875 
z
" id="IPAexGothic-116"/>
     </defs>
     <g transform="translate(94.035 57.22125)scale(0.1 -0.1)">
      <use xlink:href="#IPAexGothic-82"/>
      <use x="64.794922" xlink:href="#IPAexGothic-105"/>
      <use x="91.796875" xlink:href="#IPAexGothic-103"/>
      <use x="147.314453" xlink:href="#IPAexGothic-104"/>
      <use x="208.007812" xlink:href="#IPAexGothic-116"/>
     </g>
    </g>
    <g id="patch_50">
     <path d="M 66.035 71.669688 
L 86.035 71.669688 
L 86.035 64.669688 
L 66.035 64.669688 
z
" style="fill:#ff7f0e;"/>
    </g>
    <g id="text_34">
     <!-- Left -->
     <defs>
      <path d="M 52.296875 0.984375 
L 9.515625 0.984375 
L 9.515625 72.40625 
L 18.40625 72.40625 
L 18.40625 8.796875 
L 52.296875 8.796875 
z
" id="IPAexGothic-76"/>
      <path d="M 13.484375 24.90625 
Q 13.921875 16.265625 18.890625 11.28125 
Q 23.96875 6.203125 31.203125 6.203125 
Q 40.71875 6.203125 46.296875 15.09375 
L 51.90625 11.375 
Q 44.828125 -0.484375 30.171875 -0.484375 
Q 19.09375 -0.484375 11.96875 6.59375 
Q 4.78125 13.8125 4.78125 25.640625 
Q 4.78125 38.1875 12.3125 45.703125 
Q 19 52.390625 29 52.390625 
Q 38.421875 52.390625 44.78125 46.1875 
Q 51.90625 38.96875 51.90625 26.90625 
L 51.90625 24.90625 
z
M 43.0625 31.203125 
Q 42.328125 37.984375 38.28125 41.890625 
Q 34.28125 45.90625 28.8125 45.90625 
Q 22.46875 45.90625 17.96875 40.484375 
Q 14.890625 36.8125 13.96875 31.203125 
z
" id="IPAexGothic-101"/>
      <path d="M 38.375 72.21875 
L 34.8125 66.3125 
Q 31.109375 69.09375 27.203125 69.09375 
Q 18.5 69.09375 18.5 57.375 
L 18.5 50.78125 
L 32.078125 50.78125 
L 32.078125 44.671875 
L 18.5 44.671875 
L 18.5 0.984375 
L 10.015625 0.984375 
L 10.015625 44.671875 
L 1.90625 44.671875 
L 1.90625 50.78125 
L 10.015625 50.78125 
L 10.015625 57.171875 
Q 10.015625 65.4375 13.921875 70.0625 
Q 18.75 75.6875 26.703125 75.6875 
Q 33.0625 75.6875 38.375 72.21875 
z
" id="IPAexGothic-102"/>
     </defs>
     <g transform="translate(94.035 71.669688)scale(0.1 -0.1)">
      <use xlink:href="#IPAexGothic-76"/>
      <use x="52.587891" xlink:href="#IPAexGothic-101"/>
      <use x="109.472656" xlink:href="#IPAexGothic-102"/>
      <use x="140.087891" xlink:href="#IPAexGothic-116"/>
     </g>
    </g>
    <g id="patch_51">
     <path d="M 66.035 86.060313 
L 86.035 86.060313 
L 86.035 79.060313 
L 66.035 79.060313 
z
" style="fill:#1f77b4;"/>
    </g>
    <g id="text_35">
     <!-- Forward -->
     <defs>
      <path d="M 54.203125 64.703125 
L 18.3125 64.703125 
L 18.3125 41.5 
L 50.09375 41.5 
L 50.09375 34.1875 
L 18.3125 34.1875 
L 18.3125 0.984375 
L 9.515625 0.984375 
L 9.515625 72.40625 
L 54.203125 72.40625 
z
" id="IPAexGothic-70"/>
      <path d="M 29.984375 52.203125 
Q 40.53125 52.203125 47.75 45.125 
Q 55.171875 37.703125 55.171875 25.59375 
Q 55.171875 13.875 47.90625 6.59375 
Q 40.765625 -0.484375 29.984375 -0.484375 
Q 19.1875 -0.484375 12.203125 6.5 
Q 4.890625 13.765625 4.890625 25.875 
Q 4.890625 37.703125 12.3125 45.125 
Q 19.390625 52.203125 29.984375 52.203125 
z
M 29.984375 45.609375 
Q 23.734375 45.609375 19.390625 41.109375 
Q 13.875 35.59375 13.875 25.78125 
Q 13.875 16.109375 19.28125 10.6875 
Q 23.6875 6.296875 29.984375 6.296875 
Q 36.421875 6.296875 40.765625 10.796875 
Q 46.1875 16.21875 46.1875 26.125 
Q 46.1875 35.453125 40.671875 41.109375 
Q 36.1875 45.609375 29.984375 45.609375 
z
" id="IPAexGothic-111"/>
      <path d="M 36.078125 51.8125 
L 34.578125 43.265625 
Q 32.90625 43.609375 31.59375 43.609375 
Q 25.828125 43.609375 22.078125 38.1875 
Q 17.390625 31.34375 17.390625 26.171875 
L 17.390625 0.984375 
L 8.796875 0.984375 
L 8.796875 50.78125 
L 16.890625 50.78125 
L 16.5 35.984375 
L 16.703125 35.984375 
Q 22.21875 52.203125 32.765625 52.203125 
Q 34.46875 52.203125 36.078125 51.8125 
z
" id="IPAexGothic-114"/>
      <path d="M 74.5625 50.78125 
L 57.28125 0.09375 
L 51.265625 0.09375 
L 40.765625 29.984375 
Q 39.203125 34.421875 37.703125 40.96875 
L 37.40625 40.96875 
Q 36.28125 36.234375 34.1875 29.984375 
L 23.96875 0.09375 
L 17.96875 0.09375 
L 0.6875 50.78125 
L 9.671875 50.78125 
L 18.0625 23.296875 
Q 18.84375 20.796875 21.296875 11.765625 
L 21.578125 11.765625 
Q 23.046875 17.578125 24.90625 23.296875 
L 33.890625 50.78125 
L 41.5 50.78125 
L 50.875 23.296875 
Q 52.296875 19.4375 54.203125 11.765625 
L 54.5 11.765625 
Q 56.109375 18.5 57.5625 23.296875 
L 65.875 50.78125 
z
" id="IPAexGothic-119"/>
      <path d="M 52.984375 0.984375 
L 45.171875 0.984375 
L 45.171875 9.671875 
Q 38.140625 -0.484375 27.390625 -0.484375 
Q 18.453125 -0.484375 12.3125 5.8125 
Q 4.890625 13.1875 4.890625 25.984375 
Q 4.890625 38.53125 12.0625 45.90625 
Q 18.265625 52.203125 27.390625 52.203125 
Q 37.25 52.203125 44.484375 43.890625 
L 44.484375 74.90625 
L 52.984375 74.90625 
z
M 44.484375 20.359375 
L 44.484375 32.765625 
Q 44.484375 37.703125 38.375 42.28125 
Q 34.078125 45.40625 28.953125 45.40625 
Q 23.1875 45.40625 19.1875 41.40625 
Q 13.875 36.078125 13.875 26.21875 
Q 13.875 17.328125 18.265625 11.71875 
Q 22.515625 6.390625 28.859375 6.390625 
Q 36.28125 6.390625 41.5 13.671875 
Q 44.484375 17.71875 44.484375 20.359375 
z
" id="IPAexGothic-100"/>
     </defs>
     <g transform="translate(94.035 86.060313)scale(0.1 -0.1)">
      <use xlink:href="#IPAexGothic-70"/>
      <use x="57.177734" xlink:href="#IPAexGothic-111"/>
      <use x="117.578125" xlink:href="#IPAexGothic-114"/>
      <use x="154.589844" xlink:href="#IPAexGothic-119"/>
      <use x="229.785156" xlink:href="#IPAexGothic-97"/>
      <use x="284.765625" xlink:href="#IPAexGothic-114"/>
      <use x="321.777344" xlink:href="#IPAexGothic-100"/>
     </g>
    </g>
   </g>
  </g>
 </g>
 <defs>
  <clipPath id="p5db80c9f75">
   <rect height="278.065" width="392.965" x="57.035" y="26.34"/>
  </clipPath>
 </defs>
</svg>
