<?xml version="1.0" encoding="utf-8" standalone="no"?>
<!DOCTYPE svg PUBLIC "-//W3C//DTD SVG 1.1//EN"
  "http://www.w3.org/Graphics/SVG/1.1/DTD/svg11.dtd">
<!-- Created with matplotlib (https://matplotlib.org/) -->
<svg height="345.6pt" version="1.1" viewBox="0 0 460.8 345.6" width="460.8pt" xmlns="http://www.w3.org/2000/svg" xmlns:xlink="http://www.w3.org/1999/xlink">
 <defs>
  <style type="text/css">
*{stroke-linecap:butt;stroke-linejoin:round;}
  </style>
 </defs>
 <g id="figure_1">
  <g id="patch_1">
   <path d="M 0 345.6 
L 460.8 345.6 
L 460.8 0 
L 0 0 
z
" style="fill:#ffffff;"/>
  </g>
  <g id="axes_1">
   <g id="patch_2">
    <path d="M 57.035 304.405 
L 449.011956 304.405 
L 449.011956 26.16 
L 57.035 26.16 
z
" style="fill:#ffffff;"/>
   </g>
   <g id="patch_3">
    <path clip-path="url(#p39699e0ce3)" d="M 57.035 281.43301 
L 346.985591 281.43301 
L 346.985591 271.10852 
L 57.035 271.10852 
z
" style="fill:#1f77b4;"/>
   </g>
   <g id="patch_4">
    <path clip-path="url(#p39699e0ce3)" d="M 57.035 255.621786 
L 380.97456 255.621786 
L 380.97456 245.297296 
L 57.035 245.297296 
z
" style="fill:#1f77b4;"/>
   </g>
   <g id="patch_5">
    <path clip-path="url(#p39699e0ce3)" d="M 57.035 229.810561 
L 344.517119 229.810561 
L 344.517119 219.486071 
L 57.035 219.486071 
z
" style="fill:#1f77b4;"/>
   </g>
   <g id="patch_6">
    <path clip-path="url(#p39699e0ce3)" d="M 57.035 203.999337 
L 225.342109 203.999337 
L 225.342109 193.674847 
L 57.035 193.674847 
z
" style="fill:#1f77b4;"/>
   </g>
   <g id="patch_7">
    <path clip-path="url(#p39699e0ce3)" d="M 57.035 178.188112 
L 238.752561 178.188112 
L 238.752561 167.863622 
L 57.035 167.863622 
z
" style="fill:#1f77b4;"/>
   </g>
   <g id="patch_8">
    <path clip-path="url(#p39699e0ce3)" d="M 57.035 152.376888 
L 275.542297 152.376888 
L 275.542297 142.052398 
L 57.035 142.052398 
z
" style="fill:#1f77b4;"/>
   </g>
   <g id="patch_9">
    <path clip-path="url(#p39699e0ce3)" d="M 57.035 126.565663 
L 236.663854 126.565663 
L 236.663854 116.241173 
L 57.035 116.241173 
z
" style="fill:#1f77b4;"/>
   </g>
   <g id="patch_10">
    <path clip-path="url(#p39699e0ce3)" d="M 57.035 100.754439 
L 311.928533 100.754439 
L 311.928533 90.429949 
L 57.035 90.429949 
z
" style="fill:#1f77b4;"/>
   </g>
   <g id="patch_11">
    <path clip-path="url(#p39699e0ce3)" d="M 57.035 74.943214 
L 170.252446 74.943214 
L 170.252446 64.618724 
L 57.035 64.618724 
z
" style="fill:#1f77b4;"/>
   </g>
   <g id="patch_12">
    <path clip-path="url(#p39699e0ce3)" d="M 57.035 49.13199 
L 160.687115 49.13199 
L 160.687115 38.8075 
L 57.035 38.8075 
z
" style="fill:#1f77b4;"/>
   </g>
   <g id="patch_13">
    <path clip-path="url(#p39699e0ce3)" d="M 57.035 291.7575 
L 419.473239 291.7575 
L 419.473239 281.43301 
L 57.035 281.43301 
z
" style="fill:#ff7f0e;"/>
   </g>
   <g id="patch_14">
    <path clip-path="url(#p39699e0ce3)" d="M 57.035 265.946276 
L 403.214549 265.946276 
L 403.214549 255.621786 
L 57.035 255.621786 
z
" style="fill:#ff7f0e;"/>
   </g>
   <g id="patch_15">
    <path clip-path="url(#p39699e0ce3)" d="M 57.035 240.135051 
L 378.719706 240.135051 
L 378.719706 229.810561 
L 57.035 229.810561 
z
" style="fill:#ff7f0e;"/>
   </g>
   <g id="patch_16">
    <path clip-path="url(#p39699e0ce3)" d="M 57.035 214.323827 
L 382.944591 214.323827 
L 382.944591 203.999337 
L 57.035 203.999337 
z
" style="fill:#ff7f0e;"/>
   </g>
   <g id="patch_17">
    <path clip-path="url(#p39699e0ce3)" d="M 57.035 188.512602 
L 276.918945 188.512602 
L 276.918945 178.188112 
L 57.035 178.188112 
z
" style="fill:#ff7f0e;"/>
   </g>
   <g id="patch_18">
    <path clip-path="url(#p39699e0ce3)" d="M 57.035 162.701378 
L 347.412827 162.701378 
L 347.412827 152.376888 
L 57.035 152.376888 
z
" style="fill:#ff7f0e;"/>
   </g>
   <g id="patch_19">
    <path clip-path="url(#p39699e0ce3)" d="M 57.035 136.890153 
L 255.913193 136.890153 
L 255.913193 126.565663 
L 57.035 126.565663 
z
" style="fill:#ff7f0e;"/>
   </g>
   <g id="patch_20">
    <path clip-path="url(#p39699e0ce3)" d="M 57.035 111.078929 
L 311.643709 111.078929 
L 311.643709 100.754439 
L 57.035 100.754439 
z
" style="fill:#ff7f0e;"/>
   </g>
   <g id="patch_21">
    <path clip-path="url(#p39699e0ce3)" d="M 57.035 85.267704 
L 184.707252 85.267704 
L 184.707252 74.943214 
L 57.035 74.943214 
z
" style="fill:#ff7f0e;"/>
   </g>
   <g id="patch_22">
    <path clip-path="url(#p39699e0ce3)" d="M 57.035 59.45648 
L 214.661218 59.45648 
L 214.661218 49.13199 
L 57.035 49.13199 
z
" style="fill:#ff7f0e;"/>
   </g>
   <g id="matplotlib.axis_1">
    <g id="xtick_1">
     <g id="line2d_1">
      <defs>
       <path d="M 0 0 
L 0 3.5 
" id="m4bcb21708a" style="stroke:#000000;stroke-width:0.8;"/>
      </defs>
      <g>
       <use style="stroke:#000000;stroke-width:0.8;" x="57.035" xlink:href="#m4bcb21708a" y="304.405"/>
      </g>
     </g>
     <g id="text_1">
      <!-- 0 -->
      <defs>
       <path d="M 31.84375 73.828125 
Q 45.015625 73.828125 52.09375 61.625 
Q 57.71875 51.953125 57.71875 36.625 
Q 57.71875 21.4375 52.09375 11.578125 
Q 45.125 -0.484375 31.5 -0.484375 
Q 17.921875 -0.484375 10.9375 11.578125 
Q 5.328125 21.4375 5.328125 36.71875 
Q 5.328125 58.015625 15.625 67.71875 
Q 22.171875 73.828125 31.84375 73.828125 
z
M 31.5 66.65625 
Q 23.6875 66.65625 19.1875 58.734375 
Q 14.59375 50.734375 14.59375 36.625 
Q 14.59375 22.75 19.09375 14.796875 
Q 23.640625 6.984375 31.5 6.984375 
Q 40.921875 6.984375 45.453125 18.015625 
Q 48.4375 25.34375 48.4375 37.109375 
Q 48.4375 50.875 43.84375 58.734375 
Q 39.203125 66.65625 31.5 66.65625 
z
" id="IPAexGothic-48"/>
      </defs>
      <g transform="translate(53.885781 318.895625)scale(0.1 -0.1)">
       <use xlink:href="#IPAexGothic-48"/>
      </g>
     </g>
    </g>
    <g id="xtick_2">
     <g id="line2d_2">
      <g>
       <use style="stroke:#000000;stroke-width:0.8;" x="116.373284" xlink:href="#m4bcb21708a" y="304.405"/>
      </g>
     </g>
     <g id="text_2">
      <!-- 5 -->
      <defs>
       <path d="M 18.40625 40.671875 
Q 25.53125 46.296875 33.9375 46.296875 
Q 44 46.296875 50.640625 39.5 
Q 56.84375 33.015625 56.84375 23.390625 
Q 56.84375 14.65625 51.515625 8.015625 
Q 44.828125 -0.484375 31.734375 -0.484375 
Q 14.984375 -0.484375 7.328125 12.25 
L 14.65625 16.0625 
Q 20.453125 6.78125 31.453125 6.78125 
Q 38.53125 6.78125 43.265625 11.1875 
Q 48.140625 15.828125 48.140625 23.484375 
Q 48.140625 30.71875 43.84375 35.015625 
Q 39.359375 39.5 32.125 39.5 
Q 21.96875 39.5 16.75 31.6875 
L 9.234375 32.671875 
L 13.8125 72.40625 
L 53.21875 72.40625 
L 53.21875 64.890625 
L 20.953125 64.890625 
L 17.71875 40.671875 
z
" id="IPAexGothic-53"/>
      </defs>
      <g transform="translate(113.224065 318.895625)scale(0.1 -0.1)">
       <use xlink:href="#IPAexGothic-53"/>
      </g>
     </g>
    </g>
    <g id="xtick_3">
     <g id="line2d_3">
      <g>
       <use style="stroke:#000000;stroke-width:0.8;" x="175.711568" xlink:href="#m4bcb21708a" y="304.405"/>
      </g>
     </g>
     <g id="text_3">
      <!-- 10 -->
      <defs>
       <path d="M 38.484375 0.984375 
L 29.6875 0.984375 
L 29.6875 64.109375 
Q 21.4375 61.28125 12.3125 59.328125 
L 10.6875 66.109375 
Q 23.734375 69.390625 32.90625 73.921875 
L 38.484375 73.921875 
z
" id="IPAexGothic-49"/>
      </defs>
      <g transform="translate(169.413131 318.895625)scale(0.1 -0.1)">
       <use xlink:href="#IPAexGothic-49"/>
       <use x="62.988281" xlink:href="#IPAexGothic-48"/>
      </g>
     </g>
    </g>
    <g id="xtick_4">
     <g id="line2d_4">
      <g>
       <use style="stroke:#000000;stroke-width:0.8;" x="235.049852" xlink:href="#m4bcb21708a" y="304.405"/>
      </g>
     </g>
     <g id="text_4">
      <!-- 15 -->
      <g transform="translate(228.751415 318.895625)scale(0.1 -0.1)">
       <use xlink:href="#IPAexGothic-49"/>
       <use x="62.988281" xlink:href="#IPAexGothic-53"/>
      </g>
     </g>
    </g>
    <g id="xtick_5">
     <g id="line2d_5">
      <g>
       <use style="stroke:#000000;stroke-width:0.8;" x="294.388136" xlink:href="#m4bcb21708a" y="304.405"/>
      </g>
     </g>
     <g id="text_5">
      <!-- 20 -->
      <defs>
       <path d="M 57.171875 0.984375 
L 6.984375 0.984375 
L 6.984375 9.28125 
Q 12.890625 23.046875 29.59375 34.421875 
L 32.375 36.28125 
Q 40.921875 42.140625 43.609375 45.40625 
Q 46.6875 49.265625 46.6875 53.8125 
Q 46.6875 58.9375 43.0625 62.546875 
Q 39.0625 66.546875 32.5625 66.546875 
Q 19.53125 66.546875 15.484375 52 
L 7.765625 54.78125 
Q 13.328125 73.828125 33.0625 73.828125 
Q 43.84375 73.828125 50.25 67.4375 
Q 55.859375 61.671875 55.859375 53.515625 
Q 55.859375 47.46875 52.25 42.53125 
Q 48.921875 37.75 36.96875 30.28125 
L 34.859375 29 
Q 19.625 19.578125 15.28125 8.890625 
L 57.171875 8.890625 
z
" id="IPAexGothic-50"/>
      </defs>
      <g transform="translate(288.089699 318.895625)scale(0.1 -0.1)">
       <use xlink:href="#IPAexGothic-50"/>
       <use x="62.988281" xlink:href="#IPAexGothic-48"/>
      </g>
     </g>
    </g>
    <g id="xtick_6">
     <g id="line2d_6">
      <g>
       <use style="stroke:#000000;stroke-width:0.8;" x="353.72642" xlink:href="#m4bcb21708a" y="304.405"/>
      </g>
     </g>
     <g id="text_6">
      <!-- 25 -->
      <g transform="translate(347.427983 318.895625)scale(0.1 -0.1)">
       <use xlink:href="#IPAexGothic-50"/>
       <use x="62.988281" xlink:href="#IPAexGothic-53"/>
      </g>
     </g>
    </g>
    <g id="xtick_7">
     <g id="line2d_7">
      <g>
       <use style="stroke:#000000;stroke-width:0.8;" x="413.064704" xlink:href="#m4bcb21708a" y="304.405"/>
      </g>
     </g>
     <g id="text_7">
      <!-- 30 -->
      <defs>
       <path d="M 37.203125 37.796875 
Q 54.78125 34.625 54.78125 19.96875 
Q 54.78125 11.1875 48.875 5.5625 
Q 42.328125 -0.484375 30.375 -0.484375 
Q 12.453125 -0.484375 4.5 13.765625 
L 11.8125 17.671875 
Q 17.328125 6.890625 30.28125 6.890625 
Q 37.890625 6.890625 42.09375 10.796875 
Q 46.09375 14.5 46.09375 20.171875 
Q 46.09375 26.859375 40.09375 30.90625 
Q 34.625 34.578125 25.6875 34.578125 
L 21.296875 34.578125 
L 21.296875 41.703125 
L 25.875 41.703125 
Q 34.859375 41.703125 39.59375 45.125 
Q 44.671875 48.734375 44.671875 54.828125 
Q 44.671875 61.46875 38.96875 64.65625 
Q 35.296875 66.84375 30.171875 66.84375 
Q 19.34375 66.84375 14.109375 55.90625 
L 6.78125 59.421875 
Q 14.015625 73.828125 30.28125 73.828125 
Q 40.578125 73.828125 46.96875 68.65625 
Q 53.375 63.578125 53.375 55.21875 
Q 53.375 47.3125 47.171875 42.28125 
Q 43.171875 39.0625 37.203125 38.1875 
z
" id="IPAexGothic-51"/>
      </defs>
      <g transform="translate(406.766267 318.895625)scale(0.1 -0.1)">
       <use xlink:href="#IPAexGothic-51"/>
       <use x="62.988281" xlink:href="#IPAexGothic-48"/>
      </g>
     </g>
    </g>
    <g id="text_8">
     <!-- 最短走行時間 [秒] -->
     <defs>
      <path d="M 79.78125 78.90625 
L 79.78125 51.171875 
L 20.0625 51.171875 
L 20.0625 78.90625 
z
M 27.203125 73.390625 
L 27.203125 67.671875 
L 72.75 67.671875 
L 72.75 73.390625 
z
M 27.203125 62.5 
L 27.203125 56.59375 
L 72.75 56.59375 
L 72.75 62.5 
z
M 45.703125 39.5 
L 45.703125 -7.03125 
L 39.109375 -7.03125 
L 39.109375 3.5625 
Q 29.203125 1.46875 8.203125 -1.21875 
L 6.390625 5.5625 
Q 7.671875 5.671875 9.515625 5.8125 
Q 11.328125 5.953125 11.8125 5.953125 
L 15.53125 6.296875 
L 15.53125 39.5 
L 6 39.5 
L 6 45.3125 
L 94 45.3125 
L 94 39.5 
z
M 39.109375 39.5 
L 21.875 39.5 
L 21.875 32.625 
L 39.109375 32.625 
z
M 39.109375 27.546875 
L 21.875 27.546875 
L 21.875 20.453125 
L 39.109375 20.453125 
z
M 39.109375 15.375 
L 21.875 15.375 
L 21.875 6.78125 
L 27.484375 7.375 
Q 33.734375 7.8125 39.109375 8.59375 
z
M 75.6875 9.1875 
Q 83.59375 3.515625 94.484375 -0.140625 
L 89.890625 -6.546875 
Q 79.15625 -2 71.1875 4.5 
Q 62.5 -3.765625 51.265625 -8.34375 
L 46.96875 -2.546875 
Q 58.34375 1.3125 66.609375 8.796875 
Q 58.15625 17.828125 54.109375 28.171875 
L 48.1875 28.171875 
L 48.1875 33.890625 
L 84.765625 33.890625 
L 88.375 30.671875 
Q 83.25 18.40625 76.265625 9.96875 
z
M 70.90625 13.28125 
Q 76.3125 19.921875 79.984375 28.171875 
L 60.5 28.171875 
Q 64.265625 19.921875 70.90625 13.28125 
z
" id="IPAexGothic-26368"/>
      <path d="M 30.328125 62.890625 
L 30.328125 43.3125 
L 43.609375 43.3125 
L 43.609375 37.109375 
L 30.21875 37.109375 
Q 29.984375 32.171875 29.6875 29.59375 
Q 39.109375 21.578125 46.390625 11.8125 
L 41.40625 6.109375 
Q 35.84375 14.546875 28.71875 22.3125 
Q 25 3.953125 10.40625 -7.625 
L 5.515625 -2 
Q 16.3125 6 20.703125 18.609375 
Q 22.953125 25.6875 23.4375 37.109375 
L 5.71875 37.109375 
L 5.71875 43.3125 
L 23.53125 43.3125 
L 23.53125 62.890625 
L 18.890625 62.890625 
Q 15.96875 54.046875 11.625 46.828125 
L 6.296875 51.125 
Q 13.625 63.765625 16.3125 82.8125 
L 23 81.78125 
Q 22.015625 74.703125 20.609375 69 
L 41.40625 69 
L 41.40625 62.890625 
z
M 87.203125 58.296875 
L 87.203125 29.296875 
L 47.3125 29.296875 
L 47.3125 58.296875 
z
M 54 52.09375 
L 54 35.40625 
L 80.515625 35.40625 
L 80.515625 52.09375 
z
M 69.28125 2.484375 
Q 73.6875 12.84375 77.296875 27.09375 
L 84.625 24.703125 
Q 80.328125 10.9375 76.078125 2.484375 
L 95.015625 2.484375 
L 95.015625 -4 
L 39.984375 -4 
L 39.984375 2.484375 
z
M 43.109375 75.78125 
L 92 75.78125 
L 92 69.28125 
L 43.109375 69.28125 
z
M 57.421875 4.59375 
Q 54.59375 14.84375 50.09375 24.03125 
L 56.5 26.421875 
Q 60.640625 17.96875 64.015625 7.328125 
z
" id="IPAexGothic-30701"/>
      <path d="M 53.515625 4.109375 
Q 61.328125 3.21875 72.3125 3.21875 
Q 82.078125 3.21875 95.125 3.859375 
Q 93.265625 0.640625 92.328125 -4 
Q 81.0625 -4.296875 75.4375 -4.296875 
Q 50.390625 -4.296875 40.578125 0 
Q 30.5625 4.34375 24.421875 14.0625 
Q 19.4375 2.546875 10.296875 -7.234375 
L 5.609375 -1.21875 
Q 19.1875 12.84375 23.1875 36.53125 
L 30.375 34.578125 
Q 29.046875 27.34375 27.09375 21.296875 
Q 33.34375 8.9375 46.34375 5.46875 
L 46.34375 41.21875 
L 7.078125 41.21875 
L 7.078125 47.515625 
L 45.90625 47.515625 
L 45.90625 61.1875 
L 16.015625 61.1875 
L 16.015625 67.578125 
L 45.90625 67.578125 
L 45.90625 81.984375 
L 53.421875 81.984375 
L 53.421875 67.578125 
L 83.9375 67.578125 
L 83.9375 61.1875 
L 53.421875 61.1875 
L 53.421875 47.515625 
L 92.921875 47.515625 
L 92.921875 41.21875 
L 53.515625 41.21875 
L 53.515625 27.984375 
L 83.9375 27.984375 
L 83.9375 21.578125 
L 53.515625 21.578125 
z
" id="IPAexGothic-36208"/>
      <path d="M 28.46875 43.015625 
L 28.46875 -6.984375 
L 21.140625 -6.984375 
L 21.140625 33.890625 
Q 15.09375 27.25 9.71875 22.90625 
L 4.9375 27.984375 
Q 20.21875 39.984375 30.765625 59.71875 
L 37.453125 56.78125 
Q 32.953125 49.03125 28.46875 43.015625 
z
M 77.734375 43.796875 
L 77.734375 1.609375 
Q 77.734375 -6.109375 68.265625 -6.109375 
Q 61.328125 -6.109375 52.4375 -5.328125 
L 51.375 2.484375 
Q 58.984375 1.21875 66.546875 1.21875 
Q 70.5625 1.21875 70.5625 4.984375 
L 70.5625 43.796875 
L 37.25 43.796875 
L 37.25 50.390625 
L 93.953125 50.390625 
L 93.953125 43.796875 
z
M 6 57.671875 
Q 19.234375 66.5 27.4375 79.296875 
L 33.5 75.78125 
Q 24.078125 61.671875 10.40625 52.296875 
z
M 42.328125 74.90625 
L 88.421875 74.90625 
L 88.421875 68.40625 
L 42.328125 68.40625 
z
" id="IPAexGothic-34892"/>
      <path d="M 36.375 73.875 
L 36.375 8.796875 
L 14.59375 8.796875 
L 14.59375 0.875 
L 8.109375 0.875 
L 8.109375 73.875 
z
M 14.59375 67.671875 
L 14.59375 45.015625 
L 29.78125 45.015625 
L 29.78125 67.671875 
z
M 14.59375 39.015625 
L 14.59375 14.890625 
L 29.78125 14.890625 
L 29.78125 39.015625 
z
M 61.53125 68.3125 
L 61.53125 83.015625 
L 68.40625 83.015625 
L 68.40625 68.3125 
L 90.1875 68.3125 
L 90.1875 62.203125 
L 68.40625 62.203125 
L 68.40625 49.90625 
L 94.875 49.90625 
L 94.875 43.796875 
L 81.296875 43.796875 
L 81.296875 31.984375 
L 93.109375 31.984375 
L 93.109375 25.78125 
L 81.5 25.78125 
L 81.5 0.484375 
Q 81.5 -6.984375 73.296875 -6.984375 
Q 68.65625 -6.984375 60.75 -6.109375 
L 59.125 1.21875 
Q 66.75 0 71.734375 0 
Q 74.609375 0 74.609375 2.6875 
L 74.609375 25.78125 
L 40.328125 25.78125 
L 40.328125 31.984375 
L 74.421875 31.984375 
L 74.421875 43.796875 
L 39.65625 43.796875 
L 39.65625 49.90625 
L 61.53125 49.90625 
L 61.53125 62.203125 
L 42.4375 62.203125 
L 42.4375 68.3125 
z
M 57.328125 6 
Q 52.046875 14.84375 46.1875 20.703125 
L 51.421875 24.609375 
Q 58.109375 17.921875 62.890625 10.296875 
z
" id="IPAexGothic-26178"/>
      <path d="M 69.53125 40.09375 
L 69.53125 5.515625 
L 37.109375 5.515625 
L 37.109375 -0.390625 
L 30.515625 -0.390625 
L 30.515625 40.09375 
z
M 62.9375 34.375 
L 37.109375 34.375 
L 37.109375 25.828125 
L 62.9375 25.828125 
z
M 62.9375 20.3125 
L 37.109375 20.3125 
L 37.109375 11.234375 
L 62.9375 11.234375 
z
M 45.515625 78.421875 
L 45.515625 47.796875 
L 16.5 47.796875 
L 16.5 -6.984375 
L 9.515625 -6.984375 
L 9.515625 78.421875 
z
M 16.5 72.796875 
L 16.5 65.71875 
L 39.015625 65.71875 
L 39.015625 72.796875 
z
M 16.5 60.640625 
L 16.5 53.328125 
L 39.015625 53.328125 
L 39.015625 60.640625 
z
M 90.4375 78.421875 
L 90.4375 1.421875 
Q 90.4375 -3.515625 88.140625 -5.171875 
Q 86.328125 -6.390625 81.734375 -6.390625 
Q 75.046875 -6.390625 70.015625 -5.71875 
L 69.046875 1.515625 
Q 75.828125 0.59375 80.125 0.59375 
Q 83.453125 0.59375 83.453125 3.8125 
L 83.453125 47.796875 
L 53.71875 47.796875 
L 53.71875 78.421875 
z
M 60.203125 72.796875 
L 60.203125 65.71875 
L 83.453125 65.71875 
L 83.453125 72.796875 
z
M 60.203125 60.640625 
L 60.203125 53.328125 
L 83.453125 53.328125 
L 83.453125 60.640625 
z
" id="IPAexGothic-38291"/>
      <path id="IPAexGothic-32"/>
      <path d="M 26.65625 -15.484375 
L 9.078125 -15.484375 
L 9.078125 74.21875 
L 26.65625 74.21875 
L 26.65625 69.34375 
L 16.0625 69.34375 
L 16.0625 -10.59375 
L 26.65625 -10.59375 
z
" id="IPAexGothic-91"/>
      <path d="M 21.09375 36.859375 
Q 15.578125 20.5625 8.015625 10.296875 
L 4.109375 16.890625 
Q 14.84375 31.390625 20.125 48.875 
L 5.71875 48.875 
L 5.71875 55.171875 
L 21.09375 55.171875 
L 21.09375 68.75 
L 18.796875 68.359375 
Q 13.234375 67.28125 8.984375 66.65625 
L 5.71875 72.5625 
Q 23.6875 75.140625 36.859375 80.375 
L 41.890625 74.171875 
Q 35.15625 71.96875 27.875 70.265625 
L 27.875 55.171875 
L 42 55.171875 
L 42 48.875 
L 27.875 48.875 
L 27.875 40.28125 
Q 36.03125 33.6875 42.484375 26.46875 
L 38.1875 19.484375 
Q 32.90625 27 27.875 32.375 
L 27.875 -7.03125 
L 21.09375 -7.03125 
z
M 63.8125 82.8125 
L 70.703125 82.8125 
L 70.703125 26.90625 
Q 70.703125 20.015625 63.234375 20.015625 
Q 58.015625 20.015625 53.125 20.703125 
L 52 27.875 
Q 57.28125 27 61.140625 27 
Q 63.8125 27 63.8125 29.78125 
z
M 89.3125 36.28125 
Q 81.734375 53.71875 74.03125 65.578125 
L 80.078125 68.703125 
Q 89.359375 54.9375 95.609375 41.21875 
z
M 40.28125 35.6875 
Q 47.21875 47.703125 50.78125 66.609375 
L 57.71875 64.890625 
Q 54.25 44.484375 46.09375 30.71875 
z
M 40.375 -1.609375 
Q 53.328125 2.59375 61.1875 8.203125 
Q 75.25 18.0625 82.90625 36.8125 
L 89.40625 33.015625 
Q 81.34375 14.65625 68.40625 4.390625 
Q 58.984375 -3.078125 45.125 -7.90625 
z
" id="IPAexGothic-31186"/>
      <path d="M 20.65625 -15.484375 
L 3.078125 -15.484375 
L 3.078125 -10.59375 
L 13.671875 -10.59375 
L 13.671875 69.34375 
L 3.078125 69.34375 
L 3.078125 74.21875 
L 20.65625 74.21875 
z
" id="IPAexGothic-93"/>
     </defs>
     <g transform="translate(213.67504 332.745625)scale(0.1 -0.1)">
      <use xlink:href="#IPAexGothic-26368"/>
      <use x="100" xlink:href="#IPAexGothic-30701"/>
      <use x="200" xlink:href="#IPAexGothic-36208"/>
      <use x="300" xlink:href="#IPAexGothic-34892"/>
      <use x="400" xlink:href="#IPAexGothic-26178"/>
      <use x="500" xlink:href="#IPAexGothic-38291"/>
      <use x="600" xlink:href="#IPAexGothic-32"/>
      <use x="627.001953" xlink:href="#IPAexGothic-91"/>
      <use x="656.982422" xlink:href="#IPAexGothic-31186"/>
      <use x="756.982422" xlink:href="#IPAexGothic-93"/>
     </g>
    </g>
   </g>
   <g id="matplotlib.axis_2">
    <g id="ytick_1">
     <g id="line2d_8">
      <defs>
       <path d="M 0 0 
L -3.5 0 
" id="m4ae936ef3b" style="stroke:#000000;stroke-width:0.8;"/>
      </defs>
      <g>
       <use style="stroke:#000000;stroke-width:0.8;" x="57.035" xlink:href="#m4ae936ef3b" y="281.43301"/>
      </g>
     </g>
     <g id="text_9">
      <!-- 2019 -->
      <defs>
       <path d="M 46.625 36.8125 
Q 39.75 26.8125 28.328125 26.8125 
Q 19.578125 26.8125 13.234375 32.125 
Q 5.71875 38.421875 5.71875 49.421875 
Q 5.71875 59.578125 12.015625 66.65625 
Q 18.453125 73.828125 29.203125 73.828125 
Q 43.75 73.828125 50.640625 61.71875 
Q 55.609375 52.78125 55.609375 38.625 
Q 55.609375 19.53125 47.515625 9.1875 
Q 39.890625 -0.484375 27.640625 -0.484375 
Q 13.421875 -0.484375 6.109375 10.984375 
L 13.328125 14.890625 
Q 18.0625 6.6875 27.390625 6.6875 
Q 45.65625 6.6875 47.015625 36.8125 
z
M 29.5 66.84375 
Q 22.65625 66.84375 18.3125 61.71875 
Q 14.40625 57.078125 14.40625 50 
Q 14.40625 42.828125 18.109375 38.71875 
Q 22.40625 33.796875 29.78125 33.796875 
Q 37.984375 33.796875 42.625 40.1875 
Q 45.703125 44.484375 45.703125 49.515625 
Q 45.703125 55.515625 42.09375 60.359375 
Q 37.109375 66.84375 29.5 66.84375 
z
" id="IPAexGothic-57"/>
      </defs>
      <g transform="translate(24.84125 285.178323)scale(0.1 -0.1)">
       <use xlink:href="#IPAexGothic-50"/>
       <use x="62.988281" xlink:href="#IPAexGothic-48"/>
       <use x="125.976562" xlink:href="#IPAexGothic-49"/>
       <use x="188.964844" xlink:href="#IPAexGothic-57"/>
      </g>
     </g>
    </g>
    <g id="ytick_2">
     <g id="line2d_9">
      <g>
       <use style="stroke:#000000;stroke-width:0.8;" x="57.035" xlink:href="#m4ae936ef3b" y="255.621786"/>
      </g>
     </g>
     <g id="text_10">
      <!-- 2018 -->
      <defs>
       <path d="M 39.703125 37.890625 
Q 57.8125 31.734375 57.8125 18.703125 
Q 57.8125 8.453125 48.4375 3.078125 
Q 41.609375 -0.875 31.5 -0.875 
Q 21.34375 -0.875 14.5 3.078125 
Q 5.421875 8.296875 5.421875 18.40625 
Q 5.421875 31.0625 22.015625 37.203125 
L 22.015625 37.5 
Q 7.515625 42.71875 7.515625 54.828125 
Q 7.515625 64.0625 15.328125 69.625 
Q 21.96875 74.3125 31.546875 74.3125 
Q 42.234375 74.3125 48.921875 68.796875 
Q 55.515625 63.578125 55.515625 55.71875 
Q 55.515625 42.28125 39.703125 38.1875 
z
M 31.59375 41.015625 
Q 46.828125 44.625 46.828125 55.125 
Q 46.828125 61.1875 41.796875 64.84375 
Q 37.703125 67.921875 31.5 67.921875 
Q 25.09375 67.921875 20.796875 64.5 
Q 16.40625 60.890625 16.40625 55.03125 
Q 16.40625 49.21875 21.09375 45.703125 
Q 23.34375 43.890625 26.90625 42.53125 
Q 31 40.875 31.59375 41.015625 
z
M 30.90625 34.515625 
Q 14.40625 30.171875 14.40625 19 
Q 14.40625 12.109375 20.515625 8.6875 
Q 25.09375 6.109375 31.390625 6.109375 
Q 40.234375 6.109375 45.015625 10.890625 
Q 48.53125 14.40625 48.53125 19.53125 
Q 48.53125 24.90625 43.65625 28.90625 
Q 40.765625 31.15625 36.71875 32.8125 
Q 31.984375 34.71875 30.90625 34.515625 
z
" id="IPAexGothic-56"/>
      </defs>
      <g transform="translate(24.84125 259.367098)scale(0.1 -0.1)">
       <use xlink:href="#IPAexGothic-50"/>
       <use x="62.988281" xlink:href="#IPAexGothic-48"/>
       <use x="125.976562" xlink:href="#IPAexGothic-49"/>
       <use x="188.964844" xlink:href="#IPAexGothic-56"/>
      </g>
     </g>
    </g>
    <g id="ytick_3">
     <g id="line2d_10">
      <g>
       <use style="stroke:#000000;stroke-width:0.8;" x="57.035" xlink:href="#m4ae936ef3b" y="229.810561"/>
      </g>
     </g>
     <g id="text_11">
      <!-- 2017 -->
      <defs>
       <path d="M 56.203125 66.609375 
Q 34.96875 32.90625 27.78125 0.984375 
L 17.671875 0.984375 
Q 24.703125 28.65625 46.09375 64.5 
L 6.6875 64.5 
L 6.6875 72.40625 
L 56.203125 72.40625 
z
" id="IPAexGothic-55"/>
      </defs>
      <g transform="translate(24.84125 233.555874)scale(0.1 -0.1)">
       <use xlink:href="#IPAexGothic-50"/>
       <use x="62.988281" xlink:href="#IPAexGothic-48"/>
       <use x="125.976562" xlink:href="#IPAexGothic-49"/>
       <use x="188.964844" xlink:href="#IPAexGothic-55"/>
      </g>
     </g>
    </g>
    <g id="ytick_4">
     <g id="line2d_11">
      <g>
       <use style="stroke:#000000;stroke-width:0.8;" x="57.035" xlink:href="#m4ae936ef3b" y="203.999337"/>
      </g>
     </g>
     <g id="text_12">
      <!-- 2016 -->
      <defs>
       <path d="M 16.5 36.375 
Q 23.578125 46.578125 34.90625 46.578125 
Q 45.40625 46.578125 51.8125 39.265625 
Q 57.421875 32.90625 57.421875 23.78125 
Q 57.421875 13.8125 51.125 6.78125 
Q 44.578125 -0.484375 34.03125 -0.484375 
Q 21.484375 -0.484375 14.40625 9.078125 
Q 7.515625 18.40625 7.515625 34.8125 
Q 7.515625 53.515625 15.828125 64.203125 
Q 23.34375 73.828125 35.5 73.828125 
Q 49.859375 73.828125 56.390625 62.890625 
L 49.21875 58.984375 
Q 45.21875 66.65625 35.9375 66.65625 
Q 17.484375 66.65625 16.109375 36.375 
z
M 33.453125 39.796875 
Q 26.3125 39.796875 21.625 34.46875 
Q 17.4375 29.6875 17.4375 24.078125 
Q 17.4375 18.0625 21.140625 13.1875 
Q 26.125 6.6875 33.734375 6.6875 
Q 41.703125 6.6875 45.953125 13.1875 
Q 48.828125 17.625 48.828125 23.484375 
Q 48.828125 30.375 45.015625 34.8125 
Q 40.625 39.796875 33.453125 39.796875 
z
" id="IPAexGothic-54"/>
      </defs>
      <g transform="translate(24.84125 207.744649)scale(0.1 -0.1)">
       <use xlink:href="#IPAexGothic-50"/>
       <use x="62.988281" xlink:href="#IPAexGothic-48"/>
       <use x="125.976562" xlink:href="#IPAexGothic-49"/>
       <use x="188.964844" xlink:href="#IPAexGothic-54"/>
      </g>
     </g>
    </g>
    <g id="ytick_5">
     <g id="line2d_12">
      <g>
       <use style="stroke:#000000;stroke-width:0.8;" x="57.035" xlink:href="#m4ae936ef3b" y="178.188112"/>
      </g>
     </g>
     <g id="text_13">
      <!-- 2015 -->
      <g transform="translate(24.84125 181.933425)scale(0.1 -0.1)">
       <use xlink:href="#IPAexGothic-50"/>
       <use x="62.988281" xlink:href="#IPAexGothic-48"/>
       <use x="125.976562" xlink:href="#IPAexGothic-49"/>
       <use x="188.964844" xlink:href="#IPAexGothic-53"/>
      </g>
     </g>
    </g>
    <g id="ytick_6">
     <g id="line2d_13">
      <g>
       <use style="stroke:#000000;stroke-width:0.8;" x="57.035" xlink:href="#m4ae936ef3b" y="152.376888"/>
      </g>
     </g>
     <g id="text_14">
      <!-- 2014 -->
      <defs>
       <path d="M 59.578125 18.109375 
L 47.796875 18.109375 
L 47.796875 0.984375 
L 39.796875 0.984375 
L 39.796875 18.109375 
L 3.078125 18.109375 
L 3.078125 26.125 
L 38.375 73.09375 
L 47.796875 73.09375 
L 47.796875 25.53125 
L 59.578125 25.53125 
z
M 40.28125 64.203125 
L 39.984375 64.203125 
Q 35.59375 57.125 31.296875 51.3125 
L 11.859375 25.53125 
L 39.796875 25.53125 
L 39.796875 49.125 
Q 39.796875 54.390625 40.28125 64.203125 
z
" id="IPAexGothic-52"/>
      </defs>
      <g transform="translate(24.84125 156.1222)scale(0.1 -0.1)">
       <use xlink:href="#IPAexGothic-50"/>
       <use x="62.988281" xlink:href="#IPAexGothic-48"/>
       <use x="125.976562" xlink:href="#IPAexGothic-49"/>
       <use x="188.964844" xlink:href="#IPAexGothic-52"/>
      </g>
     </g>
    </g>
    <g id="ytick_7">
     <g id="line2d_14">
      <g>
       <use style="stroke:#000000;stroke-width:0.8;" x="57.035" xlink:href="#m4ae936ef3b" y="126.565663"/>
      </g>
     </g>
     <g id="text_15">
      <!-- 2013 -->
      <g transform="translate(24.84125 130.310976)scale(0.1 -0.1)">
       <use xlink:href="#IPAexGothic-50"/>
       <use x="62.988281" xlink:href="#IPAexGothic-48"/>
       <use x="125.976562" xlink:href="#IPAexGothic-49"/>
       <use x="188.964844" xlink:href="#IPAexGothic-51"/>
      </g>
     </g>
    </g>
    <g id="ytick_8">
     <g id="line2d_15">
      <g>
       <use style="stroke:#000000;stroke-width:0.8;" x="57.035" xlink:href="#m4ae936ef3b" y="100.754439"/>
      </g>
     </g>
     <g id="text_16">
      <!-- 2012 -->
      <g transform="translate(24.84125 104.499751)scale(0.1 -0.1)">
       <use xlink:href="#IPAexGothic-50"/>
       <use x="62.988281" xlink:href="#IPAexGothic-48"/>
       <use x="125.976562" xlink:href="#IPAexGothic-49"/>
       <use x="188.964844" xlink:href="#IPAexGothic-50"/>
      </g>
     </g>
    </g>
    <g id="ytick_9">
     <g id="line2d_16">
      <g>
       <use style="stroke:#000000;stroke-width:0.8;" x="57.035" xlink:href="#m4ae936ef3b" y="74.943214"/>
      </g>
     </g>
     <g id="text_17">
      <!-- 2011 -->
      <g transform="translate(24.84125 78.688527)scale(0.1 -0.1)">
       <use xlink:href="#IPAexGothic-50"/>
       <use x="62.988281" xlink:href="#IPAexGothic-48"/>
       <use x="125.976562" xlink:href="#IPAexGothic-49"/>
       <use x="188.964844" xlink:href="#IPAexGothic-49"/>
      </g>
     </g>
    </g>
    <g id="ytick_10">
     <g id="line2d_17">
      <g>
       <use style="stroke:#000000;stroke-width:0.8;" x="57.035" xlink:href="#m4ae936ef3b" y="49.13199"/>
      </g>
     </g>
     <g id="text_18">
      <!-- 2010 -->
      <g transform="translate(24.84125 52.877302)scale(0.1 -0.1)">
       <use xlink:href="#IPAexGothic-50"/>
       <use x="62.988281" xlink:href="#IPAexGothic-48"/>
       <use x="125.976562" xlink:href="#IPAexGothic-49"/>
       <use x="188.964844" xlink:href="#IPAexGothic-48"/>
      </g>
     </g>
    </g>
    <g id="text_19">
     <!-- 全日本マイクロマウス大会 32x32迷路 [年] -->
     <defs>
      <path d="M 53.375 43.40625 
L 53.375 27.296875 
L 82.5625 27.296875 
L 82.5625 20.90625 
L 53.375 20.90625 
L 53.375 2.875 
L 91.546875 2.875 
L 91.546875 -3.609375 
L 8.546875 -3.609375 
L 8.546875 2.875 
L 45.953125 2.875 
L 45.953125 20.90625 
L 17.4375 20.90625 
L 17.4375 27.296875 
L 45.953125 27.296875 
L 45.953125 43.40625 
L 26.03125 43.40625 
L 26.03125 48.296875 
Q 18.5625 42.875 9.328125 38.625 
L 4.9375 44.484375 
Q 31.34375 55.765625 45.125 81.203125 
L 53.765625 81.203125 
Q 70.171875 58.796875 95.5625 47.515625 
L 90.875 40.921875 
Q 66.109375 53.328125 49.5625 74.609375 
Q 40.671875 59.90625 27.9375 49.703125 
L 75.046875 49.703125 
L 75.046875 43.40625 
z
" id="IPAexGothic-20840"/>
      <path d="M 81.734375 75 
L 81.734375 -4.5 
L 74.125 -4.5 
L 74.125 2 
L 25.734375 2 
L 25.734375 -4.5 
L 18.109375 -4.5 
L 18.109375 75 
z
M 25.734375 68.3125 
L 25.734375 42.671875 
L 74.125 42.671875 
L 74.125 68.3125 
z
M 25.734375 35.890625 
L 25.734375 8.6875 
L 74.125 8.6875 
L 74.125 35.890625 
z
" id="IPAexGothic-26085"/>
      <path d="M 55.90625 54.109375 
Q 70.21875 29.734375 94.625 16.40625 
L 89.015625 9.375 
Q 64.796875 25.296875 53.265625 48.1875 
L 53.265625 19.390625 
L 69.828125 19.390625 
L 69.828125 12.890625 
L 53.515625 12.890625 
L 53.515625 -6.390625 
L 45.90625 -6.390625 
L 45.90625 12.890625 
L 29.6875 12.890625 
L 29.6875 19.390625 
L 46.09375 19.390625 
L 46.09375 47.40625 
Q 35.75 23.640625 11.8125 6.296875 
L 5.90625 12.40625 
Q 29.984375 26.609375 43.5 54.109375 
L 7.515625 54.109375 
L 7.515625 60.984375 
L 45.90625 60.984375 
L 45.90625 81.390625 
L 53.515625 81.390625 
L 53.515625 60.984375 
L 92.53125 60.984375 
L 92.53125 54.109375 
z
" id="IPAexGothic-26412"/>
      <path d="M 84.71875 64.40625 
L 89.109375 59.71875 
Q 72.796875 38.921875 52.9375 22.609375 
Q 59.625 15.53125 66.109375 7.8125 
L 59.328125 1.90625 
Q 44.78125 21.578125 26.421875 36.28125 
L 32.328125 41.3125 
Q 38.765625 36.28125 47.796875 27.6875 
Q 65.046875 42.234375 76.421875 56.890625 
L 11.625 56.296875 
L 11.625 63.8125 
z
" id="IPAexGothic-12510"/>
      <path d="M 48.921875 -3.609375 
L 48.921875 44.921875 
Q 32.671875 32.625 17.28125 25.875 
L 12.203125 32.171875 
Q 47.125 46.875 69.828125 76.8125 
L 76.8125 72.515625 
Q 68.5 61.53125 57.421875 51.8125 
L 57.421875 -3.609375 
z
" id="IPAexGothic-12452"/>
      <path d="M 77.09375 65.484375 
L 82.375 61.578125 
Q 76.46875 36.46875 62.984375 20.3125 
Q 51.171875 6.109375 31.6875 -3.515625 
L 25.875 2.875 
Q 44.921875 10.796875 56.890625 25.390625 
Q 68.796875 39.890625 73.296875 58.296875 
L 45.359375 58.296875 
Q 34.1875 41.453125 21.1875 30.609375 
L 15.28125 36.078125 
Q 36.375 53.125 45.796875 78.46875 
L 53.46875 76.265625 
Q 52.546875 73 49.078125 65.484375 
z
" id="IPAexGothic-12463"/>
      <path d="M 17.921875 66.703125 
L 82.03125 66.703125 
L 82.03125 2.6875 
L 73.828125 2.6875 
L 73.828125 8.890625 
L 26.125 8.890625 
L 26.125 2.6875 
L 17.921875 2.6875 
z
M 26.125 59.078125 
L 26.125 16.609375 
L 73.828125 16.609375 
L 73.828125 59.078125 
z
" id="IPAexGothic-12525"/>
      <path d="M 44.78125 77.828125 
L 52.984375 77.828125 
L 52.984375 61.921875 
L 77.984375 61.921875 
L 82.765625 58.015625 
Q 80.21875 30.765625 68.453125 16.3125 
Q 58.109375 3.375 39.0625 -3.421875 
L 33.296875 3.515625 
Q 53.265625 9.328125 63.375 22.90625 
Q 71.734375 34.328125 73.96875 54.5 
L 24.8125 54.5 
L 24.8125 32.078125 
L 16.796875 32.078125 
L 16.796875 61.921875 
L 44.78125 61.921875 
z
" id="IPAexGothic-12454"/>
      <path d="M 68.109375 70.015625 
L 73.6875 64.796875 
Q 67.625 48 56.984375 33.59375 
Q 72.796875 22.40625 88.421875 7.078125 
L 81.78125 0.296875 
Q 66.5 17 52.390625 27.78125 
Q 37.0625 9.328125 16.3125 -0.484375 
L 10.203125 6.296875 
Q 48.875 22.703125 64.015625 62.5 
L 19.390625 61.921875 
L 19.1875 69.578125 
z
" id="IPAexGothic-12473"/>
      <path d="M 55.125 49.703125 
Q 64.84375 18.703125 93.796875 4.296875 
L 88.234375 -2.875 
Q 60.796875 12.984375 50.921875 41.890625 
Q 45.21875 10.0625 13.625 -5.375 
L 8.015625 1.515625 
Q 26.21875 8.25 36.625 24.03125 
Q 43.5 34.671875 45.3125 49.703125 
L 7.515625 49.703125 
L 7.515625 56.6875 
L 45.703125 56.6875 
L 45.703125 80.46875 
L 53.609375 80.46875 
L 53.609375 56.6875 
L 92.53125 56.6875 
L 92.53125 49.703125 
z
" id="IPAexGothic-22823"/>
      <path d="M 29.109375 51.125 
L 72.515625 51.125 
L 72.515625 44.734375 
L 27.484375 44.734375 
L 27.484375 49.90625 
Q 27.09375 49.609375 25.59375 48.640625 
Q 19.34375 44 9.28125 39.015625 
L 4.5 44.734375 
Q 30.609375 56.203125 45.21875 80.421875 
L 53.609375 80.421875 
Q 67.828125 59.125 95.796875 47.609375 
L 91.015625 41.109375 
Q 63.484375 54.640625 49.609375 73.921875 
Q 41.453125 60.640625 29.109375 51.125 
z
M 44.09375 26.609375 
Q 39.546875 15.578125 33.109375 5.03125 
L 37.3125 5.328125 
Q 52.59375 6.390625 67.578125 7.90625 
L 72.515625 8.40625 
Q 65.140625 16.0625 60.296875 20.40625 
L 65.765625 24.21875 
Q 79.5 12.453125 90.28125 -0.484375 
L 84.1875 -5.46875 
Q 80.5625 -0.78125 77 3.421875 
L 75.484375 3.21875 
Q 48.53125 -0.828125 13.1875 -3.71875 
L 10.6875 3.609375 
Q 12.75 3.71875 18.609375 4.109375 
L 25.484375 4.5 
Q 31.59375 14.59375 36.28125 26.609375 
L 10.015625 26.609375 
L 10.015625 33.203125 
L 89.984375 33.203125 
L 89.984375 26.609375 
z
" id="IPAexGothic-20250"/>
      <path d="M 47.65625 0.984375 
L 37.796875 0.984375 
L 24.171875 20.90625 
L 10.796875 0.984375 
L 0.875 0.984375 
L 19.484375 26.171875 
L 1.65625 50.78125 
L 11.671875 50.78125 
L 24.65625 31.5 
L 37.703125 50.78125 
L 47.171875 50.78125 
L 29.296875 26.265625 
z
" id="IPAexGothic-120"/>
      <path d="M 67.53125 44.09375 
Q 78.421875 29.828125 93.5 20.3125 
L 88.140625 14.109375 
Q 73.96875 25.390625 65.234375 38.28125 
L 65.234375 5.515625 
L 58.34375 5.515625 
L 58.34375 37.703125 
Q 49.953125 22.5625 36.328125 12.3125 
L 31.15625 18.109375 
Q 45.65625 26.90625 56.0625 44.09375 
L 31.546875 44.09375 
L 31.546875 50.296875 
L 58.34375 50.296875 
L 58.34375 81.5 
L 65.234375 81.5 
L 65.234375 50.296875 
L 92.921875 50.296875 
L 92.921875 44.09375 
z
M 26.703125 11.671875 
Q 30.765625 6.453125 37.015625 4.203125 
Q 44.484375 1.609375 61.921875 1.609375 
Q 75.984375 1.609375 96 2.875 
Q 94.140625 -0.6875 93.40625 -4.59375 
Q 77.25 -5.171875 68.40625 -5.171875 
Q 43.609375 -5.171875 34.515625 -1.65625 
Q 27.875 0.78125 23.828125 6.390625 
Q 17.625 -1.078125 10.203125 -6.890625 
L 5.8125 0.390625 
Q 14.203125 5.609375 19.921875 10.6875 
L 19.921875 35.984375 
L 5.90625 35.984375 
L 5.90625 42.671875 
L 26.703125 42.671875 
z
M 23.875 58.984375 
Q 16.359375 68.21875 8.796875 73.875 
L 13.71875 79 
Q 23.296875 71.4375 29.203125 64.5 
z
M 45.40625 54.296875 
Q 40.96875 65.046875 34.90625 72.796875 
L 41.21875 76.515625 
Q 47.796875 67.4375 52.09375 57.8125 
z
M 70.21875 57.71875 
Q 76.515625 66.015625 81.203125 77 
L 88.1875 73.578125 
Q 82.46875 62.3125 76.3125 54.390625 
z
" id="IPAexGothic-36855"/>
      <path d="M 86.921875 30.328125 
L 86.921875 -6.984375 
L 80.21875 -6.984375 
L 80.21875 -1.90625 
L 56.6875 -1.90625 
L 56.6875 -6.984375 
L 49.90625 -6.984375 
L 49.90625 28.609375 
Q 45.90625 26.3125 43.609375 25.09375 
L 39.703125 29.9375 
L 39.703125 27.6875 
L 29 27.6875 
L 29 7.625 
Q 29.15625 7.671875 29.640625 7.765625 
Q 30.171875 7.90625 30.515625 8.015625 
Q 31.59375 8.40625 34.1875 9.234375 
Q 40.140625 11.140625 43.796875 12.40625 
L 44.1875 6.390625 
Q 27.875 -0.046875 7.28125 -5.609375 
L 4.5 1.21875 
Q 5.28125 1.375 7.171875 1.8125 
Q 8.546875 2.15625 9.28125 2.296875 
L 9.28125 39.3125 
L 15.671875 39.3125 
L 15.671875 3.90625 
L 17.484375 4.296875 
Q 18.953125 4.6875 20.65625 5.171875 
Q 22.515625 5.671875 22.609375 5.71875 
L 22.609375 47.609375 
L 8.59375 47.609375 
L 8.59375 77.875 
L 40.09375 77.875 
L 40.09375 47.609375 
L 29 47.609375 
L 29 33.59375 
L 39.703125 33.59375 
L 39.703125 30.90625 
Q 54.640625 37.84375 64.796875 48.296875 
Q 59.515625 54.203125 56.109375 60.015625 
Q 51.609375 52.734375 45.21875 46.484375 
L 40.875 51.421875 
Q 54.109375 64.890625 58.40625 82.671875 
L 65.09375 80.859375 
Q 64.59375 79.25 63.28125 75.09375 
L 84.03125 75.09375 
L 87.40625 72.265625 
Q 81.15625 58.109375 73.921875 49.125 
L 73.390625 48.484375 
Q 83.640625 39.59375 96.625 34.078125 
L 92.234375 27.296875 
Q 78.125 35.296875 69.28125 43.703125 
Q 61.96875 36.234375 52.78125 30.328125 
z
M 56.6875 24.3125 
L 56.6875 4.109375 
L 80.21875 4.109375 
L 80.21875 24.3125 
z
M 60.890625 69.09375 
L 60.59375 68.40625 
Q 59.8125 66.609375 59.375 65.765625 
Q 63.09375 59.125 68.796875 53.03125 
Q 74.5625 60.296875 78.328125 69.09375 
z
M 15.09375 71.875 
L 15.09375 53.609375 
L 33.59375 53.609375 
L 33.59375 71.875 
z
" id="IPAexGothic-36335"/>
      <path d="M 27.6875 64.984375 
Q 22.5625 53.46875 13.671875 43.796875 
L 8.25 49.46875 
Q 20.65625 61.578125 25.484375 82.171875 
L 32.953125 80.5625 
Q 31.15625 74.359375 30.171875 71.296875 
L 88.96875 71.296875 
L 88.96875 64.984375 
L 58.6875 64.984375 
L 58.6875 48.875 
L 84.90625 48.875 
L 84.90625 42.578125 
L 58.6875 42.578125 
L 58.6875 23.578125 
L 94.96875 23.578125 
L 94.96875 17.09375 
L 58.6875 17.09375 
L 58.6875 -7.03125 
L 51.171875 -7.03125 
L 51.171875 17.09375 
L 6.984375 17.09375 
L 6.984375 23.578125 
L 23.96875 23.578125 
L 23.96875 48.875 
L 51.171875 48.875 
L 51.171875 64.984375 
z
M 51.171875 42.578125 
L 31.15625 42.578125 
L 31.15625 23.578125 
L 51.171875 23.578125 
z
" id="IPAexGothic-24180"/>
     </defs>
     <g transform="translate(18.94125 261.021562)rotate(-90)scale(0.1 -0.1)">
      <use xlink:href="#IPAexGothic-20840"/>
      <use x="100" xlink:href="#IPAexGothic-26085"/>
      <use x="200" xlink:href="#IPAexGothic-26412"/>
      <use x="300" xlink:href="#IPAexGothic-12510"/>
      <use x="400" xlink:href="#IPAexGothic-12452"/>
      <use x="500" xlink:href="#IPAexGothic-12463"/>
      <use x="600" xlink:href="#IPAexGothic-12525"/>
      <use x="700" xlink:href="#IPAexGothic-12510"/>
      <use x="800" xlink:href="#IPAexGothic-12454"/>
      <use x="900" xlink:href="#IPAexGothic-12473"/>
      <use x="1000" xlink:href="#IPAexGothic-22823"/>
      <use x="1100" xlink:href="#IPAexGothic-20250"/>
      <use x="1200" xlink:href="#IPAexGothic-32"/>
      <use x="1227.001953" xlink:href="#IPAexGothic-51"/>
      <use x="1289.990234" xlink:href="#IPAexGothic-50"/>
      <use x="1352.978516" xlink:href="#IPAexGothic-120"/>
      <use x="1401.855469" xlink:href="#IPAexGothic-51"/>
      <use x="1464.84375" xlink:href="#IPAexGothic-50"/>
      <use x="1527.832031" xlink:href="#IPAexGothic-36855"/>
      <use x="1627.832031" xlink:href="#IPAexGothic-36335"/>
      <use x="1727.832031" xlink:href="#IPAexGothic-32"/>
      <use x="1754.833984" xlink:href="#IPAexGothic-91"/>
      <use x="1784.814453" xlink:href="#IPAexGothic-24180"/>
      <use x="1884.814453" xlink:href="#IPAexGothic-93"/>
     </g>
    </g>
   </g>
   <g id="patch_23">
    <path d="M 57.035 304.405 
L 57.035 26.16 
" style="fill:none;stroke:#000000;stroke-linecap:square;stroke-linejoin:miter;stroke-width:0.8;"/>
   </g>
   <g id="patch_24">
    <path d="M 449.011956 304.405 
L 449.011956 26.16 
" style="fill:none;stroke:#000000;stroke-linecap:square;stroke-linejoin:miter;stroke-width:0.8;"/>
   </g>
   <g id="patch_25">
    <path d="M 57.035 304.405 
L 449.011956 304.405 
" style="fill:none;stroke:#000000;stroke-linecap:square;stroke-linejoin:miter;stroke-width:0.8;"/>
   </g>
   <g id="patch_26">
    <path d="M 57.035 26.16 
L 449.011956 26.16 
" style="fill:none;stroke:#000000;stroke-linecap:square;stroke-linejoin:miter;stroke-width:0.8;"/>
   </g>
   <g id="text_20">
    <!-- 30.54 -->
    <defs>
     <path d="M 18.5 0.984375 
L 7.71875 0.984375 
L 7.71875 11.765625 
L 18.5 11.765625 
z
" id="IPAexGothic-46"/>
    </defs>
    <g transform="translate(419.473239 289.390568)scale(0.1 -0.1)">
     <use xlink:href="#IPAexGothic-51"/>
     <use x="62.988281" xlink:href="#IPAexGothic-48"/>
     <use x="125.976562" xlink:href="#IPAexGothic-46"/>
     <use x="152.392578" xlink:href="#IPAexGothic-53"/>
     <use x="215.380859" xlink:href="#IPAexGothic-52"/>
    </g>
   </g>
   <g id="text_21">
    <!-- 24.432 -->
    <g transform="translate(346.985591 279.066078)scale(0.1 -0.1)">
     <use xlink:href="#IPAexGothic-50"/>
     <use x="62.988281" xlink:href="#IPAexGothic-52"/>
     <use x="125.976562" xlink:href="#IPAexGothic-46"/>
     <use x="152.392578" xlink:href="#IPAexGothic-52"/>
     <use x="215.380859" xlink:href="#IPAexGothic-51"/>
     <use x="278.369141" xlink:href="#IPAexGothic-50"/>
    </g>
   </g>
   <g id="text_22">
    <!-- 29.17 -->
    <g transform="translate(403.214549 263.579343)scale(0.1 -0.1)">
     <use xlink:href="#IPAexGothic-50"/>
     <use x="62.988281" xlink:href="#IPAexGothic-57"/>
     <use x="125.976562" xlink:href="#IPAexGothic-46"/>
     <use x="152.392578" xlink:href="#IPAexGothic-49"/>
     <use x="215.380859" xlink:href="#IPAexGothic-55"/>
    </g>
   </g>
   <g id="text_23">
    <!-- 27.296 -->
    <g transform="translate(380.97456 253.254853)scale(0.1 -0.1)">
     <use xlink:href="#IPAexGothic-50"/>
     <use x="62.988281" xlink:href="#IPAexGothic-55"/>
     <use x="125.976562" xlink:href="#IPAexGothic-46"/>
     <use x="152.392578" xlink:href="#IPAexGothic-50"/>
     <use x="215.380859" xlink:href="#IPAexGothic-57"/>
     <use x="278.369141" xlink:href="#IPAexGothic-54"/>
    </g>
   </g>
   <g id="text_24">
    <!-- 27.106 -->
    <g transform="translate(378.719706 237.768119)scale(0.1 -0.1)">
     <use xlink:href="#IPAexGothic-50"/>
     <use x="62.988281" xlink:href="#IPAexGothic-55"/>
     <use x="125.976562" xlink:href="#IPAexGothic-46"/>
     <use x="152.392578" xlink:href="#IPAexGothic-49"/>
     <use x="215.380859" xlink:href="#IPAexGothic-48"/>
     <use x="278.369141" xlink:href="#IPAexGothic-54"/>
    </g>
   </g>
   <g id="text_25">
    <!-- 24.224 -->
    <g transform="translate(344.517119 227.443629)scale(0.1 -0.1)">
     <use xlink:href="#IPAexGothic-50"/>
     <use x="62.988281" xlink:href="#IPAexGothic-52"/>
     <use x="125.976562" xlink:href="#IPAexGothic-46"/>
     <use x="152.392578" xlink:href="#IPAexGothic-50"/>
     <use x="215.380859" xlink:href="#IPAexGothic-50"/>
     <use x="278.369141" xlink:href="#IPAexGothic-52"/>
    </g>
   </g>
   <g id="text_26">
    <!-- 27.462 -->
    <g transform="translate(382.944591 211.956894)scale(0.1 -0.1)">
     <use xlink:href="#IPAexGothic-50"/>
     <use x="62.988281" xlink:href="#IPAexGothic-55"/>
     <use x="125.976562" xlink:href="#IPAexGothic-46"/>
     <use x="152.392578" xlink:href="#IPAexGothic-52"/>
     <use x="215.380859" xlink:href="#IPAexGothic-54"/>
     <use x="278.369141" xlink:href="#IPAexGothic-50"/>
    </g>
   </g>
   <g id="text_27">
    <!-- 14.182 -->
    <g transform="translate(225.342109 201.632404)scale(0.1 -0.1)">
     <use xlink:href="#IPAexGothic-49"/>
     <use x="62.988281" xlink:href="#IPAexGothic-52"/>
     <use x="125.976562" xlink:href="#IPAexGothic-46"/>
     <use x="152.392578" xlink:href="#IPAexGothic-49"/>
     <use x="215.380859" xlink:href="#IPAexGothic-56"/>
     <use x="278.369141" xlink:href="#IPAexGothic-50"/>
    </g>
   </g>
   <g id="text_28">
    <!-- 18.528 -->
    <g transform="translate(276.918945 186.14567)scale(0.1 -0.1)">
     <use xlink:href="#IPAexGothic-49"/>
     <use x="62.988281" xlink:href="#IPAexGothic-56"/>
     <use x="125.976562" xlink:href="#IPAexGothic-46"/>
     <use x="152.392578" xlink:href="#IPAexGothic-53"/>
     <use x="215.380859" xlink:href="#IPAexGothic-50"/>
     <use x="278.369141" xlink:href="#IPAexGothic-56"/>
    </g>
   </g>
   <g id="text_29">
    <!-- 15.312 -->
    <g transform="translate(238.752561 175.82118)scale(0.1 -0.1)">
     <use xlink:href="#IPAexGothic-49"/>
     <use x="62.988281" xlink:href="#IPAexGothic-53"/>
     <use x="125.976562" xlink:href="#IPAexGothic-46"/>
     <use x="152.392578" xlink:href="#IPAexGothic-51"/>
     <use x="215.380859" xlink:href="#IPAexGothic-49"/>
     <use x="278.369141" xlink:href="#IPAexGothic-50"/>
    </g>
   </g>
   <g id="text_30">
    <!-- 24.468 -->
    <g transform="translate(347.412827 160.334445)scale(0.1 -0.1)">
     <use xlink:href="#IPAexGothic-50"/>
     <use x="62.988281" xlink:href="#IPAexGothic-52"/>
     <use x="125.976562" xlink:href="#IPAexGothic-46"/>
     <use x="152.392578" xlink:href="#IPAexGothic-52"/>
     <use x="215.380859" xlink:href="#IPAexGothic-54"/>
     <use x="278.369141" xlink:href="#IPAexGothic-56"/>
    </g>
   </g>
   <g id="text_31">
    <!-- 18.412 -->
    <g transform="translate(275.542297 150.009955)scale(0.1 -0.1)">
     <use xlink:href="#IPAexGothic-49"/>
     <use x="62.988281" xlink:href="#IPAexGothic-56"/>
     <use x="125.976562" xlink:href="#IPAexGothic-46"/>
     <use x="152.392578" xlink:href="#IPAexGothic-52"/>
     <use x="215.380859" xlink:href="#IPAexGothic-49"/>
     <use x="278.369141" xlink:href="#IPAexGothic-50"/>
    </g>
   </g>
   <g id="text_32">
    <!-- 16.758 -->
    <g transform="translate(255.913193 134.523221)scale(0.1 -0.1)">
     <use xlink:href="#IPAexGothic-49"/>
     <use x="62.988281" xlink:href="#IPAexGothic-54"/>
     <use x="125.976562" xlink:href="#IPAexGothic-46"/>
     <use x="152.392578" xlink:href="#IPAexGothic-55"/>
     <use x="215.380859" xlink:href="#IPAexGothic-53"/>
     <use x="278.369141" xlink:href="#IPAexGothic-56"/>
    </g>
   </g>
   <g id="text_33">
    <!-- 15.136 -->
    <g transform="translate(236.663854 124.198731)scale(0.1 -0.1)">
     <use xlink:href="#IPAexGothic-49"/>
     <use x="62.988281" xlink:href="#IPAexGothic-53"/>
     <use x="125.976562" xlink:href="#IPAexGothic-46"/>
     <use x="152.392578" xlink:href="#IPAexGothic-49"/>
     <use x="215.380859" xlink:href="#IPAexGothic-51"/>
     <use x="278.369141" xlink:href="#IPAexGothic-54"/>
    </g>
   </g>
   <g id="text_34">
    <!-- 21.454 -->
    <g transform="translate(311.643709 108.711996)scale(0.1 -0.1)">
     <use xlink:href="#IPAexGothic-50"/>
     <use x="62.988281" xlink:href="#IPAexGothic-49"/>
     <use x="125.976562" xlink:href="#IPAexGothic-46"/>
     <use x="152.392578" xlink:href="#IPAexGothic-52"/>
     <use x="215.380859" xlink:href="#IPAexGothic-53"/>
     <use x="278.369141" xlink:href="#IPAexGothic-52"/>
    </g>
   </g>
   <g id="text_35">
    <!-- 21.478 -->
    <g transform="translate(311.928533 98.387506)scale(0.1 -0.1)">
     <use xlink:href="#IPAexGothic-50"/>
     <use x="62.988281" xlink:href="#IPAexGothic-49"/>
     <use x="125.976562" xlink:href="#IPAexGothic-46"/>
     <use x="152.392578" xlink:href="#IPAexGothic-52"/>
     <use x="215.380859" xlink:href="#IPAexGothic-55"/>
     <use x="278.369141" xlink:href="#IPAexGothic-56"/>
    </g>
   </g>
   <g id="text_36">
    <!-- 10.758 -->
    <g transform="translate(184.707252 82.900772)scale(0.1 -0.1)">
     <use xlink:href="#IPAexGothic-49"/>
     <use x="62.988281" xlink:href="#IPAexGothic-48"/>
     <use x="125.976562" xlink:href="#IPAexGothic-46"/>
     <use x="152.392578" xlink:href="#IPAexGothic-55"/>
     <use x="215.380859" xlink:href="#IPAexGothic-53"/>
     <use x="278.369141" xlink:href="#IPAexGothic-56"/>
    </g>
   </g>
   <g id="text_37">
    <!-- 9.54 -->
    <g transform="translate(170.252446 72.576282)scale(0.1 -0.1)">
     <use xlink:href="#IPAexGothic-57"/>
     <use x="62.988281" xlink:href="#IPAexGothic-46"/>
     <use x="89.404297" xlink:href="#IPAexGothic-53"/>
     <use x="152.392578" xlink:href="#IPAexGothic-52"/>
    </g>
   </g>
   <g id="text_38">
    <!-- 13.282 -->
    <g transform="translate(214.661218 57.089547)scale(0.1 -0.1)">
     <use xlink:href="#IPAexGothic-49"/>
     <use x="62.988281" xlink:href="#IPAexGothic-51"/>
     <use x="125.976562" xlink:href="#IPAexGothic-46"/>
     <use x="152.392578" xlink:href="#IPAexGothic-50"/>
     <use x="215.380859" xlink:href="#IPAexGothic-56"/>
     <use x="278.369141" xlink:href="#IPAexGothic-50"/>
    </g>
   </g>
   <g id="text_39">
    <!-- 8.734 -->
    <g transform="translate(160.687115 46.765057)scale(0.1 -0.1)">
     <use xlink:href="#IPAexGothic-56"/>
     <use x="62.988281" xlink:href="#IPAexGothic-46"/>
     <use x="89.404297" xlink:href="#IPAexGothic-55"/>
     <use x="152.392578" xlink:href="#IPAexGothic-51"/>
     <use x="215.380859" xlink:href="#IPAexGothic-52"/>
    </g>
   </g>
   <g id="text_40">
    <!-- 最短走行時間の比較 -->
    <defs>
     <path d="M 48.734375 7.328125 
Q 82.421875 11.96875 82.421875 37.890625 
Q 82.421875 53.953125 68.953125 61.328125 
Q 63.140625 64.3125 55.421875 64.984375 
Q 53.03125 39.453125 44.53125 21.875 
Q 36.28125 4.78125 26.90625 4.78125 
Q 21.625 4.78125 16.9375 10.40625 
Q 9.515625 19.4375 9.515625 31.296875 
Q 9.515625 47.265625 21.828125 59.28125 
Q 34.125 71.296875 53.609375 71.296875 
Q 67.28125 71.296875 77 64.40625 
Q 90.828125 54.78125 90.828125 37.890625 
Q 90.828125 6.84375 53.609375 0.09375 
z
M 47.703125 64.796875 
Q 37.15625 63.1875 29.546875 56.890625 
Q 17.140625 46.578125 17.140625 31.109375 
Q 17.140625 21.34375 22.40625 15.28125 
Q 24.703125 12.703125 26.859375 12.703125 
Q 31.59375 12.703125 37.75 25.390625 
Q 45.453125 41.21875 47.703125 64.796875 
z
" id="IPAexGothic-12398"/>
     <path d="M 23.828125 50.78125 
L 46.921875 50.78125 
L 46.921875 44.09375 
L 23.828125 44.09375 
L 23.828125 7.375 
Q 38.578125 11.671875 47.125 14.59375 
L 47.515625 8.296875 
Q 28.328125 0.921875 7.171875 -4.6875 
L 4.59375 2.484375 
Q 10.84375 3.90625 16.5 5.375 
L 16.5 79.390625 
L 23.828125 79.390625 
z
M 59.28125 47.3125 
Q 73.296875 54.25 83.453125 63.09375 
L 89.75 57.90625 
Q 74.65625 46.390625 59.28125 40.1875 
L 59.28125 8.6875 
Q 59.28125 5.515625 62.15625 4.890625 
Q 64.15625 4.5 69.875 4.5 
Q 80.765625 4.5 83.25 5.90625 
Q 85.796875 7.234375 86.28125 23.6875 
L 93.65625 21.1875 
Q 93.21875 3.71875 90.1875 0.53125 
Q 86.96875 -2.6875 70.171875 -2.6875 
Q 59.515625 -2.6875 56.0625 -1.171875 
Q 52.09375 0.4375 52.09375 6.203125 
L 52.09375 79.890625 
L 59.28125 79.890625 
z
" id="IPAexGothic-27604"/>
     <path d="M 22.078125 57.625 
L 22.078125 64.890625 
L 6 64.890625 
L 6 70.90625 
L 22.078125 70.90625 
L 22.078125 83.015625 
L 28.375 83.015625 
L 28.375 70.90625 
L 44.921875 70.90625 
L 44.921875 64.890625 
L 28.375 64.890625 
L 28.375 57.625 
L 42.71875 57.625 
L 42.71875 23.6875 
L 28.375 23.6875 
L 28.375 15.828125 
L 45.796875 15.828125 
L 45.796875 9.8125 
L 28.375 9.8125 
L 28.375 -6.984375 
L 22.078125 -6.984375 
L 22.078125 9.8125 
L 4.59375 9.8125 
L 4.59375 15.828125 
L 22.078125 15.828125 
L 22.078125 23.6875 
L 8.296875 23.6875 
L 8.296875 57.625 
z
M 22.265625 52.390625 
L 14.109375 52.390625 
L 14.109375 43.40625 
L 22.265625 43.40625 
z
M 28.171875 52.390625 
L 28.171875 43.40625 
L 36.921875 43.40625 
L 36.921875 52.390625 
z
M 22.265625 38.375 
L 14.109375 38.375 
L 14.109375 29 
L 22.265625 29 
z
M 28.171875 38.375 
L 28.171875 29 
L 36.921875 29 
L 36.921875 38.375 
z
M 66.265625 15.828125 
Q 59.234375 25.09375 55.46875 36.53125 
L 61.1875 39.203125 
Q 63.921875 29.6875 69.96875 21.296875 
Q 75.390625 30.328125 77.78125 41.21875 
L 83.984375 38.921875 
Q 81.15625 26.859375 74.171875 16.109375 
Q 82.71875 6.9375 96 0.6875 
L 91.546875 -5.90625 
Q 79.203125 0.78125 70.265625 10.796875 
Q 60.203125 -1.21875 47.65625 -7.515625 
L 42.96875 -2 
Q 56.9375 4.046875 66.265625 15.828125 
z
M 72.609375 66.609375 
L 94.671875 66.609375 
L 94.671875 60.203125 
L 46.296875 60.203125 
L 46.296875 66.609375 
L 65.71875 66.609375 
L 65.71875 83.015625 
L 72.609375 83.015625 
z
M 44.484375 35.890625 
Q 53.21875 44.671875 58.40625 57.8125 
L 64.359375 55.328125 
Q 58.890625 41.3125 49.265625 31.109375 
z
M 89.984375 32.90625 
Q 83.34375 44.734375 73.96875 55.328125 
L 79.296875 58.296875 
Q 89.546875 47.5625 95.265625 37.796875 
z
" id="IPAexGothic-36611"/>
    </defs>
    <g transform="translate(199.023478 20.16)scale(0.12 -0.12)">
     <use xlink:href="#IPAexGothic-26368"/>
     <use x="100" xlink:href="#IPAexGothic-30701"/>
     <use x="200" xlink:href="#IPAexGothic-36208"/>
     <use x="300" xlink:href="#IPAexGothic-34892"/>
     <use x="400" xlink:href="#IPAexGothic-26178"/>
     <use x="500" xlink:href="#IPAexGothic-38291"/>
     <use x="600" xlink:href="#IPAexGothic-12398"/>
     <use x="700" xlink:href="#IPAexGothic-27604"/>
     <use x="800" xlink:href="#IPAexGothic-36611"/>
    </g>
   </g>
   <g id="legend_1">
    <g id="patch_27">
     <path d="M 370.011956 62.94125 
L 442.011956 62.94125 
Q 444.011956 62.94125 444.011956 60.94125 
L 444.011956 33.16 
Q 444.011956 31.16 442.011956 31.16 
L 370.011956 31.16 
Q 368.011956 31.16 368.011956 33.16 
L 368.011956 60.94125 
Q 368.011956 62.94125 370.011956 62.94125 
z
" style="fill:#ffffff;opacity:0.8;stroke:#cccccc;stroke-linejoin:miter;"/>
    </g>
    <g id="patch_28">
     <path d="M 372.011956 42.650625 
L 392.011956 42.650625 
L 392.011956 35.650625 
L 372.011956 35.650625 
z
" style="fill:#1f77b4;"/>
    </g>
    <g id="text_41">
     <!-- 斜めあり -->
     <defs>
      <path d="M 18.75 54.203125 
L 46.4375 54.203125 
L 46.4375 48.09375 
L 33.0625 48.09375 
L 33.0625 37.3125 
L 51.859375 37.3125 
L 51.859375 31.203125 
L 33.0625 31.203125 
L 33.0625 0 
Q 33.0625 -4.046875 31.453125 -5.46875 
Q 29.890625 -7.078125 25.59375 -7.078125 
Q 20.796875 -7.078125 16.453125 -6.390625 
L 15.28125 0.78125 
Q 19.09375 -0.203125 23.1875 -0.203125 
Q 26.171875 -0.203125 26.171875 2.6875 
L 26.171875 31.203125 
L 7.078125 31.203125 
L 7.078125 37.3125 
L 26.171875 37.3125 
L 26.171875 48.09375 
L 13.578125 48.09375 
Q 12.84375 47.3125 11.078125 45.515625 
Q 9.421875 43.796875 8.453125 42.828125 
L 4.59375 48.875 
Q 19.140625 62.984375 27.046875 82.8125 
L 34.1875 81.203125 
Q 33.0625 78.515625 32.28125 76.90625 
Q 42.578125 69.625 53.375 58.6875 
L 48.140625 52.59375 
Q 39.84375 62.3125 29.4375 71.09375 
Q 24.953125 62.15625 18.75 54.203125 
z
M 84.375 28.078125 
L 95.265625 30.171875 
L 95.75 23.484375 
L 84.578125 21.296875 
L 84.578125 -6.5 
L 77.6875 -6.5 
L 77.6875 20.015625 
L 52.296875 15.09375 
L 50.984375 21.484375 
L 77.484375 26.703125 
L 77.484375 80.90625 
L 84.375 80.90625 
z
M 5.71875 4 
Q 10.84375 13.71875 13.578125 27.59375 
L 19.96875 25.6875 
Q 17.578125 10.9375 11.578125 -0.203125 
z
M 44.390625 4.109375 
Q 41.21875 16.703125 36.46875 25.390625 
L 42.671875 27.6875 
Q 47.515625 19.234375 51.375 7.515625 
z
M 68.703125 53.71875 
Q 62.640625 62.75 54.5 69.53125 
L 59.765625 73.921875 
Q 67.140625 67.484375 74.171875 58.59375 
z
M 67.1875 31.5 
Q 60.890625 40.1875 52.875 47.5625 
L 58.109375 51.90625 
Q 65.140625 45.953125 72.40625 36.578125 
z
" id="IPAexGothic-26012"/>
      <path d="M 24.8125 71.09375 
Q 26.703125 62.015625 29.390625 53.609375 
Q 38.875 59.234375 51.703125 60.796875 
Q 53.8125 70.515625 54.5 77.6875 
L 62.40625 76.21875 
Q 61.28125 69.625 59.375 60.890625 
Q 72.90625 59.96875 80.765625 53.078125 
Q 86.140625 48.484375 88.28125 43.015625 
Q 90.375 37.703125 90.375 29.6875 
Q 90.375 16.890625 79.78125 8.59375 
Q 70.3125 1.171875 53.078125 -2 
L 48.484375 5.171875 
Q 66.21875 7.5625 74.75 14.75 
Q 82.078125 20.84375 82.078125 29.890625 
Q 82.078125 37.9375 79.6875 42.578125 
Q 77.828125 46.296875 73.6875 49.3125 
Q 67.671875 53.765625 57.71875 54.6875 
Q 52.546875 37.3125 43.21875 22.3125 
Q 44.875 19.390625 48.1875 15.09375 
L 42.578125 10.109375 
Q 40.578125 12.703125 38.671875 15.921875 
Q 28.65625 3.609375 20.515625 3.609375 
Q 15.09375 3.609375 11.8125 8.6875 
Q 8.5 13.8125 8.5 20.90625 
Q 8.5 35.9375 23.1875 49.3125 
Q 19.53125 60.984375 18.015625 68.015625 
z
M 25.484375 42.578125 
Q 15.484375 32.328125 15.484375 21.53125 
Q 15.484375 11.53125 21 11.53125 
Q 26.703125 11.53125 34.8125 22.3125 
Q 29.59375 31.640625 25.484375 42.578125 
z
M 50.09375 54.5 
Q 39.359375 52.828125 31.390625 47.3125 
Q 35.40625 36.03125 39.3125 29.109375 
Q 46.921875 43.171875 50.09375 54.5 
z
" id="IPAexGothic-12417"/>
      <path d="M 15.09375 64.59375 
Q 19.1875 64.3125 24.21875 64.3125 
Q 30.21875 64.3125 35.6875 64.703125 
Q 35.890625 66.359375 36.234375 69.578125 
Q 37.015625 76.125 37.203125 78.90625 
L 44.578125 78.421875 
Q 43.65625 71.046875 43.109375 65.28125 
Q 57.375 66.796875 71.578125 70.703125 
L 72.40625 63.8125 
Q 58.59375 60.359375 42.390625 58.6875 
Q 41.796875 52.78125 41.609375 45.796875 
Q 48.25 48.1875 57.328125 49.03125 
Q 58.40625 51.953125 58.796875 55.421875 
L 66.21875 53.71875 
Q 65.4375 50.296875 64.890625 48.875 
Q 74.953125 47.515625 80.71875 42.828125 
Q 89.109375 35.890625 89.109375 24.703125 
Q 89.109375 12.40625 79 4.6875 
Q 71.234375 -1.3125 57.515625 -3.328125 
L 53.21875 3.328125 
Q 65.140625 4.640625 72.21875 9.28125 
Q 81.296875 15.140625 81.296875 24.8125 
Q 81.296875 34.625 73 39.890625 
Q 68.953125 42.578125 62.890625 43.3125 
Q 55.46875 24.3125 42.921875 12.5 
Q 43.21875 9.125 44.484375 4.296875 
L 37.3125 1.609375 
Q 37.015625 2.984375 36.1875 8.203125 
Q 27.4375 2 20.3125 2 
Q 10.40625 2 10.40625 12.40625 
Q 10.40625 19.4375 14.84375 26.421875 
Q 19 32.8125 26.21875 37.890625 
Q 28.65625 39.703125 34.28125 42.671875 
Q 34.46875 49.359375 35.203125 58.109375 
Q 27.6875 57.515625 20.90625 57.515625 
Q 17.28125 57.515625 15.71875 57.625 
z
M 34.1875 35.796875 
Q 30.71875 33.890625 26.609375 29.890625 
Q 22.359375 25.78125 19.875 21.140625 
Q 17.875 17.328125 17.71875 14.40625 
Q 17.484375 8.984375 21.625 8.984375 
Q 27.9375 8.984375 35.109375 15.578125 
Q 34.328125 23.390625 34.1875 35.796875 
z
M 55.515625 43.3125 
Q 47.46875 42.1875 41.21875 39.59375 
Q 41.21875 27.09375 41.609375 20.3125 
Q 50.484375 30.171875 55.515625 43.3125 
z
" id="IPAexGothic-12354"/>
      <path d="M 44.96875 45.703125 
Q 39.109375 35.84375 37.0625 31.890625 
Q 34.71875 27.34375 33.796875 22.796875 
L 26.8125 23.484375 
Q 23.578125 33.296875 23.578125 48.296875 
Q 23.578125 58.5 25.984375 76.125 
L 34.078125 75.09375 
Q 31.296875 55.328125 31.296875 47.125 
Q 31.296875 40.828125 31.6875 35.296875 
Q 32.953125 37.703125 36.140625 43.21875 
Q 38.8125 47.859375 40.28125 50.59375 
z
M 38.875 2 
Q 55.21875 7.859375 61.375 18.5 
Q 66.15625 26.765625 66.15625 46.484375 
Q 66.15625 60.5 64.40625 77 
L 72.90625 77 
Q 74.359375 59.28125 74.359375 46.484375 
Q 74.359375 23.6875 68.0625 13.1875 
Q 61.140625 1.609375 44.578125 -4.5 
z
" id="IPAexGothic-12426"/>
     </defs>
     <g transform="translate(400.011956 42.650625)scale(0.1 -0.1)">
      <use xlink:href="#IPAexGothic-26012"/>
      <use x="100" xlink:href="#IPAexGothic-12417"/>
      <use x="200" xlink:href="#IPAexGothic-12354"/>
      <use x="300" xlink:href="#IPAexGothic-12426"/>
     </g>
    </g>
    <g id="patch_29">
     <path d="M 372.011956 57.04125 
L 392.011956 57.04125 
L 392.011956 50.04125 
L 372.011956 50.04125 
z
" style="fill:#ff7f0e;"/>
    </g>
    <g id="text_42">
     <!-- 斜めなし -->
     <defs>
      <path d="M 61.03125 49.171875 
L 68.3125 49.171875 
Q 68.453125 35.59375 69.4375 19.875 
Q 81.9375 15.671875 91.21875 9.859375 
L 86.8125 3.46875 
Q 77.390625 9.375 69.734375 12.703125 
Q 69.96875 4.109375 66.15625 0.34375 
Q 62.25 -3.515625 53.421875 -3.515625 
Q 45.265625 -3.515625 40.046875 0 
Q 34.625 3.609375 34.625 10.109375 
Q 34.625 16.890625 41.5 20.609375 
Q 46.234375 23.1875 51.515625 23.1875 
Q 56.84375 23.1875 62.015625 22.078125 
Q 61.1875 34.671875 61.03125 49.171875 
z
M 62.109375 15.375 
Q 56.734375 16.890625 51.515625 16.890625 
Q 47.359375 16.890625 44.625 15.28125 
Q 41.609375 13.484375 41.609375 10.203125 
Q 41.609375 3.078125 53.125 3.078125 
Q 58.59375 3.078125 60.546875 5.90625 
Q 62.453125 8.6875 62.109375 15.375 
z
M 11.53125 61.375 
Q 22.703125 60.6875 31.203125 61.53125 
Q 33.5 68.453125 35.84375 80.078125 
L 43.5 78.90625 
Q 41.9375 71.234375 39.3125 62.3125 
Q 46.390625 62.984375 55.609375 65.1875 
L 55.90625 58.015625 
Q 45.609375 55.859375 37.109375 55.171875 
Q 28.953125 31.6875 16.3125 12.984375 
L 9.421875 17.390625 
Q 20.703125 32.234375 29 54.5 
Q 16.609375 54.046875 11.921875 54.296875 
z
M 86.53125 43.109375 
Q 78.125 52.390625 66.609375 60.203125 
L 71.734375 65.484375 
Q 83.40625 58.25 92.140625 48.875 
z
" id="IPAexGothic-12394"/>
      <path d="M 27.34375 76.3125 
L 35.640625 76.3125 
L 34.96875 20.609375 
Q 34.8125 12.640625 37.359375 8.890625 
Q 40.53125 4.390625 48.875 4.390625 
Q 58.9375 4.390625 67.875 11.625 
Q 75.34375 17.671875 80.5625 27.484375 
L 86.46875 21.390625 
Q 79.59375 10.203125 70.84375 4.109375 
Q 60.59375 -3.21875 48.96875 -3.21875 
Q 36.578125 -3.21875 31.15625 3.328125 
Q 26.515625 8.984375 26.65625 19.828125 
z
" id="IPAexGothic-12375"/>
     </defs>
     <g transform="translate(400.011956 57.04125)scale(0.1 -0.1)">
      <use xlink:href="#IPAexGothic-26012"/>
      <use x="100" xlink:href="#IPAexGothic-12417"/>
      <use x="200" xlink:href="#IPAexGothic-12394"/>
      <use x="300" xlink:href="#IPAexGothic-12375"/>
     </g>
    </g>
   </g>
  </g>
 </g>
 <defs>
  <clipPath id="p39699e0ce3">
   <rect height="278.245" width="391.976956" x="57.035" y="26.16"/>
  </clipPath>
 </defs>
</svg>
