<?xml version="1.0" encoding="utf-8" standalone="no"?>
<!DOCTYPE svg PUBLIC "-//W3C//DTD SVG 1.1//EN"
  "http://www.w3.org/Graphics/SVG/1.1/DTD/svg11.dtd">
<!-- Created with matplotlib (https://matplotlib.org/) -->
<svg height="345.6pt" version="1.1" viewBox="0 0 460.8 345.6" width="460.8pt" xmlns="http://www.w3.org/2000/svg" xmlns:xlink="http://www.w3.org/1999/xlink">
 <defs>
  <style type="text/css">
*{stroke-linecap:butt;stroke-linejoin:round;}
  </style>
 </defs>
 <g id="figure_1">
  <g id="patch_1">
   <path d="M 0 345.6 
L 460.8 345.6 
L 460.8 0 
L 0 0 
z
" style="fill:#ffffff;"/>
  </g>
  <g id="axes_1">
   <g id="patch_2">
    <path d="M 50.735 304.405 
L 450 304.405 
L 450 26.23875 
L 50.735 26.23875 
z
" style="fill:#ffffff;"/>
   </g>
   <g id="patch_3">
    <path clip-path="url(#paffc109b86)" d="M 68.883409 304.405 
L 98.513465 304.405 
L 98.513465 53.840046 
L 68.883409 53.840046 
z
" style="fill:#1f77b4;"/>
   </g>
   <g id="patch_4">
    <path clip-path="url(#paffc109b86)" d="M 105.920979 304.405 
L 135.551034 304.405 
L 135.551034 67.542817 
L 105.920979 67.542817 
z
" style="fill:#1f77b4;"/>
   </g>
   <g id="patch_5">
    <path clip-path="url(#paffc109b86)" d="M 142.958548 304.405 
L 172.588604 304.405 
L 172.588604 143.234313 
L 142.958548 143.234313 
z
" style="fill:#1f77b4;"/>
   </g>
   <g id="patch_6">
    <path clip-path="url(#paffc109b86)" d="M 179.996118 304.405 
L 209.626173 304.405 
L 209.626173 143.234313 
L 179.996118 143.234313 
z
" style="fill:#1f77b4;"/>
   </g>
   <g id="patch_7">
    <path clip-path="url(#paffc109b86)" d="M 217.033687 304.405 
L 246.663743 304.405 
L 246.663743 101.473488 
L 217.033687 101.473488 
z
" style="fill:#1f77b4;"/>
   </g>
   <g id="patch_8">
    <path clip-path="url(#paffc109b86)" d="M 254.071257 304.405 
L 283.701313 304.405 
L 283.701313 131.489081 
L 254.071257 131.489081 
z
" style="fill:#1f77b4;"/>
   </g>
   <g id="patch_9">
    <path clip-path="url(#paffc109b86)" d="M 291.108827 304.405 
L 320.738882 304.405 
L 320.738882 39.484762 
L 291.108827 39.484762 
z
" style="fill:#1f77b4;"/>
   </g>
   <g id="patch_10">
    <path clip-path="url(#paffc109b86)" d="M 328.146396 304.405 
L 357.776452 304.405 
L 357.776452 105.388565 
L 328.146396 105.388565 
z
" style="fill:#1f77b4;"/>
   </g>
   <g id="patch_11">
    <path clip-path="url(#paffc109b86)" d="M 365.183966 304.405 
L 394.814021 304.405 
L 394.814021 85.813178 
L 365.183966 85.813178 
z
" style="fill:#1f77b4;"/>
   </g>
   <g id="patch_12">
    <path clip-path="url(#paffc109b86)" d="M 402.221535 304.405 
L 431.851591 304.405 
L 431.851591 49.272455 
L 402.221535 49.272455 
z
" style="fill:#1f77b4;"/>
   </g>
   <g id="matplotlib.axis_1">
    <g id="xtick_1">
     <g id="line2d_1">
      <defs>
       <path d="M 0 0 
L 0 3.5 
" id="m5f2ee38b6c" style="stroke:#000000;stroke-width:0.8;"/>
      </defs>
      <g>
       <use style="stroke:#000000;stroke-width:0.8;" x="83.698437" xlink:href="#m5f2ee38b6c" y="304.405"/>
      </g>
     </g>
     <g id="text_1">
      <!-- 2010 -->
      <defs>
       <path d="M 57.171875 0.984375 
L 6.984375 0.984375 
L 6.984375 9.28125 
Q 12.890625 23.046875 29.59375 34.421875 
L 32.375 36.28125 
Q 40.921875 42.140625 43.609375 45.40625 
Q 46.6875 49.265625 46.6875 53.8125 
Q 46.6875 58.9375 43.0625 62.546875 
Q 39.0625 66.546875 32.5625 66.546875 
Q 19.53125 66.546875 15.484375 52 
L 7.765625 54.78125 
Q 13.328125 73.828125 33.0625 73.828125 
Q 43.84375 73.828125 50.25 67.4375 
Q 55.859375 61.671875 55.859375 53.515625 
Q 55.859375 47.46875 52.25 42.53125 
Q 48.921875 37.75 36.96875 30.28125 
L 34.859375 29 
Q 19.625 19.578125 15.28125 8.890625 
L 57.171875 8.890625 
z
" id="IPAexGothic-50"/>
       <path d="M 31.84375 73.828125 
Q 45.015625 73.828125 52.09375 61.625 
Q 57.71875 51.953125 57.71875 36.625 
Q 57.71875 21.4375 52.09375 11.578125 
Q 45.125 -0.484375 31.5 -0.484375 
Q 17.921875 -0.484375 10.9375 11.578125 
Q 5.328125 21.4375 5.328125 36.71875 
Q 5.328125 58.015625 15.625 67.71875 
Q 22.171875 73.828125 31.84375 73.828125 
z
M 31.5 66.65625 
Q 23.6875 66.65625 19.1875 58.734375 
Q 14.59375 50.734375 14.59375 36.625 
Q 14.59375 22.75 19.09375 14.796875 
Q 23.640625 6.984375 31.5 6.984375 
Q 40.921875 6.984375 45.453125 18.015625 
Q 48.4375 25.34375 48.4375 37.109375 
Q 48.4375 50.875 43.84375 58.734375 
Q 39.203125 66.65625 31.5 66.65625 
z
" id="IPAexGothic-48"/>
       <path d="M 38.484375 0.984375 
L 29.6875 0.984375 
L 29.6875 64.109375 
Q 21.4375 61.28125 12.3125 59.328125 
L 10.6875 66.109375 
Q 23.734375 69.390625 32.90625 73.921875 
L 38.484375 73.921875 
z
" id="IPAexGothic-49"/>
      </defs>
      <g transform="translate(71.101562 318.895625)scale(0.1 -0.1)">
       <use xlink:href="#IPAexGothic-50"/>
       <use x="62.988281" xlink:href="#IPAexGothic-48"/>
       <use x="125.976562" xlink:href="#IPAexGothic-49"/>
       <use x="188.964844" xlink:href="#IPAexGothic-48"/>
      </g>
     </g>
    </g>
    <g id="xtick_2">
     <g id="line2d_2">
      <g>
       <use style="stroke:#000000;stroke-width:0.8;" x="120.736006" xlink:href="#m5f2ee38b6c" y="304.405"/>
      </g>
     </g>
     <g id="text_2">
      <!-- 2011 -->
      <g transform="translate(108.139131 318.895625)scale(0.1 -0.1)">
       <use xlink:href="#IPAexGothic-50"/>
       <use x="62.988281" xlink:href="#IPAexGothic-48"/>
       <use x="125.976562" xlink:href="#IPAexGothic-49"/>
       <use x="188.964844" xlink:href="#IPAexGothic-49"/>
      </g>
     </g>
    </g>
    <g id="xtick_3">
     <g id="line2d_3">
      <g>
       <use style="stroke:#000000;stroke-width:0.8;" x="157.773576" xlink:href="#m5f2ee38b6c" y="304.405"/>
      </g>
     </g>
     <g id="text_3">
      <!-- 2012 -->
      <g transform="translate(145.176701 318.895625)scale(0.1 -0.1)">
       <use xlink:href="#IPAexGothic-50"/>
       <use x="62.988281" xlink:href="#IPAexGothic-48"/>
       <use x="125.976562" xlink:href="#IPAexGothic-49"/>
       <use x="188.964844" xlink:href="#IPAexGothic-50"/>
      </g>
     </g>
    </g>
    <g id="xtick_4">
     <g id="line2d_4">
      <g>
       <use style="stroke:#000000;stroke-width:0.8;" x="194.811146" xlink:href="#m5f2ee38b6c" y="304.405"/>
      </g>
     </g>
     <g id="text_4">
      <!-- 2013 -->
      <defs>
       <path d="M 37.203125 37.796875 
Q 54.78125 34.625 54.78125 19.96875 
Q 54.78125 11.1875 48.875 5.5625 
Q 42.328125 -0.484375 30.375 -0.484375 
Q 12.453125 -0.484375 4.5 13.765625 
L 11.8125 17.671875 
Q 17.328125 6.890625 30.28125 6.890625 
Q 37.890625 6.890625 42.09375 10.796875 
Q 46.09375 14.5 46.09375 20.171875 
Q 46.09375 26.859375 40.09375 30.90625 
Q 34.625 34.578125 25.6875 34.578125 
L 21.296875 34.578125 
L 21.296875 41.703125 
L 25.875 41.703125 
Q 34.859375 41.703125 39.59375 45.125 
Q 44.671875 48.734375 44.671875 54.828125 
Q 44.671875 61.46875 38.96875 64.65625 
Q 35.296875 66.84375 30.171875 66.84375 
Q 19.34375 66.84375 14.109375 55.90625 
L 6.78125 59.421875 
Q 14.015625 73.828125 30.28125 73.828125 
Q 40.578125 73.828125 46.96875 68.65625 
Q 53.375 63.578125 53.375 55.21875 
Q 53.375 47.3125 47.171875 42.28125 
Q 43.171875 39.0625 37.203125 38.1875 
z
" id="IPAexGothic-51"/>
      </defs>
      <g transform="translate(182.214271 318.895625)scale(0.1 -0.1)">
       <use xlink:href="#IPAexGothic-50"/>
       <use x="62.988281" xlink:href="#IPAexGothic-48"/>
       <use x="125.976562" xlink:href="#IPAexGothic-49"/>
       <use x="188.964844" xlink:href="#IPAexGothic-51"/>
      </g>
     </g>
    </g>
    <g id="xtick_5">
     <g id="line2d_5">
      <g>
       <use style="stroke:#000000;stroke-width:0.8;" x="231.848715" xlink:href="#m5f2ee38b6c" y="304.405"/>
      </g>
     </g>
     <g id="text_5">
      <!-- 2014 -->
      <defs>
       <path d="M 59.578125 18.109375 
L 47.796875 18.109375 
L 47.796875 0.984375 
L 39.796875 0.984375 
L 39.796875 18.109375 
L 3.078125 18.109375 
L 3.078125 26.125 
L 38.375 73.09375 
L 47.796875 73.09375 
L 47.796875 25.53125 
L 59.578125 25.53125 
z
M 40.28125 64.203125 
L 39.984375 64.203125 
Q 35.59375 57.125 31.296875 51.3125 
L 11.859375 25.53125 
L 39.796875 25.53125 
L 39.796875 49.125 
Q 39.796875 54.390625 40.28125 64.203125 
z
" id="IPAexGothic-52"/>
      </defs>
      <g transform="translate(219.25184 318.895625)scale(0.1 -0.1)">
       <use xlink:href="#IPAexGothic-50"/>
       <use x="62.988281" xlink:href="#IPAexGothic-48"/>
       <use x="125.976562" xlink:href="#IPAexGothic-49"/>
       <use x="188.964844" xlink:href="#IPAexGothic-52"/>
      </g>
     </g>
    </g>
    <g id="xtick_6">
     <g id="line2d_6">
      <g>
       <use style="stroke:#000000;stroke-width:0.8;" x="268.886285" xlink:href="#m5f2ee38b6c" y="304.405"/>
      </g>
     </g>
     <g id="text_6">
      <!-- 2015 -->
      <defs>
       <path d="M 18.40625 40.671875 
Q 25.53125 46.296875 33.9375 46.296875 
Q 44 46.296875 50.640625 39.5 
Q 56.84375 33.015625 56.84375 23.390625 
Q 56.84375 14.65625 51.515625 8.015625 
Q 44.828125 -0.484375 31.734375 -0.484375 
Q 14.984375 -0.484375 7.328125 12.25 
L 14.65625 16.0625 
Q 20.453125 6.78125 31.453125 6.78125 
Q 38.53125 6.78125 43.265625 11.1875 
Q 48.140625 15.828125 48.140625 23.484375 
Q 48.140625 30.71875 43.84375 35.015625 
Q 39.359375 39.5 32.125 39.5 
Q 21.96875 39.5 16.75 31.6875 
L 9.234375 32.671875 
L 13.8125 72.40625 
L 53.21875 72.40625 
L 53.21875 64.890625 
L 20.953125 64.890625 
L 17.71875 40.671875 
z
" id="IPAexGothic-53"/>
      </defs>
      <g transform="translate(256.28941 318.895625)scale(0.1 -0.1)">
       <use xlink:href="#IPAexGothic-50"/>
       <use x="62.988281" xlink:href="#IPAexGothic-48"/>
       <use x="125.976562" xlink:href="#IPAexGothic-49"/>
       <use x="188.964844" xlink:href="#IPAexGothic-53"/>
      </g>
     </g>
    </g>
    <g id="xtick_7">
     <g id="line2d_7">
      <g>
       <use style="stroke:#000000;stroke-width:0.8;" x="305.923854" xlink:href="#m5f2ee38b6c" y="304.405"/>
      </g>
     </g>
     <g id="text_7">
      <!-- 2016 -->
      <defs>
       <path d="M 16.5 36.375 
Q 23.578125 46.578125 34.90625 46.578125 
Q 45.40625 46.578125 51.8125 39.265625 
Q 57.421875 32.90625 57.421875 23.78125 
Q 57.421875 13.8125 51.125 6.78125 
Q 44.578125 -0.484375 34.03125 -0.484375 
Q 21.484375 -0.484375 14.40625 9.078125 
Q 7.515625 18.40625 7.515625 34.8125 
Q 7.515625 53.515625 15.828125 64.203125 
Q 23.34375 73.828125 35.5 73.828125 
Q 49.859375 73.828125 56.390625 62.890625 
L 49.21875 58.984375 
Q 45.21875 66.65625 35.9375 66.65625 
Q 17.484375 66.65625 16.109375 36.375 
z
M 33.453125 39.796875 
Q 26.3125 39.796875 21.625 34.46875 
Q 17.4375 29.6875 17.4375 24.078125 
Q 17.4375 18.0625 21.140625 13.1875 
Q 26.125 6.6875 33.734375 6.6875 
Q 41.703125 6.6875 45.953125 13.1875 
Q 48.828125 17.625 48.828125 23.484375 
Q 48.828125 30.375 45.015625 34.8125 
Q 40.625 39.796875 33.453125 39.796875 
z
" id="IPAexGothic-54"/>
      </defs>
      <g transform="translate(293.326979 318.895625)scale(0.1 -0.1)">
       <use xlink:href="#IPAexGothic-50"/>
       <use x="62.988281" xlink:href="#IPAexGothic-48"/>
       <use x="125.976562" xlink:href="#IPAexGothic-49"/>
       <use x="188.964844" xlink:href="#IPAexGothic-54"/>
      </g>
     </g>
    </g>
    <g id="xtick_8">
     <g id="line2d_8">
      <g>
       <use style="stroke:#000000;stroke-width:0.8;" x="342.961424" xlink:href="#m5f2ee38b6c" y="304.405"/>
      </g>
     </g>
     <g id="text_8">
      <!-- 2017 -->
      <defs>
       <path d="M 56.203125 66.609375 
Q 34.96875 32.90625 27.78125 0.984375 
L 17.671875 0.984375 
Q 24.703125 28.65625 46.09375 64.5 
L 6.6875 64.5 
L 6.6875 72.40625 
L 56.203125 72.40625 
z
" id="IPAexGothic-55"/>
      </defs>
      <g transform="translate(330.364549 318.895625)scale(0.1 -0.1)">
       <use xlink:href="#IPAexGothic-50"/>
       <use x="62.988281" xlink:href="#IPAexGothic-48"/>
       <use x="125.976562" xlink:href="#IPAexGothic-49"/>
       <use x="188.964844" xlink:href="#IPAexGothic-55"/>
      </g>
     </g>
    </g>
    <g id="xtick_9">
     <g id="line2d_9">
      <g>
       <use style="stroke:#000000;stroke-width:0.8;" x="379.998994" xlink:href="#m5f2ee38b6c" y="304.405"/>
      </g>
     </g>
     <g id="text_9">
      <!-- 2018 -->
      <defs>
       <path d="M 39.703125 37.890625 
Q 57.8125 31.734375 57.8125 18.703125 
Q 57.8125 8.453125 48.4375 3.078125 
Q 41.609375 -0.875 31.5 -0.875 
Q 21.34375 -0.875 14.5 3.078125 
Q 5.421875 8.296875 5.421875 18.40625 
Q 5.421875 31.0625 22.015625 37.203125 
L 22.015625 37.5 
Q 7.515625 42.71875 7.515625 54.828125 
Q 7.515625 64.0625 15.328125 69.625 
Q 21.96875 74.3125 31.546875 74.3125 
Q 42.234375 74.3125 48.921875 68.796875 
Q 55.515625 63.578125 55.515625 55.71875 
Q 55.515625 42.28125 39.703125 38.1875 
z
M 31.59375 41.015625 
Q 46.828125 44.625 46.828125 55.125 
Q 46.828125 61.1875 41.796875 64.84375 
Q 37.703125 67.921875 31.5 67.921875 
Q 25.09375 67.921875 20.796875 64.5 
Q 16.40625 60.890625 16.40625 55.03125 
Q 16.40625 49.21875 21.09375 45.703125 
Q 23.34375 43.890625 26.90625 42.53125 
Q 31 40.875 31.59375 41.015625 
z
M 30.90625 34.515625 
Q 14.40625 30.171875 14.40625 19 
Q 14.40625 12.109375 20.515625 8.6875 
Q 25.09375 6.109375 31.390625 6.109375 
Q 40.234375 6.109375 45.015625 10.890625 
Q 48.53125 14.40625 48.53125 19.53125 
Q 48.53125 24.90625 43.65625 28.90625 
Q 40.765625 31.15625 36.71875 32.8125 
Q 31.984375 34.71875 30.90625 34.515625 
z
" id="IPAexGothic-56"/>
      </defs>
      <g transform="translate(367.402119 318.895625)scale(0.1 -0.1)">
       <use xlink:href="#IPAexGothic-50"/>
       <use x="62.988281" xlink:href="#IPAexGothic-48"/>
       <use x="125.976562" xlink:href="#IPAexGothic-49"/>
       <use x="188.964844" xlink:href="#IPAexGothic-56"/>
      </g>
     </g>
    </g>
    <g id="xtick_10">
     <g id="line2d_10">
      <g>
       <use style="stroke:#000000;stroke-width:0.8;" x="417.036563" xlink:href="#m5f2ee38b6c" y="304.405"/>
      </g>
     </g>
     <g id="text_10">
      <!-- 2019 -->
      <defs>
       <path d="M 46.625 36.8125 
Q 39.75 26.8125 28.328125 26.8125 
Q 19.578125 26.8125 13.234375 32.125 
Q 5.71875 38.421875 5.71875 49.421875 
Q 5.71875 59.578125 12.015625 66.65625 
Q 18.453125 73.828125 29.203125 73.828125 
Q 43.75 73.828125 50.640625 61.71875 
Q 55.609375 52.78125 55.609375 38.625 
Q 55.609375 19.53125 47.515625 9.1875 
Q 39.890625 -0.484375 27.640625 -0.484375 
Q 13.421875 -0.484375 6.109375 10.984375 
L 13.328125 14.890625 
Q 18.0625 6.6875 27.390625 6.6875 
Q 45.65625 6.6875 47.015625 36.8125 
z
M 29.5 66.84375 
Q 22.65625 66.84375 18.3125 61.71875 
Q 14.40625 57.078125 14.40625 50 
Q 14.40625 42.828125 18.109375 38.71875 
Q 22.40625 33.796875 29.78125 33.796875 
Q 37.984375 33.796875 42.625 40.1875 
Q 45.703125 44.484375 45.703125 49.515625 
Q 45.703125 55.515625 42.09375 60.359375 
Q 37.109375 66.84375 29.5 66.84375 
z
" id="IPAexGothic-57"/>
      </defs>
      <g transform="translate(404.439688 318.895625)scale(0.1 -0.1)">
       <use xlink:href="#IPAexGothic-50"/>
       <use x="62.988281" xlink:href="#IPAexGothic-48"/>
       <use x="125.976562" xlink:href="#IPAexGothic-49"/>
       <use x="188.964844" xlink:href="#IPAexGothic-57"/>
      </g>
     </g>
    </g>
    <g id="text_11">
     <!-- 全日本マイクロマウス大会 32x32迷路 [年] -->
     <defs>
      <path d="M 53.375 43.40625 
L 53.375 27.296875 
L 82.5625 27.296875 
L 82.5625 20.90625 
L 53.375 20.90625 
L 53.375 2.875 
L 91.546875 2.875 
L 91.546875 -3.609375 
L 8.546875 -3.609375 
L 8.546875 2.875 
L 45.953125 2.875 
L 45.953125 20.90625 
L 17.4375 20.90625 
L 17.4375 27.296875 
L 45.953125 27.296875 
L 45.953125 43.40625 
L 26.03125 43.40625 
L 26.03125 48.296875 
Q 18.5625 42.875 9.328125 38.625 
L 4.9375 44.484375 
Q 31.34375 55.765625 45.125 81.203125 
L 53.765625 81.203125 
Q 70.171875 58.796875 95.5625 47.515625 
L 90.875 40.921875 
Q 66.109375 53.328125 49.5625 74.609375 
Q 40.671875 59.90625 27.9375 49.703125 
L 75.046875 49.703125 
L 75.046875 43.40625 
z
" id="IPAexGothic-20840"/>
      <path d="M 81.734375 75 
L 81.734375 -4.5 
L 74.125 -4.5 
L 74.125 2 
L 25.734375 2 
L 25.734375 -4.5 
L 18.109375 -4.5 
L 18.109375 75 
z
M 25.734375 68.3125 
L 25.734375 42.671875 
L 74.125 42.671875 
L 74.125 68.3125 
z
M 25.734375 35.890625 
L 25.734375 8.6875 
L 74.125 8.6875 
L 74.125 35.890625 
z
" id="IPAexGothic-26085"/>
      <path d="M 55.90625 54.109375 
Q 70.21875 29.734375 94.625 16.40625 
L 89.015625 9.375 
Q 64.796875 25.296875 53.265625 48.1875 
L 53.265625 19.390625 
L 69.828125 19.390625 
L 69.828125 12.890625 
L 53.515625 12.890625 
L 53.515625 -6.390625 
L 45.90625 -6.390625 
L 45.90625 12.890625 
L 29.6875 12.890625 
L 29.6875 19.390625 
L 46.09375 19.390625 
L 46.09375 47.40625 
Q 35.75 23.640625 11.8125 6.296875 
L 5.90625 12.40625 
Q 29.984375 26.609375 43.5 54.109375 
L 7.515625 54.109375 
L 7.515625 60.984375 
L 45.90625 60.984375 
L 45.90625 81.390625 
L 53.515625 81.390625 
L 53.515625 60.984375 
L 92.53125 60.984375 
L 92.53125 54.109375 
z
" id="IPAexGothic-26412"/>
      <path d="M 84.71875 64.40625 
L 89.109375 59.71875 
Q 72.796875 38.921875 52.9375 22.609375 
Q 59.625 15.53125 66.109375 7.8125 
L 59.328125 1.90625 
Q 44.78125 21.578125 26.421875 36.28125 
L 32.328125 41.3125 
Q 38.765625 36.28125 47.796875 27.6875 
Q 65.046875 42.234375 76.421875 56.890625 
L 11.625 56.296875 
L 11.625 63.8125 
z
" id="IPAexGothic-12510"/>
      <path d="M 48.921875 -3.609375 
L 48.921875 44.921875 
Q 32.671875 32.625 17.28125 25.875 
L 12.203125 32.171875 
Q 47.125 46.875 69.828125 76.8125 
L 76.8125 72.515625 
Q 68.5 61.53125 57.421875 51.8125 
L 57.421875 -3.609375 
z
" id="IPAexGothic-12452"/>
      <path d="M 77.09375 65.484375 
L 82.375 61.578125 
Q 76.46875 36.46875 62.984375 20.3125 
Q 51.171875 6.109375 31.6875 -3.515625 
L 25.875 2.875 
Q 44.921875 10.796875 56.890625 25.390625 
Q 68.796875 39.890625 73.296875 58.296875 
L 45.359375 58.296875 
Q 34.1875 41.453125 21.1875 30.609375 
L 15.28125 36.078125 
Q 36.375 53.125 45.796875 78.46875 
L 53.46875 76.265625 
Q 52.546875 73 49.078125 65.484375 
z
" id="IPAexGothic-12463"/>
      <path d="M 17.921875 66.703125 
L 82.03125 66.703125 
L 82.03125 2.6875 
L 73.828125 2.6875 
L 73.828125 8.890625 
L 26.125 8.890625 
L 26.125 2.6875 
L 17.921875 2.6875 
z
M 26.125 59.078125 
L 26.125 16.609375 
L 73.828125 16.609375 
L 73.828125 59.078125 
z
" id="IPAexGothic-12525"/>
      <path d="M 44.78125 77.828125 
L 52.984375 77.828125 
L 52.984375 61.921875 
L 77.984375 61.921875 
L 82.765625 58.015625 
Q 80.21875 30.765625 68.453125 16.3125 
Q 58.109375 3.375 39.0625 -3.421875 
L 33.296875 3.515625 
Q 53.265625 9.328125 63.375 22.90625 
Q 71.734375 34.328125 73.96875 54.5 
L 24.8125 54.5 
L 24.8125 32.078125 
L 16.796875 32.078125 
L 16.796875 61.921875 
L 44.78125 61.921875 
z
" id="IPAexGothic-12454"/>
      <path d="M 68.109375 70.015625 
L 73.6875 64.796875 
Q 67.625 48 56.984375 33.59375 
Q 72.796875 22.40625 88.421875 7.078125 
L 81.78125 0.296875 
Q 66.5 17 52.390625 27.78125 
Q 37.0625 9.328125 16.3125 -0.484375 
L 10.203125 6.296875 
Q 48.875 22.703125 64.015625 62.5 
L 19.390625 61.921875 
L 19.1875 69.578125 
z
" id="IPAexGothic-12473"/>
      <path d="M 55.125 49.703125 
Q 64.84375 18.703125 93.796875 4.296875 
L 88.234375 -2.875 
Q 60.796875 12.984375 50.921875 41.890625 
Q 45.21875 10.0625 13.625 -5.375 
L 8.015625 1.515625 
Q 26.21875 8.25 36.625 24.03125 
Q 43.5 34.671875 45.3125 49.703125 
L 7.515625 49.703125 
L 7.515625 56.6875 
L 45.703125 56.6875 
L 45.703125 80.46875 
L 53.609375 80.46875 
L 53.609375 56.6875 
L 92.53125 56.6875 
L 92.53125 49.703125 
z
" id="IPAexGothic-22823"/>
      <path d="M 29.109375 51.125 
L 72.515625 51.125 
L 72.515625 44.734375 
L 27.484375 44.734375 
L 27.484375 49.90625 
Q 27.09375 49.609375 25.59375 48.640625 
Q 19.34375 44 9.28125 39.015625 
L 4.5 44.734375 
Q 30.609375 56.203125 45.21875 80.421875 
L 53.609375 80.421875 
Q 67.828125 59.125 95.796875 47.609375 
L 91.015625 41.109375 
Q 63.484375 54.640625 49.609375 73.921875 
Q 41.453125 60.640625 29.109375 51.125 
z
M 44.09375 26.609375 
Q 39.546875 15.578125 33.109375 5.03125 
L 37.3125 5.328125 
Q 52.59375 6.390625 67.578125 7.90625 
L 72.515625 8.40625 
Q 65.140625 16.0625 60.296875 20.40625 
L 65.765625 24.21875 
Q 79.5 12.453125 90.28125 -0.484375 
L 84.1875 -5.46875 
Q 80.5625 -0.78125 77 3.421875 
L 75.484375 3.21875 
Q 48.53125 -0.828125 13.1875 -3.71875 
L 10.6875 3.609375 
Q 12.75 3.71875 18.609375 4.109375 
L 25.484375 4.5 
Q 31.59375 14.59375 36.28125 26.609375 
L 10.015625 26.609375 
L 10.015625 33.203125 
L 89.984375 33.203125 
L 89.984375 26.609375 
z
" id="IPAexGothic-20250"/>
      <path id="IPAexGothic-32"/>
      <path d="M 47.65625 0.984375 
L 37.796875 0.984375 
L 24.171875 20.90625 
L 10.796875 0.984375 
L 0.875 0.984375 
L 19.484375 26.171875 
L 1.65625 50.78125 
L 11.671875 50.78125 
L 24.65625 31.5 
L 37.703125 50.78125 
L 47.171875 50.78125 
L 29.296875 26.265625 
z
" id="IPAexGothic-120"/>
      <path d="M 67.53125 44.09375 
Q 78.421875 29.828125 93.5 20.3125 
L 88.140625 14.109375 
Q 73.96875 25.390625 65.234375 38.28125 
L 65.234375 5.515625 
L 58.34375 5.515625 
L 58.34375 37.703125 
Q 49.953125 22.5625 36.328125 12.3125 
L 31.15625 18.109375 
Q 45.65625 26.90625 56.0625 44.09375 
L 31.546875 44.09375 
L 31.546875 50.296875 
L 58.34375 50.296875 
L 58.34375 81.5 
L 65.234375 81.5 
L 65.234375 50.296875 
L 92.921875 50.296875 
L 92.921875 44.09375 
z
M 26.703125 11.671875 
Q 30.765625 6.453125 37.015625 4.203125 
Q 44.484375 1.609375 61.921875 1.609375 
Q 75.984375 1.609375 96 2.875 
Q 94.140625 -0.6875 93.40625 -4.59375 
Q 77.25 -5.171875 68.40625 -5.171875 
Q 43.609375 -5.171875 34.515625 -1.65625 
Q 27.875 0.78125 23.828125 6.390625 
Q 17.625 -1.078125 10.203125 -6.890625 
L 5.8125 0.390625 
Q 14.203125 5.609375 19.921875 10.6875 
L 19.921875 35.984375 
L 5.90625 35.984375 
L 5.90625 42.671875 
L 26.703125 42.671875 
z
M 23.875 58.984375 
Q 16.359375 68.21875 8.796875 73.875 
L 13.71875 79 
Q 23.296875 71.4375 29.203125 64.5 
z
M 45.40625 54.296875 
Q 40.96875 65.046875 34.90625 72.796875 
L 41.21875 76.515625 
Q 47.796875 67.4375 52.09375 57.8125 
z
M 70.21875 57.71875 
Q 76.515625 66.015625 81.203125 77 
L 88.1875 73.578125 
Q 82.46875 62.3125 76.3125 54.390625 
z
" id="IPAexGothic-36855"/>
      <path d="M 86.921875 30.328125 
L 86.921875 -6.984375 
L 80.21875 -6.984375 
L 80.21875 -1.90625 
L 56.6875 -1.90625 
L 56.6875 -6.984375 
L 49.90625 -6.984375 
L 49.90625 28.609375 
Q 45.90625 26.3125 43.609375 25.09375 
L 39.703125 29.9375 
L 39.703125 27.6875 
L 29 27.6875 
L 29 7.625 
Q 29.15625 7.671875 29.640625 7.765625 
Q 30.171875 7.90625 30.515625 8.015625 
Q 31.59375 8.40625 34.1875 9.234375 
Q 40.140625 11.140625 43.796875 12.40625 
L 44.1875 6.390625 
Q 27.875 -0.046875 7.28125 -5.609375 
L 4.5 1.21875 
Q 5.28125 1.375 7.171875 1.8125 
Q 8.546875 2.15625 9.28125 2.296875 
L 9.28125 39.3125 
L 15.671875 39.3125 
L 15.671875 3.90625 
L 17.484375 4.296875 
Q 18.953125 4.6875 20.65625 5.171875 
Q 22.515625 5.671875 22.609375 5.71875 
L 22.609375 47.609375 
L 8.59375 47.609375 
L 8.59375 77.875 
L 40.09375 77.875 
L 40.09375 47.609375 
L 29 47.609375 
L 29 33.59375 
L 39.703125 33.59375 
L 39.703125 30.90625 
Q 54.640625 37.84375 64.796875 48.296875 
Q 59.515625 54.203125 56.109375 60.015625 
Q 51.609375 52.734375 45.21875 46.484375 
L 40.875 51.421875 
Q 54.109375 64.890625 58.40625 82.671875 
L 65.09375 80.859375 
Q 64.59375 79.25 63.28125 75.09375 
L 84.03125 75.09375 
L 87.40625 72.265625 
Q 81.15625 58.109375 73.921875 49.125 
L 73.390625 48.484375 
Q 83.640625 39.59375 96.625 34.078125 
L 92.234375 27.296875 
Q 78.125 35.296875 69.28125 43.703125 
Q 61.96875 36.234375 52.78125 30.328125 
z
M 56.6875 24.3125 
L 56.6875 4.109375 
L 80.21875 4.109375 
L 80.21875 24.3125 
z
M 60.890625 69.09375 
L 60.59375 68.40625 
Q 59.8125 66.609375 59.375 65.765625 
Q 63.09375 59.125 68.796875 53.03125 
Q 74.5625 60.296875 78.328125 69.09375 
z
M 15.09375 71.875 
L 15.09375 53.609375 
L 33.59375 53.609375 
L 33.59375 71.875 
z
" id="IPAexGothic-36335"/>
      <path d="M 26.65625 -15.484375 
L 9.078125 -15.484375 
L 9.078125 74.21875 
L 26.65625 74.21875 
L 26.65625 69.34375 
L 16.0625 69.34375 
L 16.0625 -10.59375 
L 26.65625 -10.59375 
z
" id="IPAexGothic-91"/>
      <path d="M 27.6875 64.984375 
Q 22.5625 53.46875 13.671875 43.796875 
L 8.25 49.46875 
Q 20.65625 61.578125 25.484375 82.171875 
L 32.953125 80.5625 
Q 31.15625 74.359375 30.171875 71.296875 
L 88.96875 71.296875 
L 88.96875 64.984375 
L 58.6875 64.984375 
L 58.6875 48.875 
L 84.90625 48.875 
L 84.90625 42.578125 
L 58.6875 42.578125 
L 58.6875 23.578125 
L 94.96875 23.578125 
L 94.96875 17.09375 
L 58.6875 17.09375 
L 58.6875 -7.03125 
L 51.171875 -7.03125 
L 51.171875 17.09375 
L 6.984375 17.09375 
L 6.984375 23.578125 
L 23.96875 23.578125 
L 23.96875 48.875 
L 51.171875 48.875 
L 51.171875 64.984375 
z
M 51.171875 42.578125 
L 31.15625 42.578125 
L 31.15625 23.578125 
L 51.171875 23.578125 
z
" id="IPAexGothic-24180"/>
      <path d="M 20.65625 -15.484375 
L 3.078125 -15.484375 
L 3.078125 -10.59375 
L 13.671875 -10.59375 
L 13.671875 69.34375 
L 3.078125 69.34375 
L 3.078125 74.21875 
L 20.65625 74.21875 
z
" id="IPAexGothic-93"/>
     </defs>
     <g transform="translate(154.628438 332.71125)scale(0.1 -0.1)">
      <use xlink:href="#IPAexGothic-20840"/>
      <use x="100" xlink:href="#IPAexGothic-26085"/>
      <use x="200" xlink:href="#IPAexGothic-26412"/>
      <use x="300" xlink:href="#IPAexGothic-12510"/>
      <use x="400" xlink:href="#IPAexGothic-12452"/>
      <use x="500" xlink:href="#IPAexGothic-12463"/>
      <use x="600" xlink:href="#IPAexGothic-12525"/>
      <use x="700" xlink:href="#IPAexGothic-12510"/>
      <use x="800" xlink:href="#IPAexGothic-12454"/>
      <use x="900" xlink:href="#IPAexGothic-12473"/>
      <use x="1000" xlink:href="#IPAexGothic-22823"/>
      <use x="1100" xlink:href="#IPAexGothic-20250"/>
      <use x="1200" xlink:href="#IPAexGothic-32"/>
      <use x="1227.001953" xlink:href="#IPAexGothic-51"/>
      <use x="1289.990234" xlink:href="#IPAexGothic-50"/>
      <use x="1352.978516" xlink:href="#IPAexGothic-120"/>
      <use x="1401.855469" xlink:href="#IPAexGothic-51"/>
      <use x="1464.84375" xlink:href="#IPAexGothic-50"/>
      <use x="1527.832031" xlink:href="#IPAexGothic-36855"/>
      <use x="1627.832031" xlink:href="#IPAexGothic-36335"/>
      <use x="1727.832031" xlink:href="#IPAexGothic-32"/>
      <use x="1754.833984" xlink:href="#IPAexGothic-91"/>
      <use x="1784.814453" xlink:href="#IPAexGothic-24180"/>
      <use x="1884.814453" xlink:href="#IPAexGothic-93"/>
     </g>
    </g>
   </g>
   <g id="matplotlib.axis_2">
    <g id="ytick_1">
     <g id="line2d_11">
      <defs>
       <path d="M 0 0 
L -3.5 0 
" id="mf2c2e995a5" style="stroke:#000000;stroke-width:0.8;"/>
      </defs>
      <g>
       <use style="stroke:#000000;stroke-width:0.8;" x="50.735" xlink:href="#mf2c2e995a5" y="304.405"/>
      </g>
     </g>
     <g id="text_12">
      <!-- 0 -->
      <g transform="translate(37.436563 308.150312)scale(0.1 -0.1)">
       <use xlink:href="#IPAexGothic-48"/>
      </g>
     </g>
    </g>
    <g id="ytick_2">
     <g id="line2d_12">
      <g>
       <use style="stroke:#000000;stroke-width:0.8;" x="50.735" xlink:href="#mf2c2e995a5" y="271.779355"/>
      </g>
     </g>
     <g id="text_13">
      <!-- 50 -->
      <g transform="translate(31.138125 275.524667)scale(0.1 -0.1)">
       <use xlink:href="#IPAexGothic-53"/>
       <use x="62.988281" xlink:href="#IPAexGothic-48"/>
      </g>
     </g>
    </g>
    <g id="ytick_3">
     <g id="line2d_13">
      <g>
       <use style="stroke:#000000;stroke-width:0.8;" x="50.735" xlink:href="#mf2c2e995a5" y="239.15371"/>
      </g>
     </g>
     <g id="text_14">
      <!-- 100 -->
      <g transform="translate(24.839688 242.899022)scale(0.1 -0.1)">
       <use xlink:href="#IPAexGothic-49"/>
       <use x="62.988281" xlink:href="#IPAexGothic-48"/>
       <use x="125.976562" xlink:href="#IPAexGothic-48"/>
      </g>
     </g>
    </g>
    <g id="ytick_4">
     <g id="line2d_14">
      <g>
       <use style="stroke:#000000;stroke-width:0.8;" x="50.735" xlink:href="#mf2c2e995a5" y="206.528065"/>
      </g>
     </g>
     <g id="text_15">
      <!-- 150 -->
      <g transform="translate(24.839688 210.273377)scale(0.1 -0.1)">
       <use xlink:href="#IPAexGothic-49"/>
       <use x="62.988281" xlink:href="#IPAexGothic-53"/>
       <use x="125.976562" xlink:href="#IPAexGothic-48"/>
      </g>
     </g>
    </g>
    <g id="ytick_5">
     <g id="line2d_15">
      <g>
       <use style="stroke:#000000;stroke-width:0.8;" x="50.735" xlink:href="#mf2c2e995a5" y="173.90242"/>
      </g>
     </g>
     <g id="text_16">
      <!-- 200 -->
      <g transform="translate(24.839688 177.647732)scale(0.1 -0.1)">
       <use xlink:href="#IPAexGothic-50"/>
       <use x="62.988281" xlink:href="#IPAexGothic-48"/>
       <use x="125.976562" xlink:href="#IPAexGothic-48"/>
      </g>
     </g>
    </g>
    <g id="ytick_6">
     <g id="line2d_16">
      <g>
       <use style="stroke:#000000;stroke-width:0.8;" x="50.735" xlink:href="#mf2c2e995a5" y="141.276775"/>
      </g>
     </g>
     <g id="text_17">
      <!-- 250 -->
      <g transform="translate(24.839688 145.022087)scale(0.1 -0.1)">
       <use xlink:href="#IPAexGothic-50"/>
       <use x="62.988281" xlink:href="#IPAexGothic-53"/>
       <use x="125.976562" xlink:href="#IPAexGothic-48"/>
      </g>
     </g>
    </g>
    <g id="ytick_7">
     <g id="line2d_17">
      <g>
       <use style="stroke:#000000;stroke-width:0.8;" x="50.735" xlink:href="#mf2c2e995a5" y="108.651129"/>
      </g>
     </g>
     <g id="text_18">
      <!-- 300 -->
      <g transform="translate(24.839688 112.396442)scale(0.1 -0.1)">
       <use xlink:href="#IPAexGothic-51"/>
       <use x="62.988281" xlink:href="#IPAexGothic-48"/>
       <use x="125.976562" xlink:href="#IPAexGothic-48"/>
      </g>
     </g>
    </g>
    <g id="ytick_8">
     <g id="line2d_18">
      <g>
       <use style="stroke:#000000;stroke-width:0.8;" x="50.735" xlink:href="#mf2c2e995a5" y="76.025484"/>
      </g>
     </g>
     <g id="text_19">
      <!-- 350 -->
      <g transform="translate(24.839688 79.770797)scale(0.1 -0.1)">
       <use xlink:href="#IPAexGothic-51"/>
       <use x="62.988281" xlink:href="#IPAexGothic-53"/>
       <use x="125.976562" xlink:href="#IPAexGothic-48"/>
      </g>
     </g>
    </g>
    <g id="ytick_9">
     <g id="line2d_19">
      <g>
       <use style="stroke:#000000;stroke-width:0.8;" x="50.735" xlink:href="#mf2c2e995a5" y="43.399839"/>
      </g>
     </g>
     <g id="text_20">
      <!-- 400 -->
      <g transform="translate(24.839688 47.145152)scale(0.1 -0.1)">
       <use xlink:href="#IPAexGothic-52"/>
       <use x="62.988281" xlink:href="#IPAexGothic-48"/>
       <use x="125.976562" xlink:href="#IPAexGothic-48"/>
      </g>
     </g>
    </g>
    <g id="text_21">
     <!-- 見積探索時間 [秒] -->
     <defs>
      <path d="M 63.328125 25.484375 
L 63.328125 6.296875 
Q 63.328125 3.03125 64.984375 2.25 
Q 66.546875 1.5625 71.78125 1.5625 
Q 81.34375 1.5625 82.859375 4.25 
Q 83.890625 6.15625 84.46875 16.109375 
L 84.578125 17.78125 
L 91.890625 15.09375 
Q 91.109375 1.171875 88.375 -2 
Q 85.546875 -5.328125 71.34375 -5.328125 
Q 63.140625 -5.328125 60.296875 -4.203125 
Q 56 -2.59375 56 2.875 
L 56 25.484375 
L 42.484375 25.484375 
Q 41.609375 9.859375 34.671875 3.078125 
Q 27.25 -4 11.8125 -7.328125 
L 8.015625 -0.59375 
Q 23.4375 2.09375 29.5 8.015625 
Q 34.625 12.984375 35.109375 25.484375 
L 20.125 25.484375 
L 20.125 78.90625 
L 79.78125 78.90625 
L 79.78125 25.484375 
z
M 27.296875 72.703125 
L 27.296875 63.1875 
L 72.46875 63.1875 
L 72.46875 72.703125 
z
M 27.296875 57.078125 
L 27.296875 47.609375 
L 72.46875 47.609375 
L 72.46875 57.078125 
z
M 27.296875 41.609375 
L 27.296875 31.6875 
L 72.46875 31.6875 
L 72.46875 41.609375 
z
" id="IPAexGothic-35211"/>
      <path d="M 37.015625 54.890625 
L 62.203125 54.890625 
L 62.203125 59.8125 
L 41.5 59.8125 
L 41.5 64.890625 
L 62.203125 64.890625 
L 62.203125 69.484375 
L 38.625 69.484375 
L 38.625 74.8125 
L 62.203125 74.8125 
L 62.203125 83.015625 
L 68.796875 83.015625 
L 68.796875 74.8125 
L 93.21875 74.8125 
L 93.21875 69.484375 
L 68.796875 69.484375 
L 68.796875 64.890625 
L 89.796875 64.890625 
L 89.796875 59.8125 
L 68.796875 59.8125 
L 68.796875 54.890625 
L 95.015625 54.890625 
L 95.015625 49.46875 
L 36.078125 49.46875 
L 36.078125 51.515625 
L 26.21875 51.515625 
L 26.21875 42.390625 
Q 32.671875 37.0625 39.203125 29.984375 
L 34.8125 23.6875 
Q 31.15625 29.34375 26.21875 34.765625 
L 26.21875 -7.03125 
L 19.625 -7.03125 
L 19.625 38.03125 
Q 14.59375 22.40625 7.03125 11.578125 
L 3.71875 18.453125 
Q 14.5 34.328125 18.796875 51.515625 
L 5.125 51.515625 
L 5.125 57.8125 
L 19.625 57.8125 
L 19.625 71.09375 
Q 13.375 69.828125 8.109375 69.09375 
L 5.328125 74.8125 
Q 19.921875 76.859375 32.328125 81.59375 
L 37.203125 75.921875 
Q 31.734375 74.03125 26.21875 72.609375 
L 26.21875 57.8125 
L 37.015625 57.8125 
z
M 56.59375 8.984375 
L 61.71875 4.78125 
Q 51.3125 -3.421875 40.28125 -7.625 
L 35.59375 -2.203125 
Q 46.390625 1.46875 56.5 8.984375 
L 43.609375 8.984375 
L 43.609375 44.578125 
L 88.328125 44.578125 
L 88.328125 8.984375 
z
M 49.90625 39.40625 
L 49.90625 34.28125 
L 81.9375 34.28125 
L 81.9375 39.40625 
z
M 49.90625 29.59375 
L 49.90625 24.515625 
L 81.9375 24.515625 
L 81.9375 29.59375 
z
M 49.90625 19.828125 
L 49.90625 14.3125 
L 81.9375 14.3125 
L 81.9375 19.828125 
z
M 90.484375 -6.59375 
Q 80.671875 0.09375 69.78125 4.59375 
L 74.515625 8.890625 
Q 84.765625 5.375 95.796875 -1.125 
z
" id="IPAexGothic-31309"/>
      <path d="M 74.90625 70.703125 
L 74.90625 53.375 
Q 74.90625 51.421875 75.78125 50.78125 
Q 76.765625 50.09375 80.171875 50.09375 
Q 85.75 50.09375 86.671875 51.8125 
Q 87.3125 53.078125 87.5 58.6875 
L 93.796875 56.5 
Q 93.3125 48.390625 91.890625 46.484375 
Q 89.890625 43.890625 79.203125 43.890625 
Q 72.953125 43.890625 71.09375 44.875 
Q 68.21875 46.296875 68.21875 50 
L 68.21875 70.703125 
L 44.28125 70.703125 
L 44.28125 57.671875 
L 37.5 57.671875 
L 37.5 76.90625 
L 92.1875 76.90625 
L 92.1875 60.40625 
L 85.5 60.40625 
L 85.5 70.703125 
z
M 69.828125 27.78125 
Q 79.4375 13.03125 96.09375 4.78125 
L 91.109375 -1.609375 
Q 75.875 8.15625 68.109375 20.796875 
L 68.109375 -7.03125 
L 61.421875 -7.03125 
L 61.421875 20.171875 
Q 54.25 6.25 39.015625 -2.9375 
L 34.234375 2.875 
Q 50.640625 10.9375 59.8125 27.78125 
L 36.71875 27.78125 
L 36.71875 33.984375 
L 61.421875 33.984375 
L 61.421875 44.671875 
L 68.109375 44.671875 
L 68.109375 33.984375 
L 94.1875 33.984375 
L 94.1875 27.78125 
z
M 18.5 62.796875 
L 18.5 83.015625 
L 25.203125 83.015625 
L 25.203125 62.796875 
L 34.96875 62.796875 
L 34.96875 56.296875 
L 25.203125 56.296875 
L 25.203125 37.59375 
Q 29 38.8125 35.5 41.3125 
L 36.1875 35.5 
Q 30.71875 33.0625 25.203125 31 
L 25.203125 0.09375 
Q 25.203125 -4.25 23.296875 -5.671875 
Q 21.734375 -6.984375 17 -6.984375 
Q 12.546875 -6.984375 8.203125 -6.390625 
L 6.984375 0.78125 
Q 11.671875 -0.09375 15.28125 -0.09375 
Q 18.5 -0.09375 18.5 2.6875 
L 18.5 28.609375 
Q 11.859375 26.3125 6.6875 24.8125 
L 4.296875 31.390625 
Q 9.90625 32.8125 18.5 35.40625 
L 18.5 56.296875 
L 5.8125 56.296875 
L 5.8125 62.796875 
z
M 37.984375 45.515625 
Q 52.734375 52.15625 54.390625 69.28125 
L 60.984375 67.828125 
Q 59.46875 54.59375 52.296875 47.125 
Q 48.640625 43.3125 42.28125 39.890625 
z
" id="IPAexGothic-25506"/>
      <path d="M 53.421875 19.484375 
L 53.421875 -7.03125 
L 45.796875 -7.03125 
L 45.796875 19.09375 
L 39.796875 18.890625 
Q 28.609375 18.40625 8.203125 17.875 
L 6 24.609375 
Q 18.5 24.609375 34.71875 24.8125 
L 38.28125 24.90625 
Q 28.078125 34.671875 20.265625 40.09375 
L 25.484375 44.28125 
Q 29.9375 41.15625 33.796875 37.796875 
Q 40.140625 43.5 45.515625 50.59375 
L 15.28125 50.59375 
L 15.28125 39.984375 
L 8.40625 39.984375 
L 8.40625 56.5 
L 46.09375 56.5 
L 46.09375 65.71875 
L 10.984375 65.71875 
L 10.984375 71.921875 
L 46.09375 71.921875 
L 46.09375 83.015625 
L 53.171875 83.015625 
L 53.171875 71.921875 
L 88.921875 71.921875 
L 88.921875 65.71875 
L 53.171875 65.71875 
L 53.171875 56.5 
L 91.703125 56.5 
L 91.703125 39.984375 
L 84.8125 39.984375 
L 84.8125 50.59375 
L 47.796875 50.59375 
L 52 47.796875 
Q 44.484375 39.0625 38.28125 33.984375 
Q 40.578125 32.125 45.515625 27.203125 
Q 56.9375 36.328125 66.5 47.265625 
L 72.703125 43.40625 
Q 63.140625 33.34375 53.8125 25.984375 
L 52.875 25.296875 
L 58.109375 25.484375 
L 60.40625 25.484375 
L 73.09375 25.984375 
L 74.8125 26.078125 
L 78.71875 26.265625 
Q 74.65625 29.984375 70.796875 33.203125 
L 75.640625 36.859375 
Q 85.9375 29.203125 94.578125 20.0625 
L 88.921875 15.375 
Q 85.453125 19.4375 83.59375 21.390625 
L 79.9375 21.09375 
Q 76.703125 20.953125 70.796875 20.515625 
z
M 8.5 -0.09375 
Q 21.78125 5.71875 31.296875 15.375 
L 37.984375 12.015625 
Q 27.390625 0.921875 14.40625 -5.71875 
z
M 86.53125 -4.390625 
Q 74.953125 5.8125 62.59375 12.5 
L 68.3125 16.703125 
Q 81.6875 10.0625 92.53125 1.421875 
z
" id="IPAexGothic-32034"/>
      <path d="M 36.375 73.875 
L 36.375 8.796875 
L 14.59375 8.796875 
L 14.59375 0.875 
L 8.109375 0.875 
L 8.109375 73.875 
z
M 14.59375 67.671875 
L 14.59375 45.015625 
L 29.78125 45.015625 
L 29.78125 67.671875 
z
M 14.59375 39.015625 
L 14.59375 14.890625 
L 29.78125 14.890625 
L 29.78125 39.015625 
z
M 61.53125 68.3125 
L 61.53125 83.015625 
L 68.40625 83.015625 
L 68.40625 68.3125 
L 90.1875 68.3125 
L 90.1875 62.203125 
L 68.40625 62.203125 
L 68.40625 49.90625 
L 94.875 49.90625 
L 94.875 43.796875 
L 81.296875 43.796875 
L 81.296875 31.984375 
L 93.109375 31.984375 
L 93.109375 25.78125 
L 81.5 25.78125 
L 81.5 0.484375 
Q 81.5 -6.984375 73.296875 -6.984375 
Q 68.65625 -6.984375 60.75 -6.109375 
L 59.125 1.21875 
Q 66.75 0 71.734375 0 
Q 74.609375 0 74.609375 2.6875 
L 74.609375 25.78125 
L 40.328125 25.78125 
L 40.328125 31.984375 
L 74.421875 31.984375 
L 74.421875 43.796875 
L 39.65625 43.796875 
L 39.65625 49.90625 
L 61.53125 49.90625 
L 61.53125 62.203125 
L 42.4375 62.203125 
L 42.4375 68.3125 
z
M 57.328125 6 
Q 52.046875 14.84375 46.1875 20.703125 
L 51.421875 24.609375 
Q 58.109375 17.921875 62.890625 10.296875 
z
" id="IPAexGothic-26178"/>
      <path d="M 69.53125 40.09375 
L 69.53125 5.515625 
L 37.109375 5.515625 
L 37.109375 -0.390625 
L 30.515625 -0.390625 
L 30.515625 40.09375 
z
M 62.9375 34.375 
L 37.109375 34.375 
L 37.109375 25.828125 
L 62.9375 25.828125 
z
M 62.9375 20.3125 
L 37.109375 20.3125 
L 37.109375 11.234375 
L 62.9375 11.234375 
z
M 45.515625 78.421875 
L 45.515625 47.796875 
L 16.5 47.796875 
L 16.5 -6.984375 
L 9.515625 -6.984375 
L 9.515625 78.421875 
z
M 16.5 72.796875 
L 16.5 65.71875 
L 39.015625 65.71875 
L 39.015625 72.796875 
z
M 16.5 60.640625 
L 16.5 53.328125 
L 39.015625 53.328125 
L 39.015625 60.640625 
z
M 90.4375 78.421875 
L 90.4375 1.421875 
Q 90.4375 -3.515625 88.140625 -5.171875 
Q 86.328125 -6.390625 81.734375 -6.390625 
Q 75.046875 -6.390625 70.015625 -5.71875 
L 69.046875 1.515625 
Q 75.828125 0.59375 80.125 0.59375 
Q 83.453125 0.59375 83.453125 3.8125 
L 83.453125 47.796875 
L 53.71875 47.796875 
L 53.71875 78.421875 
z
M 60.203125 72.796875 
L 60.203125 65.71875 
L 83.453125 65.71875 
L 83.453125 72.796875 
z
M 60.203125 60.640625 
L 60.203125 53.328125 
L 83.453125 53.328125 
L 83.453125 60.640625 
z
" id="IPAexGothic-38291"/>
      <path d="M 21.09375 36.859375 
Q 15.578125 20.5625 8.015625 10.296875 
L 4.109375 16.890625 
Q 14.84375 31.390625 20.125 48.875 
L 5.71875 48.875 
L 5.71875 55.171875 
L 21.09375 55.171875 
L 21.09375 68.75 
L 18.796875 68.359375 
Q 13.234375 67.28125 8.984375 66.65625 
L 5.71875 72.5625 
Q 23.6875 75.140625 36.859375 80.375 
L 41.890625 74.171875 
Q 35.15625 71.96875 27.875 70.265625 
L 27.875 55.171875 
L 42 55.171875 
L 42 48.875 
L 27.875 48.875 
L 27.875 40.28125 
Q 36.03125 33.6875 42.484375 26.46875 
L 38.1875 19.484375 
Q 32.90625 27 27.875 32.375 
L 27.875 -7.03125 
L 21.09375 -7.03125 
z
M 63.8125 82.8125 
L 70.703125 82.8125 
L 70.703125 26.90625 
Q 70.703125 20.015625 63.234375 20.015625 
Q 58.015625 20.015625 53.125 20.703125 
L 52 27.875 
Q 57.28125 27 61.140625 27 
Q 63.8125 27 63.8125 29.78125 
z
M 89.3125 36.28125 
Q 81.734375 53.71875 74.03125 65.578125 
L 80.078125 68.703125 
Q 89.359375 54.9375 95.609375 41.21875 
z
M 40.28125 35.6875 
Q 47.21875 47.703125 50.78125 66.609375 
L 57.71875 64.890625 
Q 54.25 44.484375 46.09375 30.71875 
z
M 40.375 -1.609375 
Q 53.328125 2.59375 61.1875 8.203125 
Q 75.25 18.0625 82.90625 36.8125 
L 89.40625 33.015625 
Q 81.34375 14.65625 68.40625 4.390625 
Q 58.984375 -3.078125 45.125 -7.90625 
z
" id="IPAexGothic-31186"/>
     </defs>
     <g transform="translate(18.939688 204.670312)rotate(-90)scale(0.1 -0.1)">
      <use xlink:href="#IPAexGothic-35211"/>
      <use x="100" xlink:href="#IPAexGothic-31309"/>
      <use x="200" xlink:href="#IPAexGothic-25506"/>
      <use x="300" xlink:href="#IPAexGothic-32034"/>
      <use x="400" xlink:href="#IPAexGothic-26178"/>
      <use x="500" xlink:href="#IPAexGothic-38291"/>
      <use x="600" xlink:href="#IPAexGothic-32"/>
      <use x="627.001953" xlink:href="#IPAexGothic-91"/>
      <use x="656.982422" xlink:href="#IPAexGothic-31186"/>
      <use x="756.982422" xlink:href="#IPAexGothic-93"/>
     </g>
    </g>
   </g>
   <g id="patch_13">
    <path d="M 50.735 304.405 
L 50.735 26.23875 
" style="fill:none;stroke:#000000;stroke-linecap:square;stroke-linejoin:miter;stroke-width:0.8;"/>
   </g>
   <g id="patch_14">
    <path d="M 450 304.405 
L 450 26.23875 
" style="fill:none;stroke:#000000;stroke-linecap:square;stroke-linejoin:miter;stroke-width:0.8;"/>
   </g>
   <g id="patch_15">
    <path d="M 50.735 304.405 
L 450 304.405 
" style="fill:none;stroke:#000000;stroke-linecap:square;stroke-linejoin:miter;stroke-width:0.8;"/>
   </g>
   <g id="patch_16">
    <path d="M 50.735 26.23875 
L 450 26.23875 
" style="fill:none;stroke:#000000;stroke-linecap:square;stroke-linejoin:miter;stroke-width:0.8;"/>
   </g>
   <g id="text_22">
    <!-- 6:24 -->
    <defs>
     <path d="M 21.390625 39.984375 
L 10.5 39.984375 
L 10.5 50.78125 
L 21.390625 50.78125 
z
M 21.390625 0.984375 
L 10.5 0.984375 
L 10.5 11.765625 
L 21.390625 11.765625 
z
" id="IPAexGothic-58"/>
    </defs>
    <g transform="translate(72.651562 51.940046)scale(0.1 -0.1)">
     <use xlink:href="#IPAexGothic-54"/>
     <use x="62.988281" xlink:href="#IPAexGothic-58"/>
     <use x="94.970703" xlink:href="#IPAexGothic-50"/>
     <use x="157.958984" xlink:href="#IPAexGothic-52"/>
    </g>
   </g>
   <g id="text_23">
    <!-- 6:03 -->
    <g transform="translate(109.689131 65.642817)scale(0.1 -0.1)">
     <use xlink:href="#IPAexGothic-54"/>
     <use x="62.988281" xlink:href="#IPAexGothic-58"/>
     <use x="94.970703" xlink:href="#IPAexGothic-48"/>
     <use x="157.958984" xlink:href="#IPAexGothic-51"/>
    </g>
   </g>
   <g id="text_24">
    <!-- 4:07 -->
    <g transform="translate(146.726701 141.334313)scale(0.1 -0.1)">
     <use xlink:href="#IPAexGothic-52"/>
     <use x="62.988281" xlink:href="#IPAexGothic-58"/>
     <use x="94.970703" xlink:href="#IPAexGothic-48"/>
     <use x="157.958984" xlink:href="#IPAexGothic-55"/>
    </g>
   </g>
   <g id="text_25">
    <!-- 4:07 -->
    <g transform="translate(183.764271 141.334313)scale(0.1 -0.1)">
     <use xlink:href="#IPAexGothic-52"/>
     <use x="62.988281" xlink:href="#IPAexGothic-58"/>
     <use x="94.970703" xlink:href="#IPAexGothic-48"/>
     <use x="157.958984" xlink:href="#IPAexGothic-55"/>
    </g>
   </g>
   <g id="text_26">
    <!-- 5:11 -->
    <g transform="translate(220.80184 99.573488)scale(0.1 -0.1)">
     <use xlink:href="#IPAexGothic-53"/>
     <use x="62.988281" xlink:href="#IPAexGothic-58"/>
     <use x="94.970703" xlink:href="#IPAexGothic-49"/>
     <use x="157.958984" xlink:href="#IPAexGothic-49"/>
    </g>
   </g>
   <g id="text_27">
    <!-- 4:25 -->
    <g transform="translate(257.83941 129.589081)scale(0.1 -0.1)">
     <use xlink:href="#IPAexGothic-52"/>
     <use x="62.988281" xlink:href="#IPAexGothic-58"/>
     <use x="94.970703" xlink:href="#IPAexGothic-50"/>
     <use x="157.958984" xlink:href="#IPAexGothic-53"/>
    </g>
   </g>
   <g id="text_28">
    <!-- 6:46 -->
    <g transform="translate(294.876979 37.584762)scale(0.1 -0.1)">
     <use xlink:href="#IPAexGothic-54"/>
     <use x="62.988281" xlink:href="#IPAexGothic-58"/>
     <use x="94.970703" xlink:href="#IPAexGothic-52"/>
     <use x="157.958984" xlink:href="#IPAexGothic-54"/>
    </g>
   </g>
   <g id="text_29">
    <!-- 5:05 -->
    <g transform="translate(331.914549 103.488565)scale(0.1 -0.1)">
     <use xlink:href="#IPAexGothic-53"/>
     <use x="62.988281" xlink:href="#IPAexGothic-58"/>
     <use x="94.970703" xlink:href="#IPAexGothic-48"/>
     <use x="157.958984" xlink:href="#IPAexGothic-53"/>
    </g>
   </g>
   <g id="text_30">
    <!-- 5:35 -->
    <g transform="translate(368.952119 83.913178)scale(0.1 -0.1)">
     <use xlink:href="#IPAexGothic-53"/>
     <use x="62.988281" xlink:href="#IPAexGothic-58"/>
     <use x="94.970703" xlink:href="#IPAexGothic-51"/>
     <use x="157.958984" xlink:href="#IPAexGothic-53"/>
    </g>
   </g>
   <g id="text_31">
    <!-- 6:31 -->
    <g transform="translate(405.989688 47.372455)scale(0.1 -0.1)">
     <use xlink:href="#IPAexGothic-54"/>
     <use x="62.988281" xlink:href="#IPAexGothic-58"/>
     <use x="94.970703" xlink:href="#IPAexGothic-51"/>
     <use x="157.958984" xlink:href="#IPAexGothic-49"/>
    </g>
   </g>
   <g id="text_32">
    <!-- 最短経路探索に要する時間の比較 -->
    <defs>
     <path d="M 79.78125 78.90625 
L 79.78125 51.171875 
L 20.0625 51.171875 
L 20.0625 78.90625 
z
M 27.203125 73.390625 
L 27.203125 67.671875 
L 72.75 67.671875 
L 72.75 73.390625 
z
M 27.203125 62.5 
L 27.203125 56.59375 
L 72.75 56.59375 
L 72.75 62.5 
z
M 45.703125 39.5 
L 45.703125 -7.03125 
L 39.109375 -7.03125 
L 39.109375 3.5625 
Q 29.203125 1.46875 8.203125 -1.21875 
L 6.390625 5.5625 
Q 7.671875 5.671875 9.515625 5.8125 
Q 11.328125 5.953125 11.8125 5.953125 
L 15.53125 6.296875 
L 15.53125 39.5 
L 6 39.5 
L 6 45.3125 
L 94 45.3125 
L 94 39.5 
z
M 39.109375 39.5 
L 21.875 39.5 
L 21.875 32.625 
L 39.109375 32.625 
z
M 39.109375 27.546875 
L 21.875 27.546875 
L 21.875 20.453125 
L 39.109375 20.453125 
z
M 39.109375 15.375 
L 21.875 15.375 
L 21.875 6.78125 
L 27.484375 7.375 
Q 33.734375 7.8125 39.109375 8.59375 
z
M 75.6875 9.1875 
Q 83.59375 3.515625 94.484375 -0.140625 
L 89.890625 -6.546875 
Q 79.15625 -2 71.1875 4.5 
Q 62.5 -3.765625 51.265625 -8.34375 
L 46.96875 -2.546875 
Q 58.34375 1.3125 66.609375 8.796875 
Q 58.15625 17.828125 54.109375 28.171875 
L 48.1875 28.171875 
L 48.1875 33.890625 
L 84.765625 33.890625 
L 88.375 30.671875 
Q 83.25 18.40625 76.265625 9.96875 
z
M 70.90625 13.28125 
Q 76.3125 19.921875 79.984375 28.171875 
L 60.5 28.171875 
Q 64.265625 19.921875 70.90625 13.28125 
z
" id="IPAexGothic-26368"/>
     <path d="M 30.328125 62.890625 
L 30.328125 43.3125 
L 43.609375 43.3125 
L 43.609375 37.109375 
L 30.21875 37.109375 
Q 29.984375 32.171875 29.6875 29.59375 
Q 39.109375 21.578125 46.390625 11.8125 
L 41.40625 6.109375 
Q 35.84375 14.546875 28.71875 22.3125 
Q 25 3.953125 10.40625 -7.625 
L 5.515625 -2 
Q 16.3125 6 20.703125 18.609375 
Q 22.953125 25.6875 23.4375 37.109375 
L 5.71875 37.109375 
L 5.71875 43.3125 
L 23.53125 43.3125 
L 23.53125 62.890625 
L 18.890625 62.890625 
Q 15.96875 54.046875 11.625 46.828125 
L 6.296875 51.125 
Q 13.625 63.765625 16.3125 82.8125 
L 23 81.78125 
Q 22.015625 74.703125 20.609375 69 
L 41.40625 69 
L 41.40625 62.890625 
z
M 87.203125 58.296875 
L 87.203125 29.296875 
L 47.3125 29.296875 
L 47.3125 58.296875 
z
M 54 52.09375 
L 54 35.40625 
L 80.515625 35.40625 
L 80.515625 52.09375 
z
M 69.28125 2.484375 
Q 73.6875 12.84375 77.296875 27.09375 
L 84.625 24.703125 
Q 80.328125 10.9375 76.078125 2.484375 
L 95.015625 2.484375 
L 95.015625 -4 
L 39.984375 -4 
L 39.984375 2.484375 
z
M 43.109375 75.78125 
L 92 75.78125 
L 92 69.28125 
L 43.109375 69.28125 
z
M 57.421875 4.59375 
Q 54.59375 14.84375 50.09375 24.03125 
L 56.5 26.421875 
Q 60.640625 17.96875 64.015625 7.328125 
z
" id="IPAexGothic-30701"/>
     <path d="M 20.171875 47.796875 
Q 14.40625 56.34375 6.546875 64.203125 
L 11.28125 69.140625 
Q 12.15625 68.109375 13.375 66.75 
Q 14.5 65.53125 14.75 65.234375 
Q 20.84375 73.921875 24.859375 83.203125 
L 31.640625 79.9375 
Q 24.21875 67.390625 18.5625 60.59375 
Q 21.53125 56.84375 23.96875 53.328125 
Q 28.953125 60.890625 34.578125 71.34375 
L 40.875 67.828125 
Q 30.609375 50.984375 21.34375 40.046875 
Q 23.921875 40.09375 36.421875 41.015625 
Q 34.8125 45.265625 32.328125 50 
L 37.546875 52.546875 
Q 42 45.21875 44.734375 37.015625 
Q 54.640625 41.75 64.15625 50 
Q 55.671875 58.34375 49.46875 70.015625 
L 43.953125 70.015625 
L 43.953125 76.3125 
L 85.0625 76.3125 
L 88.765625 72.703125 
Q 82.90625 61.03125 73.53125 50.640625 
Q 83.34375 43.84375 95.265625 39.84375 
L 90.96875 33.015625 
Q 77.9375 38.421875 68.84375 45.796875 
Q 59.078125 36.765625 47.265625 30.421875 
L 44.046875 34.90625 
L 39.359375 32.421875 
Q 38.96875 34.03125 38.421875 35.5 
L 38.234375 36.140625 
Q 33.734375 35.40625 29.15625 34.71875 
L 29.15625 -6.984375 
L 22.5625 -6.984375 
L 22.5625 33.9375 
L 21.140625 33.84375 
Q 16.109375 33.296875 6.984375 32.515625 
L 4.984375 39.40625 
Q 11.859375 39.546875 14.359375 39.703125 
Q 16.65625 42.78125 20.171875 47.796875 
z
M 68.75 54.546875 
Q 75.296875 61.53125 79.546875 70.015625 
L 56.25 70.015625 
Q 60.890625 61.46875 68.75 54.546875 
z
M 64.703125 25 
L 64.703125 38.09375 
L 71.578125 38.09375 
L 71.578125 25 
L 89.703125 25 
L 89.703125 18.703125 
L 71.578125 18.703125 
L 71.578125 2.78125 
L 94.484375 2.78125 
L 94.484375 -3.515625 
L 43.015625 -3.515625 
L 43.015625 2.78125 
L 64.703125 2.78125 
L 64.703125 18.703125 
L 47.40625 18.703125 
L 47.40625 25 
z
M 6.203125 3.421875 
Q 10.0625 14.0625 11.078125 27.484375 
L 17.484375 26.703125 
Q 16.109375 10.640625 12.703125 -0.296875 
z
M 37.5 6 
Q 35.59375 17.328125 31.984375 27.296875 
L 37.703125 29 
Q 41.546875 20.015625 43.890625 8.890625 
z
" id="IPAexGothic-32076"/>
     <path d="M 17 -0.59375 
Q 14.40625 15.671875 14.40625 32.515625 
Q 14.40625 50.34375 20.796875 74.90625 
L 28.328125 73.1875 
Q 21.734375 48.640625 21.734375 31.296875 
Q 21.734375 22.515625 22.21875 17.921875 
Q 22.40625 18.453125 28.328125 31.5 
L 33.203125 28.078125 
Q 28.125 16.890625 26.421875 11.921875 
Q 24.703125 7.078125 24.703125 4.203125 
Q 24.703125 1.21875 24.8125 0.09375 
z
M 44.28125 63.09375 
Q 62.015625 65.828125 83.015625 65.1875 
L 83.40625 57.515625 
Q 61.859375 58.25 44.828125 55.421875 
z
M 88.28125 4 
Q 78.8125 2.6875 68.3125 2.6875 
Q 54.109375 2.6875 47.609375 6.78125 
Q 43.5 9.28125 41.796875 13.140625 
Q 40.1875 16.796875 40.1875 22.609375 
Q 40.1875 24.421875 40.28125 25.875 
L 47.703125 26.3125 
Q 47.65625 25.203125 47.5625 23.875 
Q 47.515625 23.140625 47.515625 22.90625 
Q 47.515625 18.75 48.734375 16.453125 
Q 49.65625 14.75 51.703125 13.28125 
Q 55.765625 10.59375 66.796875 10.59375 
Q 76.421875 10.59375 87.3125 11.921875 
z
" id="IPAexGothic-12395"/>
     <path d="M 35.59375 62.890625 
L 35.59375 71.578125 
L 8.25 71.578125 
L 8.25 77.78125 
L 91.5 77.78125 
L 91.5 71.578125 
L 63.765625 71.578125 
L 63.765625 62.890625 
L 86.28125 62.890625 
L 86.28125 39.796875 
L 13.484375 39.796875 
L 13.484375 62.890625 
z
M 42.09375 62.890625 
L 57.171875 62.890625 
L 57.171875 71.578125 
L 42.09375 71.578125 
z
M 35.59375 57.28125 
L 20.5625 57.28125 
L 20.5625 45.40625 
L 35.59375 45.40625 
z
M 42.09375 57.28125 
L 42.09375 45.40625 
L 57.171875 45.40625 
L 57.171875 57.28125 
z
M 63.765625 57.28125 
L 63.765625 45.40625 
L 79.296875 45.40625 
L 79.296875 57.28125 
z
M 47.90625 5.28125 
Q 39.796875 7.859375 26.46875 11.28125 
L 23.484375 12.109375 
Q 28.375 17.828125 32.28125 23.484375 
L 6.984375 23.484375 
L 6.984375 29.6875 
L 36.1875 29.6875 
Q 39.015625 34.765625 41.265625 39.3125 
L 48.1875 36.96875 
Q 46.625 33.9375 44.28125 29.6875 
L 92.96875 29.6875 
L 92.96875 23.484375 
L 72.171875 23.484375 
Q 68.265625 13.71875 62.3125 7.5625 
Q 74.21875 4.109375 90.578125 -1.421875 
L 84.578125 -7.625 
Q 69.390625 -1.5625 56.203125 2.6875 
Q 42.28125 -6.34375 13.578125 -8.296875 
L 9.765625 -1.515625 
Q 33.15625 -0.4375 47.90625 5.28125 
z
M 54.890625 9.671875 
Q 61.46875 16.015625 64.59375 23.484375 
L 40.578125 23.484375 
Q 37.703125 18.953125 34.96875 15.375 
L 34.578125 14.890625 
Q 41.5 13.328125 54.890625 9.671875 
z
" id="IPAexGothic-35201"/>
     <path d="M 51.90625 79.296875 
L 59.625 79.296875 
L 59.625 63.484375 
Q 64.546875 63.671875 89.9375 64.3125 
L 89.9375 57.328125 
Q 84.859375 57.375 59.625 57.078125 
L 59.625 38.484375 
Q 61.8125 33.203125 61.8125 27.203125 
Q 61.8125 14.40625 54.984375 6.203125 
Q 48.875 -1.125 36.078125 -6.390625 
L 30.328125 -0.484375 
Q 50.984375 7.078125 54.5 21.296875 
Q 50.78125 16.109375 43.890625 16.109375 
Q 38.140625 16.109375 33.59375 20.515625 
Q 29.296875 24.8125 29.296875 32.03125 
Q 29.296875 38.671875 33.84375 43.265625 
Q 37.984375 47.515625 44.09375 47.515625 
Q 48.25 47.515625 51.90625 45.015625 
L 51.90625 56.890625 
Q 46.875 56.78125 9.515625 55.421875 
L 9.515625 62.3125 
Q 18.703125 62.5 32.90625 62.84375 
Q 47.90625 63.234375 51.90625 63.28125 
z
M 52.6875 31.9375 
Q 52.6875 35.9375 49.90625 38.71875 
Q 47.65625 40.828125 44.828125 40.828125 
Q 40.96875 40.828125 38.484375 37.59375 
Q 36.625 35.15625 36.625 32.625 
Q 36.625 28.078125 38.8125 25.34375 
Q 41.015625 22.703125 44.671875 22.703125 
Q 52.6875 22.703125 52.6875 31.9375 
z
" id="IPAexGothic-12377"/>
     <path d="M 68.609375 68.703125 
L 40.828125 40.4375 
Q 50.390625 43.890625 58.734375 43.890625 
Q 66.609375 43.890625 72.796875 41.015625 
Q 84.234375 35.453125 84.234375 23.1875 
Q 84.234375 11.8125 73.53125 4.296875 
Q 63.625 -2.59375 47.703125 -2.59375 
Q 39.984375 -2.59375 35.109375 0.296875 
Q 29.109375 3.90625 29.109375 10.40625 
Q 29.109375 14.59375 32.328125 17.828125 
Q 36.421875 21.921875 42.828125 21.921875 
Q 54.828125 21.921875 62.796875 6.6875 
Q 76.125 12.25 76.125 23.296875 
Q 76.125 30.953125 69.828125 34.71875 
Q 65.09375 37.59375 57.515625 37.59375 
Q 37.890625 37.59375 19.34375 18.890625 
L 13.921875 24.703125 
Q 38.09375 45.84375 55.90625 66.890625 
Q 40.53125 64.453125 24.8125 63.53125 
L 23.09375 71.09375 
Q 40.53125 71.578125 64.203125 74.421875 
z
M 56.109375 4.734375 
Q 50.6875 16.015625 42.671875 16.015625 
Q 39.890625 16.015625 38.03125 14.59375 
Q 36.1875 13.1875 36.1875 10.9375 
Q 36.1875 3.90625 47.40625 3.90625 
Q 51.171875 3.90625 56.109375 4.734375 
z
" id="IPAexGothic-12427"/>
     <path d="M 48.734375 7.328125 
Q 82.421875 11.96875 82.421875 37.890625 
Q 82.421875 53.953125 68.953125 61.328125 
Q 63.140625 64.3125 55.421875 64.984375 
Q 53.03125 39.453125 44.53125 21.875 
Q 36.28125 4.78125 26.90625 4.78125 
Q 21.625 4.78125 16.9375 10.40625 
Q 9.515625 19.4375 9.515625 31.296875 
Q 9.515625 47.265625 21.828125 59.28125 
Q 34.125 71.296875 53.609375 71.296875 
Q 67.28125 71.296875 77 64.40625 
Q 90.828125 54.78125 90.828125 37.890625 
Q 90.828125 6.84375 53.609375 0.09375 
z
M 47.703125 64.796875 
Q 37.15625 63.1875 29.546875 56.890625 
Q 17.140625 46.578125 17.140625 31.109375 
Q 17.140625 21.34375 22.40625 15.28125 
Q 24.703125 12.703125 26.859375 12.703125 
Q 31.59375 12.703125 37.75 25.390625 
Q 45.453125 41.21875 47.703125 64.796875 
z
" id="IPAexGothic-12398"/>
     <path d="M 23.828125 50.78125 
L 46.921875 50.78125 
L 46.921875 44.09375 
L 23.828125 44.09375 
L 23.828125 7.375 
Q 38.578125 11.671875 47.125 14.59375 
L 47.515625 8.296875 
Q 28.328125 0.921875 7.171875 -4.6875 
L 4.59375 2.484375 
Q 10.84375 3.90625 16.5 5.375 
L 16.5 79.390625 
L 23.828125 79.390625 
z
M 59.28125 47.3125 
Q 73.296875 54.25 83.453125 63.09375 
L 89.75 57.90625 
Q 74.65625 46.390625 59.28125 40.1875 
L 59.28125 8.6875 
Q 59.28125 5.515625 62.15625 4.890625 
Q 64.15625 4.5 69.875 4.5 
Q 80.765625 4.5 83.25 5.90625 
Q 85.796875 7.234375 86.28125 23.6875 
L 93.65625 21.1875 
Q 93.21875 3.71875 90.1875 0.53125 
Q 86.96875 -2.6875 70.171875 -2.6875 
Q 59.515625 -2.6875 56.0625 -1.171875 
Q 52.09375 0.4375 52.09375 6.203125 
L 52.09375 79.890625 
L 59.28125 79.890625 
z
" id="IPAexGothic-27604"/>
     <path d="M 22.078125 57.625 
L 22.078125 64.890625 
L 6 64.890625 
L 6 70.90625 
L 22.078125 70.90625 
L 22.078125 83.015625 
L 28.375 83.015625 
L 28.375 70.90625 
L 44.921875 70.90625 
L 44.921875 64.890625 
L 28.375 64.890625 
L 28.375 57.625 
L 42.71875 57.625 
L 42.71875 23.6875 
L 28.375 23.6875 
L 28.375 15.828125 
L 45.796875 15.828125 
L 45.796875 9.8125 
L 28.375 9.8125 
L 28.375 -6.984375 
L 22.078125 -6.984375 
L 22.078125 9.8125 
L 4.59375 9.8125 
L 4.59375 15.828125 
L 22.078125 15.828125 
L 22.078125 23.6875 
L 8.296875 23.6875 
L 8.296875 57.625 
z
M 22.265625 52.390625 
L 14.109375 52.390625 
L 14.109375 43.40625 
L 22.265625 43.40625 
z
M 28.171875 52.390625 
L 28.171875 43.40625 
L 36.921875 43.40625 
L 36.921875 52.390625 
z
M 22.265625 38.375 
L 14.109375 38.375 
L 14.109375 29 
L 22.265625 29 
z
M 28.171875 38.375 
L 28.171875 29 
L 36.921875 29 
L 36.921875 38.375 
z
M 66.265625 15.828125 
Q 59.234375 25.09375 55.46875 36.53125 
L 61.1875 39.203125 
Q 63.921875 29.6875 69.96875 21.296875 
Q 75.390625 30.328125 77.78125 41.21875 
L 83.984375 38.921875 
Q 81.15625 26.859375 74.171875 16.109375 
Q 82.71875 6.9375 96 0.6875 
L 91.546875 -5.90625 
Q 79.203125 0.78125 70.265625 10.796875 
Q 60.203125 -1.21875 47.65625 -7.515625 
L 42.96875 -2 
Q 56.9375 4.046875 66.265625 15.828125 
z
M 72.609375 66.609375 
L 94.671875 66.609375 
L 94.671875 60.203125 
L 46.296875 60.203125 
L 46.296875 66.609375 
L 65.71875 66.609375 
L 65.71875 83.015625 
L 72.609375 83.015625 
z
M 44.484375 35.890625 
Q 53.21875 44.671875 58.40625 57.8125 
L 64.359375 55.328125 
Q 58.890625 41.3125 49.265625 31.109375 
z
M 89.984375 32.90625 
Q 83.34375 44.734375 73.96875 55.328125 
L 79.296875 58.296875 
Q 89.546875 47.5625 95.265625 37.796875 
z
" id="IPAexGothic-36611"/>
    </defs>
    <g transform="translate(160.3675 20.23875)scale(0.12 -0.12)">
     <use xlink:href="#IPAexGothic-26368"/>
     <use x="100" xlink:href="#IPAexGothic-30701"/>
     <use x="200" xlink:href="#IPAexGothic-32076"/>
     <use x="300" xlink:href="#IPAexGothic-36335"/>
     <use x="400" xlink:href="#IPAexGothic-25506"/>
     <use x="500" xlink:href="#IPAexGothic-32034"/>
     <use x="600" xlink:href="#IPAexGothic-12395"/>
     <use x="700" xlink:href="#IPAexGothic-35201"/>
     <use x="800" xlink:href="#IPAexGothic-12377"/>
     <use x="900" xlink:href="#IPAexGothic-12427"/>
     <use x="1000" xlink:href="#IPAexGothic-26178"/>
     <use x="1100" xlink:href="#IPAexGothic-38291"/>
     <use x="1200" xlink:href="#IPAexGothic-12398"/>
     <use x="1300" xlink:href="#IPAexGothic-27604"/>
     <use x="1400" xlink:href="#IPAexGothic-36611"/>
    </g>
   </g>
  </g>
 </g>
 <defs>
  <clipPath id="paffc109b86">
   <rect height="278.16625" width="399.265" x="50.735" y="26.23875"/>
  </clipPath>
 </defs>
</svg>
